<?xml version="1.0" standalone="no"?>
<!DOCTYPE svg PUBLIC "-//W3C//DTD SVG 1.1//EN" "http://www.w3.org/Graphics/SVG/1.1/DTD/svg11.dtd" >
<svg xmlns="http://www.w3.org/2000/svg" xmlns:xlink="http://www.w3.org/1999/xlink" version="1.1">
<metadata></metadata>
<defs>
<font id="ds_greeceregular" horiz-adv-x="886" >
<font-face units-per-em="2048" ascent="1638" descent="-410" />
<missing-glyph horiz-adv-x="1021" />
<glyph horiz-adv-x="0" />
<glyph unicode="&#xd;" horiz-adv-x="1024" />
<glyph unicode=" "  horiz-adv-x="1021" />
<glyph unicode="&#x09;" horiz-adv-x="1021" />
<glyph unicode="&#xa0;" horiz-adv-x="1021" />
<glyph unicode="!" horiz-adv-x="473" d="M20 1405l93 -98l106 -1037h31l102 1008l94 119l-122 67l-107 138l-86 -99zM72 20l108 -57l37 -26l64 -64l155 156l-110 53l-37 29l-62 61z" />
<glyph unicode="&#x22;" horiz-adv-x="784" d="M20 1681l136 -55l84 -74l-70 -190l49 8l178 313l-108 58l-49 33l-64 63zM387 1790l133 -57l82 -74l-67 -189l49 9l178 313l-111 55l-49 35l-61 64z" />
<glyph unicode="$" horiz-adv-x="907" d="M14 -49l152 -152l61 58q18 12 38 24.5t42 26.5q25 16 44.5 30.5t35.5 26.5l-10 -284l-17 -74h164l-18 74l12 364l45 29q80 51 161 104t167 113l-574 543l422 309l111 55l-156 154l-61 -62l-84 -49l8 258l21 74h-162l16 -74l-12 -364l-383 -285l567 -535 q-117 -74 -229.5 -147.5t-229.5 -144.5q-25 -16 -63 -37q-10 -6 -27.5 -15.5t-40.5 -19.5z" />
<glyph unicode="%" horiz-adv-x="1423" d="M23 907l323 -508l291 502l-332 410zM141 905l168 240l205 -254l-172 -299zM377 -12l129 -131l31 118l475 1115l28 45l-127 129l-30 -119l-475 -1114zM782 82l330 -410l283 404l-324 508zM901 92l174 299l201 -313l-170 -240z" />
<glyph unicode="&#x26;" horiz-adv-x="1116" d="M8 782l457 -499l41 -62l86 86l133 76l41 -639v-63h143l-20 75l-41 699l178 100l72 18l-76 150l-55 -55l-449 -256l-272 301l248 4l73 -19v162l-73 -16l-244 -4l309 288l64 41l-113 109l-35 -59z" />
<glyph unicode="'" horiz-adv-x="411" d="M14 1681l136 -55l83 -74l-69 -190l49 8l178 313l-108 58l-50 33l-63 63z" />
<glyph unicode="(" horiz-adv-x="841" d="M23 225q47 -41 112.5 -98t147.5 -133q39 -35 77.5 -71t77.5 -70q37 -33 70 -65t67 -62q8 -6 63.5 -60.5t160.5 -157.5v320q-41 33 -81 66.5t-81 68.5q-53 49 -91 86t-63 60q-29 27 -51 46t-37 33q-49 47 -86.5 80t-66.5 56l10 755l358 656l99 102l-260 129l-33 -123 l-385 -704z" />
<glyph unicode=")" horiz-adv-x="841" d="M41 1647q41 -29 81 -64t81 -72q39 -37 77.5 -73.5t77.5 -71.5q47 -41 75 -68.5t42 -40.5q29 -25 58.5 -51t62.5 -55l-6 -754l-359 -657l-102 -102l264 -130l31 123l385 707l8 911l-414 373q-33 29 -66.5 60.5t-70.5 66.5q-6 6 -61 59.5t-164 157.5v-319z" />
<glyph unicode="+" horiz-adv-x="645" d="M16 449l70 18h176v-176l-18 -72h155l-16 72v176h176l70 -18v155l-70 -18h-176v178l16 67h-155l18 -67v-178h-176l-70 18v-155z" />
<glyph unicode="," horiz-adv-x="409" d="M14 147l131 -55l84 -74l-67 -190l49 6l178 318l-110 55l-50 35l-61 61z" />
<glyph unicode="-" d="M33 336l71 18l693 52h59v139l-72 -19l-690 -53h-61v-137z" />
<glyph unicode="." horiz-adv-x="403" d="M18 -4l109 -55l39 -29l61 -64l156 156l-111 53l-36 29l-62 61z" />
<glyph unicode="/" horiz-adv-x="641" d="M8 -4l119 -123l31 113l450 1058l27 41l-121 123l-29 -112l-450 -1057z" />
<glyph unicode="0" horiz-adv-x="1277" d="M23 719l663 -821l569 811l-655 1015q-29 -49 -76 -134t-114 -201q-78 -133 -125 -216t-70 -120q-47 -84 -96 -166t-96 -168zM264 739l348 600l404 -624l-342 -484zM475 739l166 -168l64 119l30 41l66 68l-168 170l-58 -121l-32 -39z" />
<glyph unicode="1" horiz-adv-x="509" d="M2 1145l158 -158l53 82v-1126h236l-27 106v1483l-336 -330z" />
<glyph unicode="2" horiz-adv-x="1308" d="M35 -102l231 77q293 57 516.5 104.5t352.5 72.5q20 4 37.5 6t29.5 4q16 4 38.5 10t57.5 14v242l-129 -86l-737 -147l604 946l-489 436l-248 -246l-88 -57l158 -160l59 88l127 125l242 -217q-90 -143 -186.5 -297t-195 -309.5t-195.5 -309t-185 -296.5z" />
<glyph unicode="3" horiz-adv-x="1116" d="M39 78l209 -209q156 106 271.5 185t200.5 136.5t144.5 97.5t103.5 66.5t76.5 44t65.5 31.5q-63 35 -139 78t-155 89t-156.5 91t-145.5 86l414 361l-590 409l-62 62l-167 -183l124 -26l400 -277l-432 -372l544 -320q-125 -86 -207.5 -142.5t-138 -94t-93.5 -63t-73 -50.5 h-194z" />
<glyph unicode="4" horiz-adv-x="1478" d="M6 358l279 105l489 96l-41 -754h232l-25 103l25 704l352 88q37 10 72.5 13.5t72.5 3.5v239l-123 -63q-88 -20 -147 -34.5t-101 -24t-71 -15.5t-55 -12l53 883zM473 684l315 420l-16 -346q-41 -12 -80 -21.5t-102 -25.5q-14 -4 -43 -10.5t-74 -16.5z" />
<glyph unicode="5" horiz-adv-x="1138" d="M25 201l151 -35l442 -223l494 950l-680 217v215h402l106 -27v234l-106 -25h-582v-528l598 -193l-311 -602l-287 144l-59 41z" />
<glyph unicode="6" horiz-adv-x="1277" d="M10 711l598 -932l639 883l-497 276l-82 80l-109 -213l103 -29l319 -174l-365 -500l-368 574l901 807l88 59l-158 158l-57 -88z" />
<glyph unicode="7" horiz-adv-x="1093" d="M20 1264l109 28l678 94l-467 -1294l-39 -57l168 -168l39 156l569 1585l-973 -135h-84v-209z" />
<glyph unicode="8" horiz-adv-x="1452" d="M25 1069l520 -264q-86 -78 -171 -153.5t-171 -151.5q-23 -23 -52.5 -43.5t-60.5 -40.5q41 -47 85 -102.5t93 -114.5q90 -113 149.5 -186.5t98.5 -122t62.5 -78t44.5 -54.5l811 797l-570 291l389 358l-485 512zM344 1110l412 354l243 -256q-20 -16 -44.5 -36.5 t-60.5 -52.5t-85 -77t-121 -108zM348 387q92 76 186.5 163t184.5 167l407 -211l-487 -477z" />
<glyph unicode="9" horiz-adv-x="1273" d="M31 815l495 -274l84 -84l107 217l-103 24l-315 176l360 502l369 -577l-899 -803l-88 -59l156 -158l57 84l1010 903l-594 934z" />
<glyph unicode=":" horiz-adv-x="454" d="M23 563l122 -61l43 -31l70 -74l174 172l-125 64l-39 31l-73 71zM23 1090l122 -60l43 -35l70 -67l174 172l-125 59l-39 33l-73 70z" />
<glyph unicode=";" horiz-adv-x="454" d="M16 551l148 -64l92 -81l-76 -211l53 8l199 350l-121 57l-55 41l-68 66zM29 1065l118 -59l43 -33l70 -68l168 170l-121 60l-41 32l-67 66z" />
<glyph unicode="&#x3c;" horiz-adv-x="1355" d="M2 397l1210 -354l84 -45v162h-53l-917 270l809 418l98 24l-111 111l-41 -27z" />
<glyph unicode="=" horiz-adv-x="1021" d="M55 604l72 19l754 24l69 -18v157l-71 -18l-754 -27l-70 19v-156zM70 324l71 16l754 25l70 -17v156l-72 -17l-754 -24l-69 16v-155z" />
<glyph unicode="&#x3e;" horiz-adv-x="1355" d="M57 797h56l919 -271l-811 -417l-98 -25l110 -113l41 27l1080 561l-1211 354l-86 43v-159z" />
<glyph unicode="?" horiz-adv-x="980" d="M14 1022l154 -154l55 111l230 328l254 -256l-426 -408l182 -227l55 -109l154 156l-64 63l-82 101l441 417l-537 547l-354 -510zM346 29l109 -54l39 -28l63 -64l152 156l-109 55l-37 29l-63 61z" />
<glyph unicode="@" horiz-adv-x="1277" d="M47 0h174l-16 80l33 682l565 233l270 -395l-248 -225q0 39 1 64.5t1 41.5v27v18l56 111l-76 20l-309 177l-179 -887l363 391q0 -59 -10 -141t-21 -156q168 145 312.5 276.5t289.5 266.5q-49 63 -99 137t-101.5 149.5t-101.5 149.5t-99 139l-748 -301l-38 -776zM547 391 l45 232l113 -64z" />
<glyph unicode="A" horiz-adv-x="1251" d="M18 -53q119 57 185 92q82 45 156.5 87t148.5 82t147.5 82t153.5 87q29 16 70 26l110 -350l17 -67h221l-66 131l-459 1411zM391 352l289 664l137 -426q-29 -16 -88 -49t-124.5 -70t-125 -71t-88.5 -48z" />
<glyph unicode="B" horiz-adv-x="972" d="M63 -106q100 55 214 120.5t232 133t234.5 136t221.5 134.5l-314 327l275 291l-807 545zM256 219l37 1024l354 -237l-248 -258l277 -293z" />
<glyph unicode="C" horiz-adv-x="1046" d="M4 823l776 -690l56 -86l157 158l-90 59l-608 545l579 414l111 53l-156 154l-59 -60z" />
<glyph unicode="D" horiz-adv-x="919" d="M70 -29l850 844l-850 688v-1532zM248 406v718l401 -325z" />
<glyph unicode="E" horiz-adv-x="942" d="M4 786q150 -160 316 -345t346 -380l57 -90l158 160l-84 55l-453 514l363 -12l106 -24v233l-106 -27l-355 -22l451 438l88 60l-158 157l-57 -88z" />
<glyph unicode="F" horiz-adv-x="890" d="M57 1329l43 -1245l-28 -104h235l-24 106l-25 641l487 -16l107 -25v234l-107 -27l-483 -23l-4 310l535 108h86v209l-113 -29z" />
<glyph unicode="G" horiz-adv-x="972" d="M2 780l823 -848l58 760l28 109l-204 -8q0 -25 -5.5 -85.5t-10.5 -129t-10 -133t-5 -97.5l-406 418l590 483l39 25v268l-154 -153z" />
<glyph unicode="H" horiz-adv-x="1114" d="M55 96h207v90l31 492l532 88l-24 -555l-27 -109h234l-25 105l45 1067l27 106h-234l25 -102l-12 -320l-529 -90l25 385l26 109h-209v-90l-63 -1071z" />
<glyph unicode="I" horiz-adv-x="372" d="M31 1282l28 -108l74 -889v-90h207l-27 108l-75 887v92h-207z" />
<glyph unicode="J" horiz-adv-x="589" d="M37 53l217 -106l25 100l294 516l-270 885v80h-242l66 -127l250 -815l-256 -449z" />
<glyph unicode="K" horiz-adv-x="1062" d="M51 113h234l-27 106v428l545 -608l59 -88l158 158l-84 57l-559 620l463 527l86 57l-156 158l-59 -92l-453 -508v403l27 107h-234l25 -107v-1112z" />
<glyph unicode="L" horiz-adv-x="909" d="M47 303l631 -274l59 -41l168 168l-149 39l-506 227l18 958l25 107h-234l27 -103z" />
<glyph unicode="M" horiz-adv-x="1449" d="M35 -88h239v84l226 1008l262 -572l356 486l80 -822v-92h207l-25 113l-129 1288l-454 -619l-359 777l-340 -1526z" />
<glyph unicode="N" horiz-adv-x="1046" d="M31 219h233l-26 105v682l704 -1213l49 1360l29 104h-236l25 -133l-25 -702l-737 1259v-1357z" />
<glyph unicode="O" horiz-adv-x="1161" d="M20 831l594 -925l527 915l-600 748zM240 825l309 443l375 -463l-318 -547z" />
<glyph unicode="P" horiz-adv-x="739" d="M59 1477l52 -1371l-25 -102h231l-24 105l-21 555l90 -99l60 86l317 312zM272 780l2 316l191 -150z" />
<glyph unicode="Q" horiz-adv-x="1136" d="M14 846l686 -928l56 -111l151 156l-59 62l-289 389l135 -135l56 110l360 492q-45 68 -87 133t-83 127l-172 260q-35 55 -77 121.5t-89 144.5zM240 846l354 495l295 -456l-285 -389l-59 -60z" />
<glyph unicode="R" horiz-adv-x="901" d="M59 1507l47 -1364l-24 -104h233l-26 108l-19 521l412 -590l55 -111l152 156l-60 61l-350 492l330 319zM254 1155l270 -184l-256 -248z" />
<glyph unicode="S" horiz-adv-x="921" d="M18 111l156 -154l64 61q176 111 338.5 215.5t328.5 219.5l-577 544l422 314l112 55l-155 154l-62 -62l-600 -442l571 -539q-72 -47 -129 -85t-109 -71.5t-105.5 -66.5t-116.5 -72q-23 -14 -65 -35.5t-73 -35.5z" />
<glyph unicode="T" horiz-adv-x="962" d="M8 981l109 39l223 29l100 -975v-92h207l-26 110l-105 979l262 39l82 -12l74 196l-107 -39l-665 -90l-80 15z" />
<glyph unicode="U" horiz-adv-x="1173" d="M27 1454l63 -127l399 -1307l414 394v-52l-26 -106h237l-29 102v932l43 107h-235l29 -107v-622l-15 -4l-329 -312l-310 1024v78h-241z" />
<glyph unicode="V" horiz-adv-x="1132" d="M25 1327l38 -55l472 -1292l536 1253l41 57l-168 168l-37 -151l-358 -836l-318 868l-38 156z" />
<glyph unicode="W" horiz-adv-x="1634" d="M35 1303l39 -54l471 -1292l268 629l211 -582l541 1253l39 58l-168 164l-35 -152l-363 -831l-118 333l163 379l39 58l-168 168l-34 -152l-93 -207l-104 287l-39 156l-166 -166l37 -56l168 -465l-166 -385l-315 869l-39 155z" />
<glyph unicode="X" horiz-adv-x="1146" d="M20 176l154 -153l57 110l312 426l250 -424l24 -100l217 108l-84 82l-291 492l383 520l60 61l-152 156l-55 -113l-334 -456l-182 305l-25 100l-217 -106l84 -84l221 -373l-358 -487z" />
<glyph unicode="Y" horiz-adv-x="1122" d="M20 1307l60 -64l369 -543l26 -616l-26 -107h231l-25 109v571l361 646l82 83l-215 109l-25 -100l-307 -527l-322 482l-57 110z" />
<glyph unicode="Z" horiz-adv-x="1300" d="M12 618l989 -679l27 -45l166 159l-121 49q-80 59 -172 123t-188.5 129.5t-193.5 132t-187 131.5l946 664l-848 236l-129 63v-240h84l473 -133z" />
<glyph unicode="[" horiz-adv-x="481" d="M55 -248q47 -10 104.5 -17t155.5 -18l70 -18v154l-74 -19l-133 19l45 1298l168 49l70 -16v153l-70 -18l-293 -21z" />
<glyph unicode="\" horiz-adv-x="641" d="M6 1085l29 -41l450 -1058l29 -113l119 123l-25 43l-450 1057l-31 112z" />
<glyph unicode="]" horiz-adv-x="501" d="M20 1157l68 17l150 -11l63 -1337l-115 -14l-92 10v-150l72 19l280 37l-53 1548l-303 16l-70 19v-154z" />
<glyph unicode="^" horiz-adv-x="579" d="M20 856l146 -74l16 68l131 223l103 -153l39 -74l102 100l-41 41l-211 313l-227 -389z" />
<glyph unicode="_" horiz-adv-x="1771" d="M66 12l71 17h1508l59 -25v139l-72 -10l-1491 23l-75 -6v-138z" />
<glyph unicode="`" horiz-adv-x="399" d="M10 1147l72 -78l254 -219l49 49l-72 64l-149 213l-35 73z" />
<glyph unicode="a" horiz-adv-x="1251" d="M18 -53q119 57 185 92q82 45 156.5 87t148.5 82t147.5 82t153.5 87q29 16 70 26l110 -350l17 -67h221l-66 131l-459 1411zM391 352l289 664l137 -426q-29 -16 -88 -49t-124.5 -70t-125 -71t-88.5 -48z" />
<glyph unicode="b" horiz-adv-x="972" d="M63 -106q100 55 214 120.5t232 133t234.5 136t221.5 134.5l-314 327l275 291l-807 545zM256 219l37 1024l354 -237l-248 -258l277 -293z" />
<glyph unicode="c" horiz-adv-x="1046" d="M4 823l776 -690l56 -86l157 158l-90 59l-608 545l579 414l111 53l-156 154l-59 -60z" />
<glyph unicode="d" horiz-adv-x="919" d="M70 -29l850 844l-850 688v-1532zM248 406v718l401 -325z" />
<glyph unicode="e" horiz-adv-x="942" d="M4 786q150 -160 316 -345t346 -380l57 -90l158 160l-84 55l-453 514l363 -12l106 -24v233l-106 -27l-355 -22l451 438l88 60l-158 157l-57 -88z" />
<glyph unicode="f" horiz-adv-x="890" d="M57 1329l43 -1245l-28 -104h235l-24 106l-25 641l487 -16l107 -25v234l-107 -27l-483 -23l-4 310l535 108h86v209l-113 -29z" />
<glyph unicode="g" horiz-adv-x="972" d="M2 780l823 -848l58 760l28 109l-204 -8q0 -25 -5.5 -85.5t-10.5 -129t-10 -133t-5 -97.5l-406 418l590 483l39 25v268l-154 -153z" />
<glyph unicode="h" horiz-adv-x="1114" d="M55 96h207v90l31 492l532 88l-24 -555l-27 -109h234l-25 105l45 1067l27 106h-234l25 -102l-12 -320l-529 -90l25 385l26 109h-209v-90l-63 -1071z" />
<glyph unicode="i" horiz-adv-x="372" d="M31 1282l28 -108l74 -889v-90h207l-27 108l-75 887v92h-207z" />
<glyph unicode="j" horiz-adv-x="589" d="M37 53l217 -106l25 100l294 516l-270 885v80h-242l66 -127l250 -815l-256 -449z" />
<glyph unicode="k" horiz-adv-x="1062" d="M51 113h234l-27 106v428l545 -608l59 -88l158 158l-84 57l-559 620l463 527l86 57l-156 158l-59 -92l-453 -508v403l27 107h-234l25 -107v-1112z" />
<glyph unicode="l" horiz-adv-x="909" d="M47 303l631 -274l59 -41l168 168l-149 39l-506 227l18 958l25 107h-234l27 -103z" />
<glyph unicode="m" horiz-adv-x="1449" d="M35 -88h239v84l226 1008l262 -572l356 486l80 -822v-92h207l-25 113l-129 1288l-454 -619l-359 777l-340 -1526z" />
<glyph unicode="n" horiz-adv-x="1046" d="M31 219h233l-26 105v682l704 -1213l49 1360l29 104h-236l25 -133l-25 -702l-737 1259v-1357z" />
<glyph unicode="o" horiz-adv-x="1161" d="M20 831l594 -925l527 915l-600 748zM240 825l309 443l375 -463l-318 -547z" />
<glyph unicode="p" horiz-adv-x="739" d="M59 1477l52 -1371l-25 -102h231l-24 105l-21 555l90 -99l60 86l317 312zM272 780l2 316l191 -150z" />
<glyph unicode="q" horiz-adv-x="1136" d="M14 846l686 -928l56 -111l151 156l-59 62l-289 389l135 -135l56 110l360 492q-45 68 -87 133t-83 127l-172 260q-35 55 -77 121.5t-89 144.5zM240 846l354 495l295 -456l-285 -389l-59 -60z" />
<glyph unicode="r" horiz-adv-x="901" d="M59 1507l47 -1364l-24 -104h233l-26 108l-19 521l412 -590l55 -111l152 156l-60 61l-350 492l330 319zM254 1155l270 -184l-256 -248z" />
<glyph unicode="s" horiz-adv-x="921" d="M18 111l156 -154l64 61q176 111 338.5 215.5t328.5 219.5l-577 544l422 314l112 55l-155 154l-62 -62l-600 -442l571 -539q-72 -47 -129 -85t-109 -71.5t-105.5 -66.5t-116.5 -72q-23 -14 -65 -35.5t-73 -35.5z" />
<glyph unicode="t" horiz-adv-x="962" d="M8 981l109 39l223 29l100 -975v-92h207l-26 110l-105 979l262 39l82 -12l74 196l-107 -39l-665 -90l-80 15z" />
<glyph unicode="u" horiz-adv-x="1173" d="M27 1454l63 -127l399 -1307l414 394v-52l-26 -106h237l-29 102v932l43 107h-235l29 -107v-622l-15 -4l-329 -312l-310 1024v78h-241z" />
<glyph unicode="v" horiz-adv-x="1132" d="M25 1327l38 -55l472 -1292l536 1253l41 57l-168 168l-37 -151l-358 -836l-318 868l-38 156z" />
<glyph unicode="w" horiz-adv-x="1634" d="M35 1303l39 -54l471 -1292l268 629l211 -582l541 1253l39 58l-168 164l-35 -152l-363 -831l-118 333l163 379l39 58l-168 168l-34 -152l-93 -207l-104 287l-39 156l-166 -166l37 -56l168 -465l-166 -385l-315 869l-39 155z" />
<glyph unicode="x" horiz-adv-x="1146" d="M20 176l154 -153l57 110l312 426l250 -424l24 -100l217 108l-84 82l-291 492l383 520l60 61l-152 156l-55 -113l-334 -456l-182 305l-25 100l-217 -106l84 -84l221 -373l-358 -487z" />
<glyph unicode="y" horiz-adv-x="1122" d="M20 1307l60 -64l369 -543l26 -616l-26 -107h231l-25 109v571l361 646l82 83l-215 109l-25 -100l-307 -527l-322 482l-57 110z" />
<glyph unicode="z" horiz-adv-x="1300" d="M12 618l989 -679l27 -45l166 159l-121 49q-80 59 -172 123t-188.5 129.5t-193.5 132t-187 131.5l946 664l-848 236l-129 63v-240h84l473 -133z" />
<glyph unicode="{" horiz-adv-x="411" d="M25 506l118 -100l-75 -519l241 -215l76 142l-66 32l-110 95l45 522l-66 49l82 86l-102 434l147 103l-28 176l-246 -234l102 -444z" />
<glyph unicode="|" horiz-adv-x="249" d="M39 -328h139l-10 72l16 1505v62h-139l18 -72v-1505z" />
<glyph unicode="}" horiz-adv-x="411" d="M27 -186l75 -142l222 215l-43 521l106 98l-121 127l105 444l-246 234l-31 -176l150 -103l-103 -434l84 -86l-65 -49l43 -522l-109 -95z" />
<glyph unicode="~" horiz-adv-x="1105" d="M35 463l102 -101l35 72l186 242l347 -381l307 262l78 31l-109 108l-41 -41l-223 -192l-367 401l-274 -358z" />
<glyph unicode="&#xa9;" horiz-adv-x="1198" d="M33 596l211 -746l473 -178l444 506l-57 627l-535 506zM133 578l447 598l436 -414l53 -553l-379 -430l-373 141zM326 492l387 -347l28 -41l78 80l-43 27l-303 272l287 207l57 27l-78 76l-30 -29z" />
<glyph unicode="&#xad;" d="M33 336l71 18l693 52h59v139l-72 -19l-690 -53h-61v-137z" />
<glyph unicode="&#xae;" horiz-adv-x="1163" d="M35 283l653 -611l436 594l-51 625l-530 420l-434 -260zM131 317l64 678l342 205l432 -340l63 -569l-356 -484zM387 948l25 -680l-15 -51h117l-12 53v258l194 -292l27 -54l78 76l-31 31l-174 246l166 157zM485 774l131 -92l-124 -123z" />
<glyph unicode="&#x410;" horiz-adv-x="1251" d="M18 -53q119 57 185 92q82 45 156.5 87t148.5 82t147.5 82t153.5 87q29 16 70 26l110 -350l17 -67h221l-66 131l-459 1411zM391 352l289 664l137 -426q-29 -16 -88 -49t-124.5 -70t-125 -71t-88.5 -48z" />
<glyph unicode="&#x411;" horiz-adv-x="997" d="M63 -106q100 55 214 120.5t232 133t234.5 136t221.5 134.5l-463 483h-217l20 442l569 -65l115 121l-870 182zM256 219l29 645l391 -409z" />
<glyph unicode="&#x412;" horiz-adv-x="972" d="M63 -106q100 55 214 120.5t232 133t234.5 136t221.5 134.5l-314 327l275 291l-807 545zM256 219l37 1024l354 -237l-248 -258l277 -293z" />
<glyph unicode="&#x413;" d="M57 1329l43 -1245l-28 -104h235l-24 106l-25 1094l535 108h86v209l-113 -29z" />
<glyph unicode="&#x414;" horiz-adv-x="919" d="M70 -29l850 844l-850 688v-1532zM248 406v718l401 -325z" />
<glyph unicode="&#x415;" horiz-adv-x="942" d="M4 786q150 -160 316 -345t346 -380l57 -90l158 160l-84 55l-453 514l363 -12l106 -24v233l-106 -27l-355 -22l451 438l88 60l-158 157l-57 -88z" />
<glyph unicode="&#x416;" horiz-adv-x="1816" d="M53 109l158 -158l59 88l545 608v-428l-27 -106h234v2h4l-27 106v428l545 -608l60 -88l157 158l-84 57l-559 620l463 527l86 57l-156 158l-59 -92l-453 -508v403l27 107h-233v-2h-5l27 -107v-403l-453 508l-59 92l-156 -158l86 -57l463 -527l-559 -620z" />
<glyph unicode="&#x417;" horiz-adv-x="970" d="M61 -106q100 55 214 120.5t232 133t234.5 136t221.5 134.5l-314 327l275 291l-807 545l-33 -207l561 -368l-248 -258l277 -293l-606 -381z" />
<glyph unicode="&#x418;" horiz-adv-x="1048" d="M27 1257l28 -104l49 -1360l705 1213v-682l-27 -105h234l-17 105v1357l-737 -1259l-24 702l24 133h-235z" />
<glyph unicode="&#x419;" horiz-adv-x="1054" d="M35 1257l28 -104l50 -1360l704 1213v-682l-26 -105h233l-16 105v1357l-738 -1259l-24 702l16 103zM424 1823l37 -744l452 836h-149l-135 -219l-27 311z" />
<glyph unicode="&#x41a;" horiz-adv-x="1062" d="M51 113h234l-27 106v428l545 -608l59 -88l158 158l-84 57l-559 620l463 527l86 57l-156 158l-59 -92l-453 -508v403l27 107h-234l25 -107v-1112z" />
<glyph unicode="&#x41b;" horiz-adv-x="1251" d="M18 -53l238 35l135 370l289 664l309 -963l17 -67h221l-66 131l-459 1411z" />
<glyph unicode="&#x41c;" horiz-adv-x="1452" d="M37 -88h239v84l226 1008l262 -572l356 486l80 -822v-92h207l-25 113l-129 1288l-454 -619l-359 777l-340 -1526z" />
<glyph unicode="&#x41d;" horiz-adv-x="1114" d="M55 96h207v90l31 492l532 88l-24 -555l-27 -109h234l-25 105l45 1067l27 106h-234l25 -102l-12 -320l-529 -90l25 385l26 109h-209v-90l-63 -1071z" />
<glyph unicode="&#x41e;" horiz-adv-x="1163" d="M20 831l594 -925l527 915l-600 748zM240 825l309 443l375 -463l-318 -547z" />
<glyph unicode="&#x41f;" horiz-adv-x="1118" d="M55 96h207v90l60 1022l530 27l-51 -1024l-27 -109h234l-25 105l45 1067l33 135l-914 -47v-90l-63 -1071z" />
<glyph unicode="&#x420;" horiz-adv-x="741" d="M61 1477l52 -1371l-25 -102h231l-24 105l-21 555l91 -99l59 86l317 312zM274 780l2 316l191 -150z" />
<glyph unicode="&#x421;" horiz-adv-x="1046" d="M4 823l776 -690l56 -86l157 158l-90 59l-608 545l579 414l111 53l-156 154l-59 -60z" />
<glyph unicode="&#x422;" horiz-adv-x="964" d="M8 981l109 39l223 29l100 -975v-92h207l-26 110l-105 979l262 39l82 -12l74 196l-107 -39l-665 -90l-80 15z" />
<glyph unicode="&#x423;" horiz-adv-x="1128" d="M41 1307l59 -64l369 -543l-279 -594l-73 -92l254 -10v105l665 1194l82 83l-215 109l-24 -100l-308 -527l-321 482l-57 110z" />
<glyph unicode="&#x424;" horiz-adv-x="1105" d="M14 963l318 -312l59 -86l90 99l-20 -555l-25 -105h232l-52 658l97 -95l59 86l318 312l-486 442v66l-67 -5l-5 -55zM289 946l190 150v-316zM623 795l2 303l190 -150z" />
<glyph unicode="&#x425;" horiz-adv-x="1146" d="M20 176l154 -153l57 110l312 426l250 -424l24 -100l217 108l-84 82l-291 492l383 520l60 61l-152 156l-55 -113l-334 -456l-182 305l-25 100l-217 -106l84 -84l221 -373l-358 -487z" />
<glyph unicode="&#x426;" horiz-adv-x="1157" d="M33 1432l22 -117v-1024l-12 -164l885 -61v-224l131 -63l53 477l-166 55v955l51 104h-233l20 -108v-1024l-557 43v1038l41 104z" />
<glyph unicode="&#x427;" horiz-adv-x="901" d="M20 672l592 94l-24 -555l-27 -109h234l-25 105l45 1067l27 106h-234l25 -102l-12 -320l-408 -65l25 385l26 108h-239l30 -90z" />
<glyph unicode="&#x428;" horiz-adv-x="1462" d="M63 1407l23 -104v-1072l-8 -90l549 -35v-2l747 -47l-24 136v1067l51 104h-234l21 -109v-1024l-377 27v1038l41 105l-236 8l23 -117l-12 -1024l-365 27v1022l8 90h-207z" />
<glyph unicode="&#x429;" horiz-adv-x="1536" d="M33 1407l22 -104v-1072l-8 -90l549 -35v-2l704 -45v-223l132 -63l53 477l-166 55v955l51 104h-233l20 -109v-1024l-377 27v1038l41 105l-235 8l22 -117v-1024l-377 27v1022l9 90h-207z" />
<glyph unicode="&#x42a;" horiz-adv-x="1013" d="M29 1366l116 -127l226 51l-47 -1288l680 514l-318 311l-59 86l-90 -98l20 555l25 105h-232zM539 383v315l190 -166z" />
<glyph unicode="&#x42b;" horiz-adv-x="1044" d="M63 2l680 514l-317 311l-59 86l-91 -98l21 555l25 105h-232l25 -103zM279 383v315l190 -166zM711 1335l28 -108l74 -889v-90h207l-27 108l-75 887v92h-207z" />
<glyph unicode="&#x42c;" horiz-adv-x="741" d="M61 2l680 514l-317 311l-59 86l-91 -98l21 555l24 105h-231l25 -103zM276 383v315l191 -166z" />
<glyph unicode="&#x42d;" horiz-adv-x="942" d="M51 1346l88 -60l451 -438l-354 22l-107 27v-233l107 24l362 12l-453 -514l-84 -55l158 -160l57 90q180 195 346 380.5t316 344.5l-672 629l-57 88z" />
<glyph unicode="&#x42e;" horiz-adv-x="1538" d="M31 1116l28 -108l74 -889v-90h207l-27 108l-51 613h176l543 -844l526 915l-600 748l-465 -660h-194l-10 115v92h-207zM606 825l309 443l375 -463l-317 -547z" />
<glyph unicode="&#x42f;" horiz-adv-x="903" d="M12 123l152 -156l55 111l412 590l-19 -521l-26 -108h233l-24 104l47 1364l-750 -512l330 -319l-350 -492zM377 971l270 184l-14 -432z" />
<glyph unicode="&#x430;" horiz-adv-x="1251" d="M18 -53q119 57 185 92q82 45 156.5 87t148.5 82t147.5 82t153.5 87q29 16 70 26l110 -350l17 -67h221l-66 131l-459 1411zM391 352l289 664l137 -426q-29 -16 -88 -49t-124.5 -70t-125 -71t-88.5 -48z" />
<glyph unicode="&#x431;" horiz-adv-x="997" d="M63 -106q100 55 214 120.5t232 133t234.5 136t221.5 134.5l-463 483h-217l20 442l569 -65l115 121l-870 182zM256 219l29 645l391 -409z" />
<glyph unicode="&#x432;" horiz-adv-x="972" d="M63 -106q100 55 214 120.5t232 133t234.5 136t221.5 134.5l-314 327l275 291l-807 545zM256 219l37 1024l354 -237l-248 -258l277 -293z" />
<glyph unicode="&#x433;" d="M57 1329l43 -1245l-28 -104h235l-24 106l-25 1094l535 108h86v209l-113 -29z" />
<glyph unicode="&#x434;" horiz-adv-x="919" d="M70 -29l850 844l-850 688v-1532zM248 406v718l401 -325z" />
<glyph unicode="&#x435;" horiz-adv-x="942" d="M4 786q150 -160 316 -345t346 -380l57 -90l158 160l-84 55l-453 514l363 -12l106 -24v233l-106 -27l-355 -22l451 438l88 60l-158 157l-57 -88z" />
<glyph unicode="&#x436;" horiz-adv-x="1816" d="M53 109l158 -158l59 88l545 608v-428l-27 -106h234v2h4l-27 106v428l545 -608l60 -88l157 158l-84 57l-559 620l463 527l86 57l-156 158l-59 -92l-453 -508v403l27 107h-233v-2h-5l27 -107v-403l-453 508l-59 92l-156 -158l86 -57l463 -527l-559 -620z" />
<glyph unicode="&#x437;" horiz-adv-x="970" d="M61 -106q100 55 214 120.5t232 133t234.5 136t221.5 134.5l-314 327l275 291l-807 545l-33 -207l561 -368l-248 -258l277 -293l-606 -381z" />
<glyph unicode="&#x438;" horiz-adv-x="1048" d="M27 1257l28 -104l49 -1360l705 1213v-682l-27 -105h234l-17 105v1357l-737 -1259l-24 702l24 133h-235z" />
<glyph unicode="&#x439;" horiz-adv-x="1054" d="M35 1257l28 -104l50 -1360l704 1213v-682l-26 -105h233l-16 105v1357l-738 -1259l-24 702l16 103zM424 1823l37 -744l452 836h-149l-135 -219l-27 311z" />
<glyph unicode="&#x43a;" horiz-adv-x="1062" d="M51 113h234l-27 106v428l545 -608l59 -88l158 158l-84 57l-559 620l463 527l86 57l-156 158l-59 -92l-453 -508v403l27 107h-234l25 -107v-1112z" />
<glyph unicode="&#x43b;" horiz-adv-x="1251" d="M18 -53l238 35l135 370l289 664l309 -963l17 -67h221l-66 131l-459 1411z" />
<glyph unicode="&#x43c;" horiz-adv-x="1452" d="M37 -88h239v84l226 1008l262 -572l356 486l80 -822v-92h207l-25 113l-129 1288l-454 -619l-359 777l-340 -1526z" />
<glyph unicode="&#x43d;" horiz-adv-x="1114" d="M55 96h207v90l31 492l532 88l-24 -555l-27 -109h234l-25 105l45 1067l27 106h-234l25 -102l-12 -320l-529 -90l25 385l26 109h-209v-90l-63 -1071z" />
<glyph unicode="&#x43e;" horiz-adv-x="1163" d="M20 831l594 -925l527 915l-600 748zM240 825l309 443l375 -463l-318 -547z" />
<glyph unicode="&#x43f;" horiz-adv-x="1118" d="M55 96h207v90l60 1022l530 27l-51 -1024l-27 -109h234l-25 105l45 1067l33 135l-914 -47v-90l-63 -1071z" />
<glyph unicode="&#x440;" horiz-adv-x="741" d="M61 1477l52 -1371l-25 -102h231l-24 105l-21 555l91 -99l59 86l317 312zM274 780l2 316l191 -150z" />
<glyph unicode="&#x441;" horiz-adv-x="1046" d="M4 823l776 -690l56 -86l157 158l-90 59l-608 545l579 414l111 53l-156 154l-59 -60z" />
<glyph unicode="&#x442;" horiz-adv-x="964" d="M8 981l109 39l223 29l100 -975v-92h207l-26 110l-105 979l262 39l82 -12l74 196l-107 -39l-665 -90l-80 15z" />
<glyph unicode="&#x443;" horiz-adv-x="1128" d="M41 1307l59 -64l369 -543l-279 -594l-73 -92l254 -10v105l665 1194l82 83l-215 109l-24 -100l-308 -527l-321 482l-57 110z" />
<glyph unicode="&#x444;" horiz-adv-x="1105" d="M14 963l318 -312l59 -86l90 99l-20 -555l-25 -105h232l-52 658l97 -95l59 86l318 312l-486 442v66l-67 -5l-5 -55zM289 946l190 150v-316zM623 795l2 303l190 -150z" />
<glyph unicode="&#x445;" horiz-adv-x="1146" d="M20 176l154 -153l57 110l312 426l250 -424l24 -100l217 108l-84 82l-291 492l383 520l60 61l-152 156l-55 -113l-334 -456l-182 305l-25 100l-217 -106l84 -84l221 -373l-358 -487z" />
<glyph unicode="&#x446;" horiz-adv-x="1157" d="M33 1432l22 -117v-1024l-12 -164l885 -61v-224l131 -63l53 477l-166 55v955l51 104h-233l20 -108v-1024l-557 43v1038l41 104z" />
<glyph unicode="&#x447;" horiz-adv-x="901" d="M20 672l592 94l-24 -555l-27 -109h234l-25 105l45 1067l27 106h-234l25 -102l-12 -320l-408 -65l25 385l26 108h-239l30 -90z" />
<glyph unicode="&#x448;" horiz-adv-x="1462" d="M63 1407l23 -104v-1072l-8 -90l549 -35v-2l747 -47l-24 136v1067l51 104h-234l21 -109v-1024l-377 27v1038l41 105l-236 8l23 -117l-12 -1024l-365 27v1022l8 90h-207z" />
<glyph unicode="&#x449;" horiz-adv-x="1536" d="M33 1407l22 -104v-1072l-8 -90l549 -35v-2l704 -45v-223l132 -63l53 477l-166 55v955l51 104h-233l20 -109v-1024l-377 27v1038l41 105l-235 8l22 -117v-1024l-377 27v1022l9 90h-207z" />
<glyph unicode="&#x44a;" horiz-adv-x="1013" d="M29 1366l116 -127l226 51l-47 -1288l680 514l-318 311l-59 86l-90 -98l20 555l25 105h-232zM539 383v315l190 -166z" />
<glyph unicode="&#x44b;" horiz-adv-x="1044" d="M63 2l680 514l-317 311l-59 86l-91 -98l21 555l25 105h-232l25 -103zM279 383v315l190 -166zM711 1335l28 -108l74 -889v-90h207l-27 108l-75 887v92h-207z" />
<glyph unicode="&#x44c;" horiz-adv-x="741" d="M61 2l680 514l-317 311l-59 86l-91 -98l21 555l24 105h-231l25 -103zM276 383v315l191 -166z" />
<glyph unicode="&#x44d;" horiz-adv-x="942" d="M51 1346l88 -60l451 -438l-354 22l-107 27v-233l107 24l362 12l-453 -514l-84 -55l158 -160l57 90q180 195 346 380.5t316 344.5l-672 629l-57 88z" />
<glyph unicode="&#x44e;" horiz-adv-x="1538" d="M31 1116l28 -108l74 -889v-90h207l-27 108l-51 613h176l543 -844l526 915l-600 748l-465 -660h-194l-10 115v92h-207zM606 825l309 443l375 -463l-317 -547z" />
<glyph unicode="&#x44f;" horiz-adv-x="903" d="M12 123l152 -156l55 111l412 590l-19 -521l-26 -108h233l-24 104l47 1364l-750 -512l330 -319l-350 -492zM377 971l270 184l-14 -432z" />
<glyph unicode="&#x2000;" horiz-adv-x="1012" />
<glyph unicode="&#x2001;" horiz-adv-x="2025" />
<glyph unicode="&#x2002;" horiz-adv-x="1012" />
<glyph unicode="&#x2003;" horiz-adv-x="2025" />
<glyph unicode="&#x2004;" horiz-adv-x="675" />
<glyph unicode="&#x2005;" horiz-adv-x="506" />
<glyph unicode="&#x2006;" horiz-adv-x="337" />
<glyph unicode="&#x2007;" horiz-adv-x="337" />
<glyph unicode="&#x2008;" horiz-adv-x="253" />
<glyph unicode="&#x2009;" horiz-adv-x="405" />
<glyph unicode="&#x200a;" horiz-adv-x="112" />
<glyph unicode="&#x2010;" d="M33 336l71 18l693 52h59v139l-72 -19l-690 -53h-61v-137z" />
<glyph unicode="&#x2011;" d="M33 336l71 18l693 52h59v139l-72 -19l-690 -53h-61v-137z" />
<glyph unicode="&#x2012;" d="M33 336l71 18l693 52h59v139l-72 -19l-690 -53h-61v-137z" />
<glyph unicode="&#x2013;" d="M33 336l71 18l693 52h59v139l-72 -19l-690 -53h-61v-137z" />
<glyph unicode="&#x2014;" horiz-adv-x="1771" d="M63 528l72 17h1507l60 -25v139l-72 -10l-1505 17h-62v-138z" />
<glyph unicode="&#x2018;" horiz-adv-x="409" d="M18 1608l109 -56l49 -34l64 -64l153 156l-133 57l-84 74l70 188l-49 -8z" />
<glyph unicode="&#x2019;" horiz-adv-x="411" d="M14 1681l136 -55l83 -74l-69 -190l49 8l178 313l-108 58l-50 33l-63 63z" />
<glyph unicode="&#x201c;" horiz-adv-x="786" d="M25 1595l112 -57l49 -35l60 -59l155 153l-133 58l-82 74l68 188l-49 -6zM389 1704l111 -57l49 -35l61 -60l156 154l-133 57l-84 74l69 188l-49 -6z" />
<glyph unicode="&#x201d;" horiz-adv-x="784" d="M20 1681l136 -55l84 -74l-70 -190l49 8l178 313l-108 58l-49 33l-64 63zM387 1790l133 -57l82 -74l-67 -189l49 9l178 313l-111 55l-49 35l-61 64z" />
<glyph unicode="&#x201e;" horiz-adv-x="784" d="M20 12l136 -55l84 -74l-70 -190l49 8l178 313l-108 58l-49 32l-64 64zM387 121l133 -58l82 -73l-67 -189l49 9l178 313l-111 55l-49 35l-61 63z" />
<glyph unicode="&#x2026;" horiz-adv-x="1202" d="M47 111l80 -39l27 -21l45 -45l112 113l-78 41l-28 18l-45 47zM471 92l80 -41l29 -22l45 -43l112 110l-80 41l-28 23l-45 43zM891 86l80 -39l26 -20l45 -47l113 114l-80 39l-26 21l-45 47z" />
<glyph unicode="&#x202f;" horiz-adv-x="405" />
<glyph unicode="&#x205f;" horiz-adv-x="506" />
<glyph unicode="&#x2122;" horiz-adv-x="1536" d="M25 913l88 -178l67 70l182 102l48 -760v-73h170l-23 88l-51 827l215 123l82 23l-88 176l-68 -70l-541 -307zM616 268h156v56l143 649l168 -367l232 312l53 -531v-57h133l-16 71l-82 830l-295 -395l-231 501l-220 -989z" />
<glyph unicode="&#x25fc;" horiz-adv-x="1454" d="M0 0v1454h1454v-1454h-1454z" />
</font>
</defs>
</svg>
