<?xml version="1.0" standalone="no"?>
<!DOCTYPE svg PUBLIC "-//W3C//DTD SVG 1.1//EN" "http://www.w3.org/Graphics/SVG/1.1/DTD/svg11.dtd" >
<svg xmlns="http://www.w3.org/2000/svg" xmlns:xlink="http://www.w3.org/1999/xlink" version="1.1">
<metadata>
Created by FontForge 20161013 at Tue Apr 12 06:33:08 2005
 By ,,,
Part of the digitally encoded machine readable outline data for producing the Typefaces provided is copyrighted (c) 1981,2005 Linotype Library GmbH, www.linotype.com. All rights reserved. This software is the property of Linotype Library GmbH, and may not be reproduced, used, displayed, modified, disclosed or transferred without the express written approval of Linotype Library GmbH.Copyright (c) 1981, 1990 Adobe Systems Incorporated. All rights reserved. All Cyrillic characters are designed for Linotype Library by Double Alex.
</metadata>
<defs>
<font id="HelveticaNeueLTCYR-MdCond" horiz-adv-x="481" >
  <font-face 
    font-family="HelveticaNeue LT CYR 67 MedCn"
    font-weight="500"
    font-stretch="normal"
    units-per-em="1000"
    panose-1="2 0 6 6 4 0 0 2 0 4"
    ascent="800"
    descent="-200"
    x-height="536"
    cap-height="712"
    bbox="-29 -214 1021 896"
    underline-thickness="50"
    underline-position="-150"
    unicode-range="U+0020-F8FF"
  />
<missing-glyph horiz-adv-x="512" 
d="M222 117v67h56v-67h-56zM225 234l-2 17q0 56 13 81q7 13 18 27.5t28 31.5q16 15 26 26.5t15 21t7 18t2 17.5q0 36 -22.5 60.5t-53.5 24.5t-53.5 -22t-28.5 -73l-50 8q7 72 44 104.5t91 32.5t89 -35.5t35 -95.5q0 -32 -12.5 -58.5t-50.5 -61.5q-37 -33 -43 -52
q-6 -20 -6 -72h-46zM462 50v617h-412v-617h412zM512 718v-718h-512v718h512z" />
    <glyph glyph-name=".notdef" horiz-adv-x="512" 
d="M222 117v67h56v-67h-56zM225 234l-2 17q0 56 13 81q7 13 18 27.5t28 31.5q16 15 26 26.5t15 21t7 18t2 17.5q0 36 -22.5 60.5t-53.5 24.5t-53.5 -22t-28.5 -73l-50 8q7 72 44 104.5t91 32.5t89 -35.5t35 -95.5q0 -32 -12.5 -58.5t-50.5 -61.5q-37 -33 -43 -52
q-6 -20 -6 -72h-46zM462 50v617h-412v-617h412zM512 718v-718h-512v718h512z" />
    <glyph glyph-name=".null" horiz-adv-x="0" 
 />
    <glyph glyph-name="nonmarkingreturn" horiz-adv-x="240" 
 />
    <glyph glyph-name="space" unicode=" " horiz-adv-x="240" 
 />
    <glyph glyph-name="exclam" unicode="!" horiz-adv-x="278" 
d="M194 711v-225l-18 -294h-76l-19 294v225h113zM195 111v-111h-113v111h113z" />
    <glyph glyph-name="quotedbl" unicode="&#x22;" horiz-adv-x="426" 
d="M103 425l-14 287h83l-14 -287h-55zM267 425l-13 287h83l-14 -287h-56z" />
    <glyph glyph-name="numbersign" unicode="#" horiz-adv-x="480" 
d="M44 0l38 207h-83v69h95l30 159h-83v69h96l38 208h81l-39 -208h102l39 208h80l-39 -208h82l-1 -69h-94l-29 -159h81v-69h-94l-38 -207h-81l39 207h-102l-38 -207h-80zM306 435h-102l-29 -159h101z" />
    <glyph glyph-name="dollar" unicode="$" horiz-adv-x="480" 
d="M262 710q85 -5 131.5 -51.5t46.5 -127.5v-8h-101q-2 51 -20.5 75.5t-56.5 27.5v-214q44 -15 79.5 -32t61 -42t39.5 -60t14 -85q0 -42 -13 -79.5t-37.5 -65.5t-59.5 -44.5t-80 -16.5h-5v-87h-45v87q-96 2 -146.5 56t-50.5 156v15h104v-16q0 -23 4.5 -45t15 -40.5t28 -30.5
t44.5 -13v248q-39 15 -72 31t-58 39t-39 55t-14 78q0 85 47.5 134t136.5 56v72h46v-72zM216 626q-80 -12 -80 -94q0 -37 18.5 -60.5t61.5 -41.5v196zM261 69q42 5 65.5 36t23.5 81q0 49 -23 72t-66 40v-229z" />
    <glyph glyph-name="percent" unicode="%" horiz-adv-x="759" 
d="M39 515q0 38 3.5 73t17 62t41 43.5t75.5 16.5q46 0 72.5 -15t40 -41t17.5 -60.5t4 -73.5q0 -38 -3.5 -73t-18 -61t-42.5 -41.5t-76 -15.5q-45 0 -71 15t-39.5 40.5t-17 59t-3.5 71.5zM573 717l-314 -730h-75l314 730h75zM124 520q0 -68 8 -98t42 -30q20 0 30.5 12t15 31
t5 41.5t0.5 43.5q0 26 -1 49.5t-5.5 41t-15 27.5t-28.5 10q-35 0 -43 -33.5t-8 -94.5zM449 177q0 38 3.5 73t17 62t41 43.5t75.5 16.5q46 0 72.5 -15t40 -41t17.5 -60.5t4 -73.5q0 -38 -3.5 -73t-18 -61t-42.5 -41.5t-76 -15.5q-45 0 -71 15t-39.5 40.5t-17 59t-3.5 71.5z
M534 182q0 -68 8 -98t42 -30q20 0 30.5 12t15 31t5 41.5t0.5 43.5q0 26 -1 49.5t-5.5 41t-15 27.5t-28.5 10q-35 0 -43 -33.5t-8 -94.5z" />
    <glyph glyph-name="ampersand" unicode="&#x26;" horiz-adv-x="574" 
d="M546 338q-1 -27 -6 -56t-13.5 -56.5t-20 -52.5t-25.5 -44l93 -129h-121l-44 63q-35 -39 -78.5 -57.5t-100.5 -18.5q-44 0 -82 13.5t-66.5 39t-44.5 62t-16 82.5q0 42 11.5 72.5t31 55t46 46t55.5 44.5q-12 18 -25.5 37t-24 39.5t-17.5 42t-7 44.5q0 32 12 59t34 46
t52.5 29.5t67.5 10.5q75 0 118 -38.5t43 -104.5q0 -33 -10 -58t-27.5 -46t-39.5 -38.5t-46 -34.5l125 -176q11 19 18.5 53t8.5 71h99zM245 456q13 11 26.5 23t25 26t19 30t7.5 34q0 31 -18 48t-49 17t-49.5 -17t-18.5 -45q0 -14 6 -29.5t14.5 -31.5t18.5 -30.5t18 -24.5z
M219 334q-41 -24 -65.5 -57t-24.5 -82q0 -26 9 -47.5t25 -37.5t37.5 -25t47.5 -9q65 0 112 60l-141 198v0z" />
    <glyph glyph-name="quotesingle" unicode="'" horiz-adv-x="240" 
d="M94 425l-15 287h83l-15 -287h-53z" />
    <glyph glyph-name="parenleft" unicode="(" horiz-adv-x="259" 
d="M262 720q-30 -59 -51.5 -111.5t-35.5 -105t-21 -108.5t-7 -123q0 -65 7 -122.5t21 -111.5t36 -107.5t51 -108.5h-74q-65 101 -103 215t-38 235q0 63 9.5 121t27.5 113t44 108t60 106h74z" />
    <glyph glyph-name="parenright" unicode=")" horiz-adv-x="259" 
d="M211 272q0 -121 -38 -235t-103 -215h-74q29 55 50.5 108.5t36 107.5t21.5 111.5t7 122.5q0 67 -7 123t-21 108.5t-35.5 105t-51.5 111.5h74q34 -53 60 -106t44 -108t27.5 -113t9.5 -121z" />
    <glyph glyph-name="asterisk" unicode="*" horiz-adv-x="370" 
d="M219 715v-81q0 -20 -1 -27.5t-3 -18.5q15 7 33 14l82 31l23 -62l-70 -26l-22.5 -7.5t-23.5 -6.5q19 -20 36 -42l44 -57l-55 -41l-44 59q-8 11 -17.5 25.5t-14.5 22.5q-3 -4 -10 -15t-15 -22l-50 -69l-55 41l42 56q8 11 17.5 21.5t19.5 20.5q-11 3 -25 6.5t-22 6.5l-73 25
l23 65l69 -26q26 -10 47 -21q-2 11 -2 26.5v32.5v69h67z" />
    <glyph glyph-name="plus" unicode="+" horiz-adv-x="600" 
d="M259 345v225h82v-225h223v-78h-223v-226h-82v226h-222v78h222z" />
    <glyph glyph-name="comma" unicode="," horiz-adv-x="240" 
d="M178 129v-83q0 -35 -2.5 -68t-13.5 -60t-33.5 -46t-63.5 -26v57q18 5 27.5 15t14.5 23t6 28t1 31h-49v129h113z" />
    <glyph glyph-name="hyphen" unicode="-" horiz-adv-x="352" 
d="M308 335v-97h-260v97h260z" />
    <glyph glyph-name="period" unicode="." horiz-adv-x="240" 
d="M177 129v-129h-113v129h113z" />
    <glyph glyph-name="slash" unicode="/" horiz-adv-x="296" 
d="M305 719l-225 -728h-89l226 728h88z" />
    <glyph glyph-name="zero" unicode="0" horiz-adv-x="480" 
d="M30 362q0 57 5.5 118.5t27 113.5t64 85.5t116.5 33.5t116 -32.5t62.5 -83.5t25.5 -112t5 -118q0 -42 -1 -86t-7.5 -86.5t-20 -80.5t-38 -66.5t-62.5 -45.5t-93 -17q-51 0 -86 17.5t-57.5 47.5t-34 68.5t-16.5 80.5t-5.5 84t-0.5 79zM143 362q0 -54 0.5 -108t11.5 -107
q17 -82 83 -82q71 0 87 86q10 52 11.5 105t1.5 106q0 49 -2 106t-17 103q-20 60 -77 60q-58 0 -80 -66q-5 -15 -8.5 -31.5t-6 -39.5t-3.5 -55t-1 -77z" />
    <glyph glyph-name="one" unicode="1" horiz-adv-x="480" 
d="M70 591q33 0 61.5 5.5t51 19t37 36t18.5 57.5h81v-709h-111v518h-147v73h9z" />
    <glyph glyph-name="two" unicode="2" horiz-adv-x="480" 
d="M36 487q0 107 49.5 165t160.5 58q95 0 146 -50.5t51 -147.5t-54 -160l-17.5 -21t-19.5 -20t-31 -28t-51 -45q-26 -23 -45.5 -42t-33 -36t-22 -34.5t-11.5 -37.5q10 0 19.5 1.5t19.5 1.5h250v-91h-412v6q0 48 11 88.5t31 76t48 67.5t63 62l59 52q24 21 40 39.5t25.5 37
t13.5 39t4 45.5q0 57 -23.5 86.5t-68.5 29.5q-94 0 -94 -143v-5h-108v6z" />
    <glyph glyph-name="three" unicode="3" horiz-adv-x="480" 
d="M137 198q2 -69 25.5 -101t71.5 -32t73 33.5t25 96.5q0 29 -5.5 51t-16.5 41q-8 12 -17 20t-21.5 12.5t-31 6.5t-44.5 2h-23v77q6 -1 8.5 -1h6.5q26 0 42 2.5t30 7.5q26 10 40 38.5t14 72.5q0 104 -84 104q-87 0 -87 -120v-4h-106q0 99 49 151.5t149 52.5q91 0 140.5 -47
t49.5 -133q0 -63 -30 -105.5t-81 -52.5q65 -8 98.5 -51.5t33.5 -117.5q0 -106 -56 -161.5t-162 -55.5q-97 0 -148 54.5t-52 158.5h109z" />
    <glyph glyph-name="four" unicode="4" horiz-adv-x="480" 
d="M24 258l245 450h116v-457h75v-90h-75v-161h-107v161h-254v97zM111 249q5 2 12.5 2h12.5h143v219q0 22 2 52.5t7 58.5q-8 -20 -17 -40.5t-17 -35.5l-113 -210q-7 -12 -14 -23.5t-16 -22.5z" />
    <glyph glyph-name="five" unicode="5" horiz-adv-x="480" 
d="M138 190v-7q0 -56 24 -86.5t68 -30.5q32 0 52 16.5t31 41.5t14.5 54t3.5 54q0 75 -25.5 114t-75.5 39q-33 0 -56 -17t-32 -47l-99 4l32 373h340v-91h-254l-24 -196q18 28 50.5 43t73.5 15q89 0 136 -60t47 -175q0 -123 -55 -186t-161 -63q-199 0 -199 205h109z" />
    <glyph glyph-name="six" unicode="6" horiz-adv-x="480" 
d="M329 539q-2 45 -23 69t-59 24q-35 0 -54.5 -18t-29.5 -46t-13.5 -63t-6.5 -68l-5 -59q45 80 140 80q87 0 133 -58t46 -167q0 -53 -12 -98.5t-38 -79t-66.5 -52.5t-98.5 -19q-75 0 -118 31.5t-64 82t-26 112t-5 121.5q0 63 4.5 130t26 123t67 92t126.5 36
q88 0 135.5 -44.5t49.5 -128.5h-109zM245 66q48 0 72.5 39.5t24.5 115.5q0 25 -3.5 51.5t-14 48.5t-30 36t-50.5 14q-95 0 -95 -140q0 -24 3.5 -52.5t13.5 -53.5t29 -42t50 -17z" />
    <glyph glyph-name="seven" unicode="7" horiz-adv-x="480" 
d="M448 698v-90q-53 -74 -89 -145.5t-61.5 -145t-42 -152t-29.5 -165.5h-120q3 68 24.5 152t55 167.5t75.5 158.5t85 125q-15 -2 -31 -3t-31 -1h-255v99h419z" />
    <glyph glyph-name="eight" unicode="8" horiz-adv-x="480" 
d="M150 380q-26 6 -45 21t-31.5 35.5t-19 45t-6.5 49.5q0 86 50.5 133.5t141.5 47.5q93 0 143 -46.5t50 -133.5q0 -60 -27 -101t-72 -51q58 -13 89 -60t31 -122q0 -105 -55 -159t-159 -54q-103 0 -157 55t-54 158q0 75 31 121.5t90 60.5zM158 523q0 -51 21.5 -79t61.5 -28
t61.5 28t21.5 80q0 108 -84 108q-82 0 -82 -109zM143 201q0 -68 25 -103t74 -35q99 0 99 139q0 135 -100 135q-98 0 -98 -136z" />
    <glyph glyph-name="nine" unicode="9" horiz-adv-x="480" 
d="M153 157q1 -45 21.5 -69t59.5 -24q37 0 57 21t30 51.5t12.5 64.5t4.5 60q2 17 3 31.5t3 29.5q-22 -43 -55 -63t-83 -20q-88 0 -134.5 58t-46.5 168q0 120 55.5 183.5t160.5 63.5q75 0 117.5 -32t63.5 -82.5t25.5 -112.5t4.5 -121q0 -40 -1.5 -83.5t-8.5 -86t-21 -80.5
t-39 -67t-62.5 -46t-91.5 -17q-87 0 -134.5 44.5t-49.5 128.5h109zM332 482q0 69 -25.5 108.5t-70.5 39.5q-48 0 -72.5 -40t-24.5 -117q0 -25 3.5 -51t14 -47.5t30 -35.5t50.5 -14q30 0 49 13.5t29 35t13.5 50t3.5 58.5z" />
    <glyph glyph-name="colon" unicode=":" horiz-adv-x="240" 
d="M176 511v-128h-113v128h113zM176 129v-129h-113v129h113z" />
    <glyph glyph-name="semicolon" unicode=";" horiz-adv-x="240" 
d="M177 511v-128h-113v128h113zM177 129v-83q0 -35 -2.5 -68t-13.5 -60t-33.5 -46t-63.5 -26v57q18 5 27.5 15t14.5 23t6 28t1 31h-49v129h113z" />
    <glyph glyph-name="less" unicode="&#x3c;" horiz-adv-x="600" 
d="M45 347l509 200v-86l-405 -155l405 -154v-87l-509 200v82z" />
    <glyph glyph-name="equal" unicode="=" horiz-adv-x="600" 
d="M563 432v-76h-526v76h526zM563 253v-75h-526v75h526z" />
    <glyph glyph-name="greater" unicode="&#x3e;" horiz-adv-x="600" 
d="M45 65v87l406 154l-406 155v86l509 -200v-82z" />
    <glyph glyph-name="question" unicode="?" horiz-adv-x="463" 
d="M36 499q-1 4 -1 9q0 103 50.5 158t144.5 55q91 0 141.5 -50.5t50.5 -138.5q0 -49 -15 -86.5t-50 -75.5l-35 -38q-17 -19 -27.5 -34t-16 -30t-7 -33t-1.5 -43h-102v9q0 35 3 59.5t10.5 44.5t21 39t34.5 43l33 37q23 26 34 53.5t11 62.5q0 48 -22.5 74.5t-63.5 26.5
q-89 0 -89 -136v-6h-104v0zM278 111v-111h-113v111h113z" />
    <glyph glyph-name="at" unicode="@" horiz-adv-x="800" 
d="M720 93q-72 -52 -143 -79t-160 -27q-78 0 -147.5 24.5t-122.5 71t-84 113t-31 149.5q0 84 32 153.5t86.5 119.5t127.5 77.5t154 27.5q66 0 126.5 -19.5t106.5 -57t73.5 -92t27.5 -125.5q0 -36 -9 -73.5t-26.5 -71t-44 -60t-61.5 -41.5q-31 -14 -63 -14t-55.5 18t-23.5 52
q0 16 4 28q-22 -43 -56 -70.5t-85 -27.5q-33 0 -58 12t-42 33t-25.5 48.5t-8.5 57.5q0 41 14.5 83t40.5 76.5t62.5 56.5t80.5 22q42 0 73 -19t43 -61l19 64h69l-61 -206q-5 -16 -10.5 -37.5t-5.5 -38.5q0 -20 12 -30.5t32 -10.5t36.5 9.5t30.5 21.5q36 32 54 83.5t18 98.5
q0 61 -24 107.5t-64 77.5t-92 46.5t-108 15.5q-74 0 -138.5 -25t-112.5 -69.5t-75.5 -106t-27.5 -135.5t27.5 -132t74.5 -98t108.5 -61t130.5 -21q81 0 145.5 24t130.5 71zM498 431q0 32 -19 54.5t-53 22.5q-31 0 -55.5 -20.5t-42 -50t-26.5 -63t-9 -59.5q0 -17 4 -34.5
t12.5 -31t22.5 -22t34 -8.5q32 0 56.5 23.5t41.5 56.5t25.5 69.5t8.5 62.5z" />
    <glyph glyph-name="A" unicode="A" horiz-adv-x="519" 
d="M336 712l191 -712h-120l-44 175h-207l-46 -175h-118l197 712h147zM261 634q-4 -32 -11.5 -64t-15.5 -64l-60 -239h170l-57 238q-8 32 -14 64t-11 65h-1v0z" />
    <glyph glyph-name="B" unicode="B" horiz-adv-x="537" 
d="M268 712q36 0 73 -7t67 -26.5t49 -54.5t19 -91q0 -60 -27.5 -100.5t-78.5 -55.5q63 -14 96.5 -57.5t33.5 -115.5q0 -106 -61.5 -155t-170.5 -49h-210v712h210zM170 412h44q30 0 57 2t47.5 12.5t32.5 32t12 61.5q0 33 -9 53.5t-24.5 32t-36.5 15.5t-45 4h-78v-213zM170 86
h78q32 0 57.5 6t43 20.5t26.5 38t9 59.5q0 64 -41 97q-17 15 -42.5 20t-63.5 5h-67v-246z" />
    <glyph glyph-name="C" unicode="C" horiz-adv-x="519" 
d="M491 255v-10q0 -57 -12.5 -105t-39.5 -82.5t-69.5 -53.5t-103.5 -19q-55 0 -93 15.5t-63.5 42.5t-40 62.5t-21.5 76t-9 83.5t-2 84q0 65 6 132t29 121t70 88.5t129 34.5q58 0 98.5 -16t66.5 -46.5t38 -74t12 -98.5h-112v1q0 148 -103 148q-41 0 -64.5 -22.5t-35.5 -62
t-15 -92.5t-3 -114q0 -67 4.5 -118.5t17.5 -87t36 -54t59 -18.5q55 0 81.5 45t27.5 140h112z" />
    <glyph glyph-name="D" unicode="D" horiz-adv-x="556" 
d="M218 712q40 0 70 -2.5t53.5 -8t42 -14t35.5 -21.5q48 -38 70 -107t22 -184q0 -37 -2 -78.5t-9 -82t-21 -78t-38 -67.5q-36 -44 -83.5 -56.5t-101.5 -12.5h-200v712h162zM169 87h62q46 0 72.5 8.5t43.5 28.5q18 21 27.5 53t14 66.5t5.5 68.5t1 60q0 95 -14 147.5t-45 79.5
q-17 15 -44 20.5t-79 5.5h-44v-538z" />
    <glyph glyph-name="E" unicode="E" 
d="M444 712v-95h-269v-200h253v-94h-253v-228h280v-95h-392v712h381z" />
    <glyph glyph-name="F" unicode="F" horiz-adv-x="463" 
d="M441 712v-95h-266v-200h250v-94h-250v-323h-114v712h380z" />
    <glyph glyph-name="G" unicode="G" horiz-adv-x="537" 
d="M497 373v-373h-83l-2 87q-40 -102 -157 -102q-76 0 -118.5 36t-63.5 90.5t-26 118.5t-5 120q0 43 2 87.5t10 86t23 78t41 63.5t65 43t94 16q208 0 213 -217h-112q-3 133 -102 133q-44 0 -68 -25.5t-35 -67.5t-13 -96t-2 -111q0 -59 4 -108.5t17 -86t36 -57t62 -20.5
q40 0 63 22.5t34.5 55t14 69.5t2.5 66v8h-121v84h227z" />
    <glyph glyph-name="H" unicode="H" horiz-adv-x="556" 
d="M382 427v285h114v-712h-114v330h-208v-330h-114v712h114v-285h208z" />
    <glyph glyph-name="I" unicode="I" horiz-adv-x="222" 
d="M169 712v-712h-115v712h115z" />
    <glyph glyph-name="J" unicode="J" horiz-adv-x="444" 
d="M126 214v-11q0 -21 1 -44.5t8 -43t22 -32t44 -12.5q30 0 45.5 13t22 33.5t7.5 44.5t1 46v504h113v-500q0 -45 -6 -86t-26 -72t-58.5 -49.5t-103.5 -18.5q-54 0 -88.5 16t-54.5 44.5t-27.5 68.5t-7.5 88v11h108z" />
    <glyph glyph-name="K" unicode="K" horiz-adv-x="519" 
d="M169 712v-284v-28.5t-2 -25.5q17 30 32 60.5t35 58.5l154 219h124l-205 -301l227 -411h-129l-172 318l-64 -89v-229h-111v712h111z" />
    <glyph glyph-name="L" unicode="L" horiz-adv-x="444" 
d="M160 712v-616h275v-96h-388l-1 712h114z" />
    <glyph glyph-name="M" unicode="M" horiz-adv-x="722" 
d="M234 712l74 -293q18 -72 33 -144.5t21 -144.5h3q1 25 5.5 58t10.5 67t13 66.5t13 56.5l81 334h174v-712h-107v434q0 47 2 96t6 96h-6q-9 -54 -21.5 -106t-25.5 -105l-102 -415h-95l-100 400q-14 57 -26.5 112t-24.5 114h-6q3 -53 6.5 -105.5t3.5 -105.5v-415h-106v712
h174z" />
    <glyph glyph-name="N" unicode="N" horiz-adv-x="574" 
d="M198 712l137 -350q25 -64 44.5 -126t33.5 -122h4q-3 24 -5 51t-3 53t-1.5 49.5t-0.5 40.5l-1 404h107v-712h-138l-146 382q-11 30 -22 60.5t-20 59.5t-16 54t-10 43h-5q7 -51 9 -102t2 -102l1 -395h-107v712h137z" />
    <glyph glyph-name="O" unicode="O" horiz-adv-x="556" 
d="M43 357q0 43 2.5 87t10.5 85t23.5 76.5t42 62t65 42t93.5 15.5q81 0 127.5 -32t70 -83t29.5 -115t6 -127q0 -45 -2 -90.5t-10 -88t-23 -80t-42 -65t-66.5 -43.5t-95.5 -16q-81 0 -127.5 35t-69.5 89.5t-28.5 120t-5.5 127.5zM158 355q0 -66 4.5 -119t17.5 -90t36 -57
t60 -20q33 0 56.5 15t37.5 48t20.5 87t6.5 132q0 82 -6 137t-20 89t-36.5 48.5t-56.5 14.5q-42 0 -66 -22.5t-36 -61.5t-15 -91t-3 -110z" />
    <glyph glyph-name="P" unicode="P" horiz-adv-x="500" 
d="M265 712q41 0 79 -10t66.5 -34t45.5 -64t17 -100q0 -52 -15.5 -94.5t-45.5 -68.5q-20 -18 -42 -27.5t-45.5 -14t-48.5 -5t-50 -0.5h-60v-294h-113v712h212zM165 380h73q27 0 49 5.5t37.5 20t24.5 38.5t9 61t-9.5 61t-27.5 37t-43.5 18t-57.5 5h-55v-246z" />
    <glyph glyph-name="Q" unicode="Q" horiz-adv-x="556" 
d="M385 19q-25 -18 -52 -25t-65 -8q-52 -1 -88.5 15t-62 43.5t-40.5 63.5t-22.5 77t-10 83t-2.5 82q0 43 2.5 87.5t10.5 86t23 78t41.5 63.5t65.5 43t94 16q80 0 126.5 -32t70 -82.5t29.5 -114t6 -126.5q0 -117 -13.5 -187.5t-42.5 -107.5l79 -75l-65 -63zM330 197l44 -45
q7 19 11.5 46t6.5 55.5t2.5 56t0.5 47.5q0 66 -4 118.5t-16.5 88.5t-35.5 55.5t-61 19.5q-39 0 -62.5 -19t-36.5 -55t-17.5 -89t-4.5 -121q0 -53 2.5 -104.5t14.5 -92t35.5 -65.5t65.5 -25q14 0 24 2.5t22 10.5l-55 51z" />
    <glyph glyph-name="R" unicode="R" horiz-adv-x="537" 
d="M291 712q37 0 72 -8.5t62.5 -29.5t44 -57.5t16.5 -92.5q0 -69 -29 -113t-86 -58q30 -5 53 -17.5t37 -41.5q5 -11 8 -21.5t5.5 -24t4 -31.5t2.5 -44q1 -16 1.5 -30.5t1.5 -29.5q0 -13 1 -30t4 -32.5t10 -28.5t20 -19v-3h-130q-9 14 -13 37.5t-6 65.5l-3 59
q-2 42 -5.5 70.5t-15.5 46t-36 25t-69 7.5h-73v-311h-112v712h235zM168 393h77q61 0 94.5 26t33.5 95q0 33 -9.5 54.5t-26 34.5t-40 18t-51.5 5h-78v-233z" />
    <glyph glyph-name="S" unicode="S" horiz-adv-x="519" 
d="M145 221v-11q0 -28 4.5 -53.5t16.5 -44.5t33 -30.5t54 -11.5q54 0 83.5 29t29.5 83q0 46 -22 72.5t-76 46.5l-74 27q-80 29 -115 75.5t-35 121.5q0 96 55.5 147.5t159.5 51.5q101 0 152.5 -49t51.5 -146v-7h-111q0 25 -4 46t-14.5 37t-29.5 25t-49 9q-48 0 -73.5 -26
t-25.5 -74q0 -28 8 -47t22.5 -33t35 -24t44.5 -19l72 -27q39 -15 66 -32.5t44.5 -40.5t25.5 -52.5t8 -67.5q0 -57 -17 -96.5t-47.5 -65t-74 -37t-96.5 -11.5q-112 0 -163 56t-51 165v14h112z" />
    <glyph glyph-name="T" unicode="T" horiz-adv-x="463" 
d="M457 712v-96h-168v-616h-112v616h-171v96h451z" />
    <glyph glyph-name="U" unicode="U" horiz-adv-x="537" 
d="M165 712v-481q0 -28 1.5 -56.5t11.5 -52t31 -38.5t59 -15q37 0 58 14t31.5 37t13 51.5t2.5 57.5v483h113v-472q0 -60 -10.5 -107t-36.5 -80t-69.5 -50.5t-109.5 -17.5q-57 0 -97 16.5t-65 47.5t-36 74t-11 96v493h114z" />
    <glyph glyph-name="V" unicode="V" 
d="M118 712l99 -450q3 -15 6.5 -36t7 -45t6 -48.5t4.5 -46.5h3q3 44 9.5 93.5t13.5 81.5l100 451h118l-172 -712h-145l-171 712h121z" />
    <glyph glyph-name="W" unicode="W" horiz-adv-x="741" 
d="M121 712l71 -408q5 -29 8.5 -52.5t6.5 -46t5 -45.5t3 -51h3q3 56 10 111t17 110l66 382h121l68 -392q9 -53 16.5 -105t9.5 -106h4q2 56 10.5 111.5t17.5 110.5l64 381h111l-138 -712h-132l-66 372q-8 48 -15 105.5t-10 113.5h-4q-2 -50 -8.5 -101t-14.5 -100l-67 -390
h-132l-138 712h113z" />
    <glyph glyph-name="X" unicode="X" horiz-adv-x="500" 
d="M140 712l78 -170q3 -6 7 -17t9 -24t10 -27t8 -26h2q7 25 17 55.5t18 46.5l77 162h122l-173 -350l185 -362h-127l-98 203q-8 18 -14.5 37.5t-11.5 40.5h-1q-2 -9 -5.5 -20.5t-7.5 -23.5t-8.5 -23t-7.5 -17l-96 -197h-123l185 363l-171 349h126z" />
    <glyph glyph-name="Y" unicode="Y" 
d="M123 712l89 -225q3 -8 7 -20.5t8 -27t8 -29.5t6 -27h2q6 27 14.5 57.5t16.5 48.5l89 223h121l-188 -432v-280h-112v280l-187 432h126z" />
    <glyph glyph-name="Z" unicode="Z" horiz-adv-x="463" 
d="M440 712v-93l-298 -527q9 2 14.5 2.5t19.5 0.5h268v-95h-426v88l268 479q16 28 32 52q-13 -2 -25.5 -2h-25.5h-230v95h403z" />
    <glyph glyph-name="bracketleft" unicode="[" horiz-adv-x="278" 
d="M280 712v-80h-101l-1 -720h102v-82h-201v882h201z" />
    <glyph glyph-name="backslash" unicode="\" horiz-adv-x="296" 
d="M216 -9l-225 728h88l226 -728h-89z" />
    <glyph glyph-name="bracketright" unicode="]" horiz-adv-x="278" 
d="M-3 -169v81h102v720h-102v80h202v-881h-202z" />
    <glyph glyph-name="asciicircum" unicode="^" horiz-adv-x="600" 
d="M261 712h77l172 -421h-87l-126 318l-122 -318h-86z" />
    <glyph glyph-name="underscore" unicode="_" horiz-adv-x="500" 
d="M0 -75h500v-50h-500v50z" />
    <glyph glyph-name="grave" unicode="`" horiz-adv-x="222" 
d="M106 732l62 -143h-76l-104 143h118z" />
    <glyph glyph-name="a" unicode="a" horiz-adv-x="463" 
d="M46 377q0 91 45 132.5t138 41.5q86 0 134 -39q23 -19 32 -45.5t9 -76.5v-260v-19t3 -19t9.5 -14.5t18.5 -5.5q5 0 8 0.5t8 2.5v-71q-17 -5 -27.5 -6.5t-29.5 -1.5q-43 0 -64 18t-24 58q-25 -44 -57 -63t-81 -19q-67 0 -102.5 39t-35.5 114q0 38 11.5 72t43.5 58
q21 16 47.5 24.5t53.5 15t52.5 13.5t43.5 19q19 12 19 53q0 78 -75 78q-24 0 -40 -7t-25 -20t-12.5 -31t-3.5 -39v-4h-99v2zM303 287q-9 -9 -21.5 -16t-33.5 -14l-35 -11q-40 -13 -57 -33t-17 -63q0 -80 68 -80q22 0 42.5 10.5t33.5 28.5q11 15 14.5 32t3.5 51v52
q0 11 1 21.5t1 21.5z" />
    <glyph glyph-name="b" unicode="b" 
d="M160 522v-29t-1 -21q40 76 125 76q55 0 87.5 -27t48.5 -67.5t20.5 -89t4.5 -90.5q0 -287 -171 -287q-87 0 -120 81q1 -11 1 -19.5v-19.5v-29h-102v712h107v-190zM157 266q0 -41 3 -76.5t12.5 -61.5t26.5 -41t46 -15q31 0 49 17.5t27 46t11 65t2 74.5q0 37 -2 71t-11 60
t-26 41.5t-47 15.5t-48 -15t-27.5 -41.5t-12.5 -62.5t-3 -78z" />
    <glyph glyph-name="c" unicode="c" horiz-adv-x="444" 
d="M416 196q0 -98 -44.5 -153.5t-146.5 -55.5q-63 0 -100.5 24t-57.5 63t-26.5 89.5t-6.5 103.5q0 55 7 106.5t29 91t61 63t104 23.5q179 0 181 -191h-105q-2 60 -20.5 86t-57.5 26q-49 0 -70 -46.5t-21 -154.5q0 -54 3 -85.5t11 -58.5q19 -62 77 -62q80 0 81 131h102z" />
    <glyph glyph-name="d" unicode="d" 
d="M429 0h-101v27v14.5v10t0.5 9t1.5 11.5q-21 -45 -51 -65t-78 -20q-85 0 -124.5 68t-39.5 213q0 43 5 92.5t22 91.5t50 69.5t90 27.5q42 0 72.5 -18.5t46.5 -53.5q0 9 -1 18t-1 18v199h108v-712zM147 269q0 -33 1 -68t9.5 -64t26 -47.5t50.5 -18.5t51.5 19.5t27.5 48.5
t10.5 63t1.5 64q0 35 -1.5 70.5t-10 63.5t-27 45.5t-51.5 17.5t-51 -18.5t-26 -47t-9.5 -62.5t-1.5 -66z" />
    <glyph glyph-name="e" unicode="e" horiz-adv-x="463" 
d="M149 247q0 -100 20 -142.5t68 -42.5q78 0 84 116h101q-4 -91 -51 -141.5t-138 -50.5q-102 0 -148.5 67.5t-46.5 213.5q0 147 48.5 214.5t152.5 67.5q63 0 100 -23t56.5 -61t25.5 -87t6 -101v-23h-278v-7zM319 326q0 21 -1.5 46.5t-9.5 48t-24 37.5t-46 15t-47.5 -14.5
t-26.5 -36.5t-11.5 -48t-2.5 -48h169z" />
    <glyph glyph-name="f" unicode="f" horiz-adv-x="278" 
d="M83 536v50q0 34 6.5 59.5t23 42t45.5 24.5t73 8q11 0 23 -0.5t23 -1.5v-81h-30q-22 0 -33.5 -5t-16.5 -14.5t-5.5 -22t-0.5 -27.5v-32h86v-80h-86v-456h-108v456h-75v80h75z" />
    <glyph glyph-name="g" unicode="g" 
d="M157 -46q8 -61 76 -61q27 0 45 8.5t28.5 23.5t15 35t4.5 43v39q0 16 0.5 23t2.5 18q-23 -38 -50.5 -58t-75.5 -20q-163 0 -163 267q0 44 5 93t22.5 90t51.5 67.5t91 26.5q43 0 72 -19.5t49 -61.5q-1 14 -1.5 23t-0.5 28v17h102v-480q0 -50 -6.5 -93.5t-28 -75.5
t-61.5 -50.5t-106 -18.5q-164 0 -174 136h102zM151 273q0 -31 2 -63.5t10 -59.5t25.5 -44t47.5 -17q33 0 51.5 18.5t27.5 46.5t11 62t2 64q0 97 -21 140.5t-68 43.5q-48 0 -68 -44t-20 -147z" />
    <glyph glyph-name="h" unicode="h" 
d="M161 523q0 -22 -1 -29.5t-3 -20.5q21 38 56 57.5t80 19.5q39 0 65 -12.5t41.5 -33.5t22.5 -48.5t7 -57.5v-398h-108v342q0 20 -0.5 41.5t-7 39t-21 29t-42.5 11.5q-10 0 -25 -4t-29.5 -15t-24.5 -30.5t-10 -51.5v-362h-108v712h108v-189z" />
    <glyph glyph-name="i" unicode="i" horiz-adv-x="222" 
d="M166 536v-536h-109v536h109zM166 715v-107h-109v107h109z" />
    <glyph glyph-name="j" unicode="j" horiz-adv-x="222" 
d="M169 536v-567q0 -41 -7.5 -69.5t-24.5 -46.5t-45.5 -26t-71.5 -8h-18t-21 1v83q5 0 9.5 -0.5t9.5 -0.5q20 0 32 5t18.5 14.5t8.5 23t2 31.5v560h108zM169 715v-107h-108v107h108z" />
    <glyph glyph-name="k" unicode="k" horiz-adv-x="463" 
d="M161 712v-384q0 -10 -0.5 -15t-1.5 -13q8 14 17 29t16 25l136 182h122l-158 -206l184 -330h-123l-133 245l-60 -75v-170h-105v712h106z" />
    <glyph glyph-name="l" unicode="l" horiz-adv-x="222" 
d="M165 712v-712h-108v712h108z" />
    <glyph glyph-name="m" unicode="m" horiz-adv-x="740" 
d="M161 536v-13v-18.5v-12.5t-0.5 -10t-1.5 -11q22 38 56 58.5t78 20.5q48 0 77 -20t45 -64q26 45 58 65t77 20t71.5 -14.5t41 -37t18.5 -50t4 -53.5v-396h-108v370q0 12 -1 28.5t-7 30.5t-19 24t-37 10q-17 0 -33 -7t-28 -19t-19.5 -28t-7.5 -34v-375h-108v393q0 34 -17 52
t-47 18q-35 0 -61 -25.5t-26 -66.5v-371h-107v536h102z" />
    <glyph glyph-name="n" unicode="n" 
d="M155 508v-19t-2 -19q22 38 58.5 59t81.5 21q40 0 66 -13.5t41.5 -34.5t22 -46.5t6.5 -49.5v-406h-108v339q0 20 -0.5 42t-6.5 40t-20.5 29.5t-42.5 11.5q-21 0 -37.5 -8t-28.5 -20.5t-18 -29t-6 -33.5v-371h-108v536h102v-28z" />
    <glyph glyph-name="o" unicode="o" horiz-adv-x="463" 
d="M32 267q0 58 8 109t30 89.5t62 61t103 22.5q64 0 102.5 -23.5t59.5 -62.5t27.5 -89.5t6.5 -104.5q0 -65 -9 -117t-32.5 -89t-63.5 -56.5t-102 -19.5q-101 0 -146.5 66t-45.5 214zM141 264q0 -42 3 -78.5t12.5 -63.5t27 -42.5t47.5 -15.5q50 0 70.5 47.5t20.5 159.5
q0 56 -4.5 94t-15 61.5t-28 33.5t-42.5 10t-42 -11t-28 -35.5t-16 -64t-5 -95.5z" />
    <glyph glyph-name="p" unicode="p" 
d="M155 511v-16v-10.5t-0.5 -9t-1.5 -10.5q33 83 126 83q57 0 90 -26t49.5 -66t21 -87.5t4.5 -90.5q0 -44 -5 -95t-22 -94.5t-51 -72.5t-92 -29q-79 0 -115 72q1 -17 1.5 -33t0.5 -33v-171h-109v714h103v-25zM156 275q0 -30 1.5 -65t10 -66t26.5 -51.5t51 -20.5
q30 0 47.5 17.5t27 46t12 64t2.5 71.5q0 45 -3 80.5t-12.5 60t-26.5 38t-44 13.5q-35 0 -53.5 -20.5t-27 -50t-10 -61.5t-1.5 -56z" />
    <glyph glyph-name="q" unicode="q" 
d="M429 -178h-105v191v26.5t2 20.5q-37 -73 -123 -73q-39 0 -67 12.5t-48 40.5q-27 35 -39 88t-12 137q0 50 5.5 100.5t23.5 91t51 66t87 25.5q45 0 74.5 -19.5t49.5 -63.5q-2 13 -2.5 23.5t-0.5 22.5v25h104v-714zM147 269q0 -38 2 -73.5t10.5 -63.5t26 -44.5t48.5 -16.5
q33 0 51 17.5t27 46t11 65t2 73.5q0 33 -2 67t-11 61.5t-27 44.5t-50 17t-49.5 -18.5t-26 -47t-10.5 -63t-2 -65.5z" />
    <glyph glyph-name="r" unicode="r" horiz-adv-x="315" 
d="M159 536v-35v-17.5v-12t-0.5 -10t-1.5 -11.5q20 47 53.5 71.5t77.5 24.5h12t14 -1v-105q-11 2 -17 2h-16q-57 0 -88.5 -30t-31.5 -79v-333h-106v536h104z" />
    <glyph glyph-name="s" unicode="s" horiz-adv-x="426" 
d="M125 173v-7q0 -23 3.5 -42.5t13 -33t26 -21t42.5 -7.5q39 0 61 20t22 56q0 30 -15.5 49.5t-50.5 31.5l-65 23q-36 13 -60.5 27.5t-39.5 32.5t-21.5 41.5t-6.5 53.5q0 72 46 111.5t133 39.5t128.5 -37.5t41.5 -124.5v-7h-99v6q0 39 -14 63.5t-59 24.5q-36 0 -56 -17.5
t-20 -49.5q0 -24 11 -39t28 -24.5t37 -15.5t38 -12q32 -11 59.5 -22.5t47 -29.5t30.5 -44t11 -66q0 -80 -49.5 -123.5t-142.5 -43.5q-95 0 -137 42t-42 136v9h99z" />
    <glyph glyph-name="t" unicode="t" horiz-adv-x="278" 
d="M78 536v151h108v-151h87v-80h-87v-312q0 -17 1 -29t6.5 -20.5t16.5 -12.5t32 -4q8 0 14 0.5t17 2.5v-80q-20 -4 -33.5 -5t-40.5 -1q-40 0 -64 8.5t-36.5 25.5t-16.5 42.5t-4 59.5v325h-75v80h75z" />
    <glyph glyph-name="u" unicode="u" 
d="M161 536v-359q0 -18 1.5 -36.5t8 -33.5t20.5 -24t38 -9q12 0 28 4.5t30 14.5t23.5 27t9.5 41v375h108v-536h-102v17q0 12 1 24t1 24q-27 -41 -60 -59.5t-78 -18.5q-138 0 -138 168v381h109z" />
    <glyph glyph-name="v" unicode="v" horiz-adv-x="426" 
d="M125 536l74 -334q6 -26 10.5 -51.5t6.5 -52.5h4q2 22 5 45t9 53l70 340h112l-137 -536h-127l-143 536h116z" />
    <glyph glyph-name="w" unicode="w" horiz-adv-x="685" 
d="M127 536l52 -287q8 -43 14.5 -83.5t8.5 -72.5h3q4 43 10.5 79.5t14.5 81.5l54 282h122l62 -320q4 -23 7 -39.5t5 -30t3 -26t2 -27.5h3q3 33 8 64t10 65q0 4 3 19.5t7 38t9 50t10 56.5q11 67 26 150h108l-120 -536h-122l-55 252q-5 23 -9.5 49t-8 51.5t-6 49t-3.5 41.5h-3
q-2 -22 -5 -47t-6.5 -49t-7.5 -45.5t-7 -36.5l-53 -265h-126l-121 536h111z" />
    <glyph glyph-name="x" unicode="x" horiz-adv-x="426" 
d="M127 536l68 -141q5 -11 10 -23t9 -24q2 12 8.5 25.5t11.5 24.5l66 138h114l-138 -258l145 -278h-115l-69 144q-7 14 -13.5 29.5t-11.5 30.5q-6 -17 -12 -31t-14 -31l-67 -142h-115l146 278l-140 258h117z" />
    <glyph glyph-name="y" unicode="y" horiz-adv-x="426" 
d="M125 536l75 -315q7 -29 12 -58t7 -59h2q2 30 6.5 60t10.5 59l66 313h113l-139 -526q-3 -9 -7.5 -24t-9.5 -30.5t-10 -30t-8 -22.5q-18 -45 -51 -64t-91 -19h-25t-33 2v83q11 -2 20 -2h20q53 0 68 45l14 40l-156 548h116z" />
    <glyph glyph-name="z" unicode="z" horiz-adv-x="407" 
d="M377 536v-85l-188 -299q-14 -21 -23 -35t-22 -31q17 2 42 2.5t47 0.5h144v-89h-355v84l180 287q13 20 26.5 40.5t27.5 40.5q-9 -1 -24.5 -1.5t-32 -1t-30 -0.5h-17.5h-118v87h343z" />
    <glyph glyph-name="braceleft" unicode="{" horiz-adv-x="278" 
d="M278 -180q-59 3 -93 19.5t-51 45t-21.5 67.5t-4.5 87v59q0 36 -3 62.5t-14 44t-32 27.5t-58 13v51q34 3 55.5 12.5t32.5 26t15 41.5t4 59v66q0 48 4 87t21 67.5t51 45.5t94 20v-50q-32 -3 -50 -14t-27 -29t-11.5 -41.5t-2.5 -49.5v-75q0 -39 -2 -72.5t-12.5 -58
t-33 -40.5t-64.5 -21q41 -4 64 -19.5t33.5 -40.5t12.5 -58t2 -73v-76q0 -25 2 -48t11 -41t27 -30t51 -14v-50v0z" />
    <glyph glyph-name="bar" unicode="|" horiz-adv-x="222" 
d="M70 786h83v-1000h-83v1000z" />
    <glyph glyph-name="braceright" unicode="}" horiz-adv-x="278" 
d="M277 245q-37 -3 -58 -13t-32 -27.5t-14 -44t-3 -62.5v-59q0 -48 -4.5 -87t-21.5 -67.5t-51 -45t-93 -19.5v50q32 2 50.5 14t27.5 30t11 41t2 48v76q0 40 2 73t12.5 58t33 40.5t63.5 19.5q-41 5 -63.5 21t-33 40.5t-12.5 58t-2 72.5v75q0 26 -2.5 49.5t-11.5 41.5t-27 29
t-50 14v50q59 -3 93 -20t51 -45.5t21.5 -67.5t4.5 -87v-66q0 -34 4 -59t15 -41.5t32 -26t56 -12.5v-51v0z" />
    <glyph glyph-name="asciitilde" unicode="~" horiz-adv-x="600" 
d="M564 383q-3 -29 -12 -56t-25 -48t-39.5 -33.5t-56.5 -12.5q-31 0 -68.5 11.5t-67.5 21.5q-14 4 -30.5 10.5t-34.5 12.5t-35.5 10.5t-31.5 4.5q-32 0 -50 -23t-23 -52h-55q3 28 12 55t24.5 48.5t39 34.5t56.5 13q37 0 73.5 -12.5t70.5 -23.5q14 -5 30 -10.5t32.5 -11
t33 -9t31.5 -3.5q33 0 50 22t23 51h53v0z" />
    <glyph glyph-name="uni00A0" unicode="&#xa0;" horiz-adv-x="240" 
 />
    <glyph glyph-name="sterling" unicode="&#xa3;" horiz-adv-x="480" 
d="M88 383q-12 24 -21 42.5t-15 35.5t-8.5 34t-2.5 37q0 40 14.5 73t41.5 56.5t65.5 36t85.5 12.5q97 0 151.5 -50t54.5 -150v-4h-104q0 125 -100 125q-45 0 -71.5 -25t-26.5 -69q0 -32 14 -66.5t41 -87.5h166v-68h-141q6 -17 8.5 -29.5t2.5 -26.5q0 -48 -27.5 -89.5
t-91.5 -90.5q29 14 44.5 18.5t33.5 4.5q7 0 13 -0.5t13 -2t15.5 -4.5t21.5 -7q40 -15 60 -15t47.5 11t56.5 31l40 -80q-74 -49 -146 -49q-19 0 -37 4t-51 16q-32 11 -50 15.5t-38 4.5q-22 0 -41 -6.5t-53 -26.5l-40 77q57 35 89 83t32 96q0 35 -17 66h-98v68h69z" />
    <glyph glyph-name="currency" unicode="&#xa4;" horiz-adv-x="480" 
d="M66 233q-40 57 -40 124t40 124l-65 65l49 49l65 -65q29 20 59 30t66 10t65 -10t59 -30l64 65l49 -49l-64 -65q19 -27 29.5 -59t10.5 -66t-10.5 -64t-30.5 -59l66 -65l-50 -49l-65 65q-27 -19 -58.5 -29.5t-64.5 -10.5t-65.5 10t-58.5 30l-66 -65l-49 49zM239 496
q-29 0 -54.5 -11t-44 -29.5t-29.5 -44t-11 -54.5t11 -54.5t29.5 -44t44 -29.5t54.5 -11t54.5 11t44 29.5t29.5 44t11 54.5t-11 54.5t-29.5 44t-44 29.5t-54.5 11z" />
    <glyph glyph-name="brokenbar" unicode="&#xa6;" horiz-adv-x="222" 
d="M70 161h83v-250h-83v250zM70 661h83v-250h-83v250z" />
    <glyph glyph-name="section" unicode="&#xa7;" 
d="M161 23v-3q0 -19 4 -36.5t14 -30.5t25 -21t38 -8q36 0 57.5 20.5t21.5 55.5q0 29 -17 50.5t-58 44.5l-112 63q-57 32 -82.5 67t-25.5 82q0 53 25.5 85t67.5 58q-33 23 -48 50.5t-15 64.5q0 72 49.5 113t138.5 41q83 0 130.5 -40.5t47.5 -110.5v-4h-104q-2 77 -80 77
q-33 0 -53.5 -18t-20.5 -47q0 -20 10.5 -35t31.5 -30t53.5 -31.5t76.5 -40.5q25 -14 47.5 -29.5t38.5 -35t25.5 -44t9.5 -56.5q0 -51 -22.5 -84.5t-58.5 -59.5q29 -26 43 -54.5t14 -69.5q0 -76 -50 -119.5t-138 -43.5q-87 0 -139 42.5t-52 134.5v3h107zM308 171q54 36 54 85
q0 34 -23.5 56t-50.5 38l-104 59q-22 -17 -42 -36t-20 -49q0 -16 6.5 -28t17 -22t23.5 -17.5t25 -14.5q41 -23 69 -40.5t45 -30.5z" />
    <glyph glyph-name="copyright" unicode="&#xa9;" horiz-adv-x="800" 
d="M401 720q76 0 143 -29t116.5 -78.5t78 -116.5t28.5 -143t-29 -142.5t-78.5 -116t-116 -78.5t-142.5 -29t-142.5 29t-116.5 78.5t-79 116t-29 142.5t29 143t78.5 116.5t116.5 78.5t143 29zM401 676q-67 0 -126 -25.5t-103 -69t-69.5 -102.5t-25.5 -126t25.5 -126
t69.5 -102.5t103 -68.5t126 -25t125.5 25.5t102 69t69 102t25.5 125.5t-25.5 125.5t-69 102.5t-102 69.5t-125.5 25.5zM580 283q-4 -32 -19 -58.5t-38 -45.5t-52 -29t-61 -10q-45 0 -82 17.5t-63 46.5t-40.5 68t-14.5 83q0 43 13 82t37.5 68.5t60.5 47t81 17.5
q33 0 63.5 -10.5t54.5 -29.5t39.5 -47t18.5 -62h-63q-8 43 -37 68.5t-74 25.5q-32 0 -55.5 -14t-38.5 -36t-22.5 -50.5t-7.5 -56.5q0 -30 7.5 -59t23.5 -52.5t40.5 -37.5t58.5 -14q42 0 70.5 23.5t36.5 64.5h63v0z" />
    <glyph glyph-name="guillemotleft" unicode="&#xab;" horiz-adv-x="407" 
d="M210 220v118l143 132v-108l-49 -46l-11.5 -11.5t-13.5 -11.5q-8 -7 -16 -13q7 -7 14 -12q6 -5 12.5 -10t11.5 -10l52 -52v-106zM49 220v118l143 132v-108l-49 -46l-11.5 -11.5t-13.5 -11.5q-8 -7 -16 -13q7 -7 14 -12q6 -5 12.5 -10t11.5 -10l52 -52v-106z" />
    <glyph glyph-name="logicalnot" unicode="&#xac;" horiz-adv-x="600" 
d="M42 433h509v-281h-79v203h-430v78z" />
    <glyph glyph-name="uni00AD" unicode="&#xad;" horiz-adv-x="352" 
d="M308 335v-97h-260v97h260z" />
    <glyph glyph-name="registered" unicode="&#xae;" horiz-adv-x="400" 
d="M200 717q38 0 71.5 -14.5t58 -39t39 -58t14.5 -71.5t-14.5 -71.5t-39 -58t-58 -39t-71.5 -14.5t-71.5 14.5t-58 39t-39 58t-14.5 71.5t14.5 71.5t39 58t58 39t71.5 14.5zM200 688q-32 0 -59.5 -12t-48.5 -33t-33 -49t-12 -60t12 -60t32.5 -49t48.5 -33t60 -12t60 12
t48.5 33t32.5 49t12 60q0 31 -12 59t-33 49t-49 33t-59 12v1zM199 632q14 0 29.5 -2t28 -8t20.5 -17.5t8 -29.5q0 -19 -9.5 -29.5t-26.5 -16.5q18 -8 24 -18.5t7 -23t1 -25.5t6 -25h-41q-6 14 -5 27.5t-1.5 24t-12 17t-35.5 6.5h-26v-75h-40v195h73zM198 544q15 0 30.5 4.5
t15.5 24.5q0 10 -5 15.5t-12.5 8.5t-16 3.5t-15.5 0.5h-29v-57h32z" />
    <glyph glyph-name="degree" unicode="&#xb0;" horiz-adv-x="400" 
d="M200 712q32 0 60.5 -12.5t49.5 -33.5t33.5 -49.5t12.5 -60.5q0 -33 -12.5 -61.5t-33.5 -49.5t-49.5 -33.5t-60.5 -12.5t-60.5 12.5t-49.5 33.5t-33.5 49.5t-12.5 61.5q0 32 12.5 60.5t33.5 49.5t49.5 33.5t60.5 12.5zM200 643q-18 0 -34 -7t-27.5 -19t-18.5 -27.5
t-7 -33.5q0 -36 25.5 -61.5t61.5 -25.5t61.5 25.5t25.5 61.5q0 18 -7 33.5t-18.5 27.5t-27.5 19t-34 7z" />
    <glyph glyph-name="plusminus" unicode="&#xb1;" horiz-adv-x="600" 
d="M254 283h-212v77h212v169h84v-169h213v-77h-213v-166h-84v166zM42 78h509v-78h-509v78z" />
    <glyph glyph-name="mu" unicode="&#xb5;" 
d="M327 0v28v18t1 12q-20 -32 -42.5 -49t-56.5 -17q-29 0 -49 14t-28 28q1 -6 2.5 -22.5t1.5 -27.5v-162h-104v714h108v-355q0 -18 2 -36.5t9 -33t21 -24t38 -9.5q44 0 67.5 28t23.5 69v361h108v-536h-102z" />
    <glyph glyph-name="paragraph" unicode="&#xb6;" horiz-adv-x="600" 
d="M509 647v-826h-78v826h-117v-826h-78v433q-98 7 -150.5 67t-52.5 154q0 60 20 104.5t54.5 74t82 44t101.5 14.5h272v-65h-54z" />
    <glyph glyph-name="periodcentered" unicode="&#xb7;" horiz-adv-x="240" 
d="M177 369v-129h-113v129h113z" />
    <glyph glyph-name="guillemotright" unicode="&#xbb;" horiz-adv-x="407" 
d="M215 90v106l52 52q5 5 11 10l12 10q7 5 15 12q-8 6 -16 13q-7 5 -13.5 11.5l-11.5 11.5l-49 46v108l143 -132v-118zM54 90v106l52 52q5 5 11 10l12 10q7 5 15 12q-8 6 -16 13q-7 5 -13.5 11.5l-11.5 11.5l-49 46v108l143 -132v-118z" />
    <glyph glyph-name="divide" unicode="&#xf7;" horiz-adv-x="600" 
d="M563 344v-79h-526v79h526zM356 197v-121h-113v121h113zM356 534v-121h-113v121h113z" />
    <glyph glyph-name="florin" unicode="&#x192;" horiz-adv-x="480" 
d="M200 432l19 97q6 30 12 52t12.5 38t15.5 28t21 23q20 20 51.5 29t77.5 9q16 0 26.5 -0.5t30.5 -2.5l-16 -78q-11 1 -17 1.5t-14 0.5q-26 0 -42.5 -7.5t-26.5 -21.5t-16 -34.5t-11 -45.5l-17 -88h109l-13 -68h-109l-69 -358q-9 -45 -20.5 -79.5t-32.5 -58t-54 -35.5
t-83 -12q-17 0 -28.5 1t-31.5 4l16 78q14 -2 20 -2.5t16 -0.5q22 0 37 4.5t25.5 16.5t17.5 33.5t13 55.5l68 353h-105l13 68h105z" />
    <glyph glyph-name="uni0394" unicode="&#x394;" horiz-adv-x="676" 
d="M664 0h-652l278 712h88zM545 78l-212 543l-207 -543h419z" />
    <glyph glyph-name="afii10023" unicode="&#x401;" 
d="M218 879v-107h-97v107h97zM402 879v-107h-97v107h97zM444 712v-95h-269v-200h253v-94h-253v-228h280v-95h-392v712h381z" />
    <glyph glyph-name="afii10051" unicode="&#x402;" horiz-adv-x="661" 
d="M621 175q0 -163 -63.5 -244t-194.5 -81h-14v93q45 2 75 19.5t48 48.5t25.5 72.5t7.5 91.5q0 55 -8 91.5t-23 58.5t-37.5 31t-50.5 9q-30 0 -50.5 -14.5t-33 -38t-18 -53.5t-5.5 -61v-198h-114v617h-160v95h472v-95h-198v-238q19 32 57.5 52.5t88.5 20.5q48 0 84.5 -15.5
t61 -48.5t37.5 -85.5t13 -127.5z" />
    <glyph glyph-name="afii10052" unicode="&#x403;" horiz-adv-x="439" 
d="M174 616v-616h-114v712h372v-96h-258zM355 896l-105 -143h-75l62 143h118z" />
    <glyph glyph-name="afii10053" unicode="&#x404;" horiz-adv-x="519" 
d="M492 239q-2 -55 -13 -101.5t-37 -80.5t-68.5 -53t-106.5 -19q-79 0 -125 32.5t-69.5 84.5t-30 117t-6.5 131q0 67 5.5 134t29 120.5t70 87t129.5 33.5q109 0 160.5 -57t54.5 -163h-112q-3 61 -26 98t-77 37q-36 0 -59 -17.5t-35.5 -48t-17.5 -71.5t-6 -87h196v-94h-196
q0 -45 3.5 -90t16 -81t36 -58.5t64.5 -22.5q51 0 78.5 40t29.5 129h112v0z" />
    <glyph glyph-name="afii10054" unicode="&#x405;" horiz-adv-x="519" 
d="M145 221v-11q0 -28 4.5 -53.5t16.5 -44.5t33 -30.5t54 -11.5q54 0 83.5 29t29.5 83q0 46 -22 72.5t-76 46.5l-74 27q-80 29 -115 75.5t-35 121.5q0 96 55.5 147.5t159.5 51.5q101 0 152.5 -49t51.5 -146v-7h-111q0 25 -4 46t-14.5 37t-29.5 25t-49 9q-48 0 -73.5 -26
t-25.5 -74q0 -28 8 -47t22.5 -33t35 -24t44.5 -19l72 -27q39 -15 66 -32.5t44.5 -40.5t25.5 -52.5t8 -67.5q0 -57 -17 -96.5t-47.5 -65t-74 -37t-96.5 -11.5q-112 0 -163 56t-51 165v14h112z" />
    <glyph glyph-name="afii10055" unicode="&#x406;" horiz-adv-x="222" 
d="M169 712v-712h-115v712h115z" />
    <glyph glyph-name="afii10056" unicode="&#x407;" horiz-adv-x="222" 
d="M169 712v-712h-115v712h115zM68 879v-107h-97v107h97zM252 879v-107h-97v107h97z" />
    <glyph glyph-name="afii10057" unicode="&#x408;" horiz-adv-x="444" 
d="M126 214v-11q0 -21 1 -44.5t8 -43t22 -32t44 -12.5q30 0 45.5 13t22 33.5t7.5 44.5t1 46v504h113v-500q0 -45 -6 -86t-26 -72t-58.5 -49.5t-103.5 -18.5q-54 0 -88.5 16t-54.5 44.5t-27.5 68.5t-7.5 88v11h108z" />
    <glyph glyph-name="afii10058" unicode="&#x409;" horiz-adv-x="838" 
d="M809 224q0 -118 -56.5 -171t-166.5 -53h-204v617h-146l-10 -346q-2 -61 -9 -113t-25 -89.5t-50 -58.5t-83 -21q-15 0 -30 2.5t-29 4.5v95q8 -2 17 -3.5t17 -1.5q22 0 37.5 7.5t25 31.5t14.5 69t7 119l10 399h368v-281h89q106 0 165 -47t59 -160zM694 219q0 37 -9 61
t-26.5 38t-42.5 19.5t-56 5.5h-65v-255h56q36 0 63 5.5t45 20.5t26.5 40.5t8.5 64.5z" />
    <glyph glyph-name="afii10059" unicode="&#x40a;" horiz-adv-x="838" 
d="M809 224q0 -118 -56.5 -171t-165.5 -53h-205v333h-208v-333h-114v712h114v-285h208v285h114v-285h88q52 0 94 -10.5t71 -34.5t44.5 -62.5t15.5 -95.5zM694 216q0 37 -9 61t-26 38t-42 19t-57 5h-64v-251h56q35 0 61.5 5.5t44.5 19.5t27 39t9 64z" />
    <glyph glyph-name="afii10060" unicode="&#x40b;" horiz-adv-x="638" 
d="M476 0v245q0 33 -8.5 54t-23 32.5t-33 16t-39.5 4.5q-20 0 -46 -4t-47 -9v-339h-114v617h-160v95h472v-95h-198v-189q21 6 52.5 11.5t60.5 5.5q97 0 147.5 -47.5t50.5 -146.5v-251h-114z" />
    <glyph glyph-name="afii10061" unicode="&#x40c;" horiz-adv-x="519" 
d="M169 712v-284v-28.5t-2 -25.5q17 30 32 60.5t35 58.5l154 219h124l-205 -301l227 -411h-129l-172 318l-64 -89v-229h-111v712h111zM392 896l-105 -143h-75l62 143h118z" />
    <glyph glyph-name="afii10062" unicode="&#x40e;" horiz-adv-x="495" 
d="M396 896q-2 -67 -38 -103.5t-101 -36.5t-101 36.5t-39 103.5h61q12 -68 79 -68t78 68h61v0zM311 166q-15 -43 -30 -75t-36 -53t-50 -31.5t-72 -10.5q-16 0 -26 1t-29 3v88q10 -2 21 -3t22 -1q32 0 50 14.5t29 45.5l16 46l-206 522h126l83 -228q17 -49 30.5 -91t18.5 -77
h3q5 37 19 79.5t34 102.5l68 214h120z" />
    <glyph glyph-name="afii10145" unicode="&#x40f;" horiz-adv-x="556" 
d="M331 0v-171h-106v171h-165v712h114v-617h208v617h114v-712h-165z" />
    <glyph glyph-name="afii10017" unicode="&#x410;" horiz-adv-x="519" 
d="M336 712l191 -712h-120l-44 175h-207l-46 -175h-118l197 712h147zM261 634q-4 -32 -11.5 -64t-15.5 -64l-60 -239h170l-57 238q-8 32 -14 64t-11 65h-1v0z" />
    <glyph glyph-name="afii10018" unicode="&#x411;" horiz-adv-x="537" 
d="M500 222q0 -118 -56.5 -170t-165.5 -52h-219v712h393v-94h-280v-192h105q52 0 93.5 -10.5t70.5 -34.5t44 -63t15 -96zM172 338v-249h71q35 0 61.5 5t44.5 18.5t27 38t9 63.5q0 37 -9 61.5t-26 38t-42 19t-57 5.5h-79z" />
    <glyph glyph-name="afii10019" unicode="&#x412;" horiz-adv-x="537" 
d="M268 712q36 0 73 -7t67 -26.5t49 -54.5t19 -91q0 -60 -27.5 -100.5t-78.5 -55.5q63 -14 96.5 -57.5t33.5 -115.5q0 -106 -61.5 -155t-170.5 -49h-210v712h210zM170 412h44q30 0 57 2t47.5 12.5t32.5 32t12 61.5q0 33 -9 53.5t-24.5 32t-36.5 15.5t-45 4h-78v-213zM170 86
h78q32 0 57.5 6t43 20.5t26.5 38t9 59.5q0 64 -41 97q-17 15 -42.5 20t-63.5 5h-67v-246z" />
    <glyph glyph-name="afii10020" unicode="&#x413;" horiz-adv-x="439" 
d="M174 616v-616h-114v712h372v-96h-258z" />
    <glyph glyph-name="afii10021" unicode="&#x414;" horiz-adv-x="582" 
d="M467 -171v171h-361v-171h-106v266h54q54 99 74.5 210.5t20.5 249.5v157h355v-617h70v-266h-107zM391 617h-133v-112q0 -137 -21.5 -238t-59.5 -172h214v522z" />
    <glyph glyph-name="afii10022" unicode="&#x415;" 
d="M444 712v-95h-269v-200h253v-94h-253v-228h280v-95h-392v712h381z" />
    <glyph glyph-name="afii10024" unicode="&#x416;" horiz-adv-x="781" 
d="M662 0l-152 329l-64 -102v-227h-111v227l-64 102l-152 -329h-129l210 424l-186 288h126l136 -224q7 -12 15.5 -27t17 -30.5t16 -30.5t13.5 -26q-1 9 -1.5 22t-1 27.5t-0.5 28.5v25v235h111v-235v-25t-0.5 -28.5t-1 -27.5t-1.5 -22q6 11 13.5 26t16 30.5t17 30.5t15.5 27
l136 224h126l-186 -288l210 -424h-129z" />
    <glyph glyph-name="afii10025" unicode="&#x417;" horiz-adv-x="519" 
d="M480 205q0 -106 -59 -161.5t-171 -55.5t-163.5 55.5t-51.5 164.5v14h112v-11q0 -28 4.5 -53.5t16.5 -44.5t33 -30t54 -11q52 0 80.5 31.5t28.5 94.5q0 71 -31 101t-97 30q-7 0 -22 -0.5t-20 -1.5v89q2 -1 12 -1.5t16 -0.5q63 0 94 26t31 95q0 104 -92 104q-30 0 -49 -9
t-30 -25t-15 -37.5t-4 -46.5h-111v7q0 97 51.5 146t156.5 49q103 0 154.5 -48.5t51.5 -135.5q0 -29 -7.5 -56t-22 -49t-35 -37t-46.5 -21q63 -11 97 -54.5t34 -116.5z" />
    <glyph glyph-name="afii10026" unicode="&#x418;" horiz-adv-x="569" 
d="M395 0v363v37t1 50t2 50t3 36h-3q-3 -11 -10.5 -33t-18 -48t-21.5 -54.5t-21 -52.5l-138 -348h-129v712h114v-364v-36t-1 -48t-2 -48t-2 -35h3q3 11 9.5 31.5t15.5 46.5t20.5 55.5t23.5 58.5l139 339h129v-712h-114z" />
    <glyph glyph-name="afii10027" unicode="&#x419;" horiz-adv-x="569" 
d="M424 896q-2 -67 -38 -103.5t-101 -36.5q-66 0 -102 36.5t-38 103.5h61q11 -68 79 -68q67 0 78 68h61v0zM395 0v363v37t1 50t2 50t3 36h-3q-3 -11 -10.5 -33t-18 -48t-21.5 -54.5t-21 -52.5l-138 -348h-129v712h114v-364v-36t-1 -48t-2 -48t-2 -35h3q3 11 9.5 31.5
t15.5 46.5t20.5 55.5t23.5 58.5l139 339h129v-712h-114z" />
    <glyph glyph-name="afii10028" unicode="&#x41a;" horiz-adv-x="519" 
d="M169 712v-284v-28.5t-2 -25.5q17 30 32 60.5t35 58.5l154 219h124l-205 -301l227 -411h-129l-172 318l-64 -89v-229h-111v712h111z" />
    <glyph glyph-name="afii10029" unicode="&#x41b;" horiz-adv-x="556" 
d="M381 0v617h-146l-10 -343q-2 -61 -9 -113t-25 -89.5t-50 -58.5t-83 -21q-15 0 -30 2.5t-29 4.5v95q8 -2 17 -3.5t17 -1.5q22 0 37.5 7.5t25 31.5t14.5 69t7 119l10 396h368v-712h-114z" />
    <glyph glyph-name="afii10030" unicode="&#x41c;" horiz-adv-x="722" 
d="M234 712l74 -293q18 -72 33 -144.5t21 -144.5h3q1 25 5.5 58t10.5 67t13 66.5t13 56.5l81 334h174v-712h-107v434q0 47 2 96t6 96h-6q-9 -54 -21.5 -106t-25.5 -105l-102 -415h-95l-100 400q-14 57 -26.5 112t-24.5 114h-6q3 -53 6.5 -105.5t3.5 -105.5v-415h-106v712
h174z" />
    <glyph glyph-name="afii10031" unicode="&#x41d;" horiz-adv-x="556" 
d="M382 427v285h114v-712h-114v330h-208v-330h-114v712h114v-285h208z" />
    <glyph glyph-name="afii10032" unicode="&#x41e;" horiz-adv-x="556" 
d="M43 357q0 43 2.5 87t10.5 85t23.5 76.5t42 62t65 42t93.5 15.5q81 0 127.5 -32t70 -83t29.5 -115t6 -127q0 -45 -2 -90.5t-10 -88t-23 -80t-42 -65t-66.5 -43.5t-95.5 -16q-81 0 -127.5 35t-69.5 89.5t-28.5 120t-5.5 127.5zM158 355q0 -66 4.5 -119t17.5 -90t36 -57
t60 -20q33 0 56.5 15t37.5 48t20.5 87t6.5 132q0 82 -6 137t-20 89t-36.5 48.5t-56.5 14.5q-42 0 -66 -22.5t-36 -61.5t-15 -91t-3 -110z" />
    <glyph glyph-name="afii10033" unicode="&#x41f;" horiz-adv-x="556" 
d="M496 0h-114v617h-208v-617h-114v712h436v-712z" />
    <glyph glyph-name="afii10034" unicode="&#x420;" horiz-adv-x="500" 
d="M265 712q41 0 79 -10t66.5 -34t45.5 -64t17 -100q0 -52 -15.5 -94.5t-45.5 -68.5q-20 -18 -42 -27.5t-45.5 -14t-48.5 -5t-50 -0.5h-60v-294h-113v712h212zM165 380h73q27 0 49 5.5t37.5 20t24.5 38.5t9 61t-9.5 61t-27.5 37t-43.5 18t-57.5 5h-55v-246z" />
    <glyph glyph-name="afii10035" unicode="&#x421;" horiz-adv-x="519" 
d="M491 255v-10q0 -57 -12.5 -105t-39.5 -82.5t-69.5 -53.5t-103.5 -19q-55 0 -93 15.5t-63.5 42.5t-40 62.5t-21.5 76t-9 83.5t-2 84q0 65 6 132t29 121t70 88.5t129 34.5q58 0 98.5 -16t66.5 -46.5t38 -74t12 -98.5h-112v1q0 148 -103 148q-41 0 -64.5 -22.5t-35.5 -62
t-15 -92.5t-3 -114q0 -67 4.5 -118.5t17.5 -87t36 -54t59 -18.5q55 0 81.5 45t27.5 140h112z" />
    <glyph glyph-name="afii10036" unicode="&#x422;" horiz-adv-x="463" 
d="M457 712v-96h-168v-616h-112v616h-171v96h451z" />
    <glyph glyph-name="afii10037" unicode="&#x423;" horiz-adv-x="495" 
d="M311 166q-15 -43 -30 -75t-36 -53t-50 -31.5t-72 -10.5q-16 0 -26 1t-29 3v88q10 -2 21 -3t22 -1q32 0 50 14.5t29 45.5l16 46l-206 522h126l83 -228q17 -49 30.5 -91t18.5 -77h3q5 37 19 79.5t34 102.5l68 214h120z" />
    <glyph glyph-name="afii10038" unicode="&#x424;" horiz-adv-x="742" 
d="M704 356q0 -49 -15 -98.5t-46.5 -89.5t-81.5 -65t-120 -25h-13v-87h-114v87h-13q-70 0 -120 25t-81.5 65t-46.5 89.5t-15 98.5t14 99.5t45.5 91t82 66t122.5 25.5h12v82h114v-82h12q72 0 122 -25.5t81.5 -66t46 -91t14.5 -99.5zM588 358q0 48 -11.5 83.5t-32.5 59t-50 35
t-63 11.5h-6v-379h10q30 0 57.5 12t49 36t34 59.5t12.5 82.5zM317 547h-6q-34 0 -63 -11.5t-50 -35t-32.5 -59t-11.5 -83.5q0 -47 12.5 -82.5t34 -59.5t49 -36t57.5 -12h10v379z" />
    <glyph glyph-name="afii10039" unicode="&#x425;" horiz-adv-x="500" 
d="M140 712l78 -170q3 -6 7 -17t9 -24t10 -27t8 -26h2q7 25 17 55.5t18 46.5l77 162h122l-173 -350l185 -362h-127l-98 203q-8 18 -14.5 37.5t-11.5 40.5h-1q-2 -9 -5.5 -20.5t-7.5 -23.5t-8.5 -23t-7.5 -17l-96 -197h-123l185 363l-171 349h126z" />
    <glyph glyph-name="afii10040" unicode="&#x426;" horiz-adv-x="572" 
d="M60 712h114v-617h208v617h114v-617h70v-265h-105v170h-401v712z" />
    <glyph glyph-name="afii10041" unicode="&#x427;" horiz-adv-x="532" 
d="M356 0v298q-25 -6 -55.5 -11t-58.5 -5q-97 0 -148 47t-51 146v237h114v-231q0 -33 8.5 -53.5t23 -32.5t33 -16t39.5 -4q20 0 47 3.5t48 8.5v325h114v-712h-114z" />
    <glyph glyph-name="afii10042" unicode="&#x428;" horiz-adv-x="826" 
d="M60 0v712h114v-617h182v617h114v-617h182v617h114v-712h-706z" />
    <glyph glyph-name="afii10043" unicode="&#x429;" horiz-adv-x="842" 
d="M60 712h114v-617h182v617h114v-617h182v617h114v-617h70v-265h-105v170h-671v712z" />
    <glyph glyph-name="afii10044" unicode="&#x42a;" horiz-adv-x="620" 
d="M591 224q0 -118 -56.5 -171t-165.5 -53h-206v617h-157v95h271v-280h91q52 0 93.5 -11.5t70.5 -36t44 -64t15 -96.5zM475 219q0 37 -9 61t-26 38.5t-42 20t-57 5.5h-64v-256h56q36 0 63 5.5t44.5 20.5t26 40.5t8.5 64.5z" />
    <glyph glyph-name="afii10045" unicode="&#x42b;" horiz-adv-x="714" 
d="M540 0v712h114v-712h-114zM488 224q0 -118 -56.5 -171t-165.5 -53h-206v712h114v-280h91q52 0 93.5 -11.5t70.5 -36t44 -64t15 -96.5zM372 219q0 37 -9 61t-26 38.5t-42 20t-57 5.5h-64v-256h56q36 0 62.5 5.5t44.5 20.5t26.5 40.5t8.5 64.5z" />
    <glyph glyph-name="afii10046" unicode="&#x42c;" horiz-adv-x="519" 
d="M490 224q0 -118 -56.5 -171t-165.5 -53h-206v712h114v-280h91q52 0 93.5 -11.5t70.5 -36t44 -64t15 -96.5zM374 219q0 37 -9 61t-26 38.5t-42 20t-57 5.5h-64v-256h56q36 0 62.5 5.5t44.5 20.5t26.5 40.5t8.5 64.5z" />
    <glyph glyph-name="afii10047" unicode="&#x42d;" horiz-adv-x="519" 
d="M483 350q0 -66 -6.5 -131t-30.5 -117t-70.5 -84.5t-125.5 -32.5q-64 0 -106 19t-67.5 53t-37 80.5t-12.5 101.5h111q3 -89 30 -129.5t78 -40.5q41 0 65 22.5t36 59t16 81.5t4 90h-197v94h196q-1 46 -6 87t-17.5 71.5t-35 48t-58.5 17.5q-55 0 -78 -37t-25 -98h-112
q3 106 55 163t161 57q55 0 93.5 -15.5t64.5 -42t41 -63t22.5 -78t9.5 -86.5t2 -90z" />
    <glyph glyph-name="afii10048" unicode="&#x42e;" horiz-adv-x="774" 
d="M262 422q3 57 13 111.5t35.5 97t70.5 68.5t117 26q81 0 127.5 -32t70 -83t29.5 -115t6 -127q0 -45 -2 -90.5t-10 -88t-23 -80t-42 -65t-66.5 -43.5t-95.5 -16q-76 0 -121.5 31t-69.5 80t-31.5 109.5t-8.5 119.5h-87v-325h-114v712h114v-290h88v0zM376 355q0 -66 4.5 -119
t17.5 -90t36 -57t60 -20q33 0 56.5 15t37.5 48t20.5 87t6.5 132q0 82 -6 137t-20 89t-36.5 48.5t-56.5 14.5q-42 0 -66 -22.5t-36 -61.5t-15 -91t-3 -110z" />
    <glyph glyph-name="afii10049" unicode="&#x42f;" horiz-adv-x="537" 
d="M363 0v289h-71l-149 -289h-129l163 302q-64 20 -100 70t-36 133q0 55 16.5 94t46.5 64t71 37t90 12h212v-712h-114zM364 625h-69q-33 0 -58.5 -5t-43 -18.5t-27 -37t-9.5 -59.5q0 -72 33.5 -100.5t97.5 -28.5h76v249z" />
    <glyph glyph-name="afii10065" unicode="&#x430;" horiz-adv-x="463" 
d="M46 377q0 91 45 132.5t138 41.5q86 0 134 -39q23 -19 32 -45.5t9 -76.5v-260v-19t3 -19t9.5 -14.5t18.5 -5.5q5 0 8 0.5t8 2.5v-71q-17 -5 -27.5 -6.5t-29.5 -1.5q-43 0 -64 18t-24 58q-25 -44 -57 -63t-81 -19q-67 0 -102.5 39t-35.5 114q0 38 11.5 72t43.5 58
q21 16 47.5 24.5t53.5 15t52.5 13.5t43.5 19q19 12 19 53q0 78 -75 78q-24 0 -40 -7t-25 -20t-12.5 -31t-3.5 -39v-4h-99v2zM303 287q-9 -9 -21.5 -16t-33.5 -14l-35 -11q-40 -13 -57 -33t-17 -63q0 -80 68 -80q22 0 42.5 10.5t33.5 28.5q11 15 14.5 32t3.5 51v52
q0 11 1 21.5t1 21.5z" />
    <glyph glyph-name="afii10066" unicode="&#x431;" horiz-adv-x="469" 
d="M437 262q0 -68 -10.5 -119.5t-34.5 -86.5t-63.5 -52.5t-97.5 -17.5q-66 0 -104.5 27.5t-58 73t-24.5 103t-5 117.5q0 63 5.5 126.5t23.5 117.5t52.5 93.5t92.5 53.5q23 6 44.5 9.5t38.5 7.5t28 9t13 14h84q-2 -43 -19.5 -66t-43 -35t-56 -17t-59.5 -12q-33 -8 -59 -21
t-44 -34t-29 -53t-14 -77h3q10 28 27 49t37.5 35.5t43 21.5t45.5 7q100 0 142 -70t42 -204zM329 264q0 56 -5 94t-16 60.5t-28 32t-40 9.5q-24 0 -41 -10t-28.5 -34t-17 -62.5t-5.5 -95.5q0 -100 19 -148t70 -48q24 0 41.5 10.5t28.5 34.5t16.5 62.5t5.5 94.5z" />
    <glyph glyph-name="afii10067" unicode="&#x432;" horiz-adv-x="465" 
d="M430 153q0 -41 -12.5 -70t-35.5 -47.5t-55 -27t-71 -8.5h-204v536h203q35 0 64 -7t50 -22.5t32.5 -41.5t11.5 -65q0 -43 -20.5 -74t-60.5 -42q98 -21 98 -131zM306 388q0 23 -6.5 37t-19 21.5t-30 10t-39.5 2.5h-53v-143h57q43 0 67 14t24 58zM321 160q0 26 -7 42
t-20.5 25t-32 12.5t-41.5 3.5h-62v-166h57q22 0 41.5 2.5t34 11t22.5 25t8 44.5z" />
    <glyph glyph-name="afii10068" unicode="&#x433;" horiz-adv-x="360" 
d="M163 450v-450h-108v536h302v-86h-194z" />
    <glyph glyph-name="afii10069" unicode="&#x434;" horiz-adv-x="500" 
d="M392 -144v144h-287v-144h-101v239h50q29 55 45 134t16 187v120h316v-441h62v-239h-101zM324 451h-107v-62q0 -32 -3.5 -72t-10 -81t-17 -78t-24.5 -63h162v356z" />
    <glyph glyph-name="afii10070" unicode="&#x435;" horiz-adv-x="463" 
d="M149 247q0 -100 20 -142.5t68 -42.5q78 0 84 116h101q-4 -91 -51 -141.5t-138 -50.5q-102 0 -148.5 67.5t-46.5 213.5q0 147 48.5 214.5t152.5 67.5q63 0 100 -23t56.5 -61t25.5 -87t6 -101v-23h-278v-7zM319 326q0 21 -1.5 46.5t-9.5 48t-24 37.5t-46 15t-47.5 -14.5
t-26.5 -36.5t-11.5 -48t-2.5 -48h169z" />
    <glyph glyph-name="afii10072" unicode="&#x436;" horiz-adv-x="676" 
d="M564 0l-114 238l-60 -88v-150h-104v150l-59 88l-114 -238h-121l171 325l-144 211h118l90 -142q7 -11 16.5 -27.5l19 -33t16.5 -30t10 -19.5q0 7 -0.5 17.5t-1 22t-1 22.5t-0.5 20v170h104v-170q0 -9 -0.5 -20t-1 -22.5t-1 -22t-0.5 -17.5q3 6 10 19t16 29.5t18.5 33
t17.5 28.5l90 142h118l-143 -211l170 -325h-120z" />
    <glyph glyph-name="afii10073" unicode="&#x437;" horiz-adv-x="430" 
d="M396 155q0 -81 -49 -124.5t-141 -43.5q-97 0 -140.5 42t-43.5 136v9h99v-7q0 -23 3.5 -42.5t13 -33t26 -21t42.5 -7.5q38 0 60 23.5t22 65.5q0 49 -21 69.5t-68 20.5h-8.5t-12 -0.5t-11.5 -1t-6 -0.5v78q2 0 14 -0.5t17 -0.5q38 0 61 18t23 66q0 73 -67 73q-45 0 -59 -25
t-14 -64v-6h-99v7q0 87 42 125t131 38q86 0 129 -38.5t43 -105.5q0 -44 -23.5 -78t-64.5 -44q48 -8 75 -40.5t27 -87.5z" />
    <glyph glyph-name="afii10074" unicode="&#x438;" horiz-adv-x="497" 
d="M341 0v272q0 11 0.5 29t1 37t1.5 36.5t2 28.5h-3q-1 -5 -5.5 -19t-10.5 -30t-11.5 -30t-8.5 -20l-133 -304h-121v536h103v-272q0 -10 -0.5 -27t-1 -36t-2 -36t-2.5 -27h3q3 8 9.5 26t14.5 37.5t15.5 36.5t10.5 25l120 273h121v-536h-103z" />
    <glyph glyph-name="afii10075" unicode="&#x439;" horiz-adv-x="497" 
d="M380 726q-2 -62 -37.5 -97.5t-94.5 -35.5t-94.5 35.5t-37.5 97.5h58q5 -32 24.5 -49.5t49.5 -17.5t49.5 17.5t24.5 49.5h58v0zM341 0v272q0 11 0.5 29t1 37t1.5 36.5t2 28.5h-3q-1 -5 -5.5 -19t-10.5 -30t-11.5 -30t-8.5 -20l-133 -304h-121v536h103v-272q0 -10 -0.5 -27
t-1 -36t-2 -36t-2.5 -27h3q3 8 9.5 26t14.5 37.5t15.5 36.5t10.5 25l120 273h121v-536h-103z" />
    <glyph glyph-name="afii10076" unicode="&#x43a;" horiz-adv-x="463" 
d="M348 0l-125 230l-62 -86v-144h-105v536h105v-185q0 -4 -0.5 -13.5t-0.5 -20t-0.5 -20t-0.5 -13.5q3 6 10.5 18t16.5 26.5t18 28t14 21.5l107 158h124l-157 -217l181 -319h-125z" />
    <glyph glyph-name="afii10077" unicode="&#x43b;" 
d="M319 0v450h-117l-6 -237q-2 -76 -14.5 -120t-32 -66.5t-43 -28.5t-47.5 -6q-17 0 -33.5 3t-25.5 5v85q6 -2 14.5 -3.5t13.5 -1.5q11 0 21.5 2.5t19 14.5t14 38t7.5 74l10 327h327v-536h-108z" />
    <glyph glyph-name="afii10078" unicode="&#x43c;" horiz-adv-x="621" 
d="M465 0v312q0 11 1 31t2 41t2.5 38.5t1.5 23.5h-3q-5 -29 -12 -58t-13 -52l-86 -336h-95l-86 336q-6 23 -13 52t-12 58h-3q0 -6 1.5 -23.5t2.5 -38.5t2 -41t1 -31v-312h-103v536h157l67 -276q2 -9 7 -30.5t10 -46t9 -46.5t6 -31h3q1 9 5.5 31t9.5 46.5t10 46t7 30.5
l67 276h157v-536h-103z" />
    <glyph glyph-name="afii10079" unicode="&#x43d;" 
d="M320 0v241h-159v-241h-108v536h108v-206h159v206h108v-536h-108z" />
    <glyph glyph-name="afii10080" unicode="&#x43e;" horiz-adv-x="463" 
d="M431 269q0 -65 -9 -117t-32.5 -89t-63.5 -56.5t-102 -19.5q-101 0 -146.5 66t-45.5 214q0 58 8 109t30 89.5t62 61t103 22.5q64 0 102.5 -23.5t59.5 -62.5t27.5 -89.5t6.5 -104.5zM322 271q0 56 -4.5 94t-15 61.5t-28 33.5t-42.5 10t-42 -11t-28 -35.5t-16 -64t-5 -95.5
q0 -42 3 -78.5t12.5 -63.5t27 -42.5t47.5 -15.5q50 0 70.5 47.5t20.5 159.5z" />
    <glyph glyph-name="afii10081" unicode="&#x43f;" 
d="M320 0v450h-159v-450h-108v536h375v-536h-108z" />
    <glyph glyph-name="afii10082" unicode="&#x440;" 
d="M155 511v-16v-10.5t-0.5 -9t-1.5 -10.5q33 83 126 83q57 0 90 -26t49.5 -66t21 -87.5t4.5 -90.5q0 -44 -5 -95t-22 -94.5t-51 -72.5t-92 -29q-79 0 -115 72q1 -17 1.5 -33t0.5 -33v-171h-109v714h103v-25zM156 275q0 -30 1.5 -65t10 -66t26.5 -51.5t51 -20.5
q30 0 47.5 17.5t27 46t12 64t2.5 71.5q0 45 -3 80.5t-12.5 60t-26.5 38t-44 13.5q-35 0 -53.5 -20.5t-27 -50t-10 -61.5t-1.5 -56z" />
    <glyph glyph-name="afii10083" unicode="&#x441;" horiz-adv-x="444" 
d="M416 196q0 -98 -44.5 -153.5t-146.5 -55.5q-63 0 -100.5 24t-57.5 63t-26.5 89.5t-6.5 103.5q0 55 7 106.5t29 91t61 63t104 23.5q179 0 181 -191h-105q-2 60 -20.5 86t-57.5 26q-49 0 -70 -46.5t-21 -154.5q0 -54 3 -85.5t11 -58.5q19 -62 77 -62q80 0 81 131h102z" />
    <glyph glyph-name="afii10084" unicode="&#x442;" horiz-adv-x="400" 
d="M254 450v-450h-108v450h-142v86h392v-86h-142z" />
    <glyph glyph-name="afii10085" unicode="&#x443;" horiz-adv-x="426" 
d="M125 536l75 -315q7 -29 12 -58t7 -59h2q2 30 6.5 60t10.5 59l66 313h113l-139 -526q-3 -9 -7.5 -24t-9.5 -30.5t-10 -30t-8 -22.5q-18 -45 -51 -64t-91 -19h-25t-33 2v83q11 -2 20 -2h20q53 0 68 45l14 40l-156 548h116z" />
    <glyph glyph-name="afii10086" unicode="&#x444;" horiz-adv-x="700" 
d="M665 278q0 -58 -5.5 -110.5t-22 -92.5t-47.5 -63.5t-82 -23.5q-38 0 -63 13.5t-43 42.5q0 -3 0.5 -10t1 -15t0.5 -15v-10v-172h-108v172v10t0.5 15t0.5 15v10q-34 -56 -105 -56q-51 0 -82.5 23.5t-48 63.5t-22 92.5t-5.5 110.5q0 52 5 100.5t21 86t46.5 60.5t81.5 23
q78 0 110 -63q-1 4 -1.5 13.5t-0.5 19.5v19v14v161h108v-161v-14t-0.5 -19t-1 -19.5t-1.5 -13.5q34 63 110 63q51 0 81.5 -23t46.5 -60.5t21 -86t5 -100.5zM403 138q8 -31 26 -48t47 -17q50 0 65.5 50t15.5 147q0 48 -3 84t-11 60.5t-23 36.5t-40 12q-32 0 -50.5 -17.5
t-26.5 -46.5v-261zM297 399q-9 29 -27 46.5t-50 17.5q-25 0 -40 -12t-23.5 -36.5t-11.5 -60.5t-3 -84t3.5 -85t12.5 -62t24.5 -37.5t40.5 -12.5q30 0 48 17t26 48v261z" />
    <glyph glyph-name="afii10087" unicode="&#x445;" horiz-adv-x="426" 
d="M127 536l68 -141q5 -11 10 -23t9 -24q2 12 8.5 25.5t11.5 24.5l66 138h114l-138 -258l145 -278h-115l-69 144q-7 14 -13.5 29.5t-11.5 30.5q-6 -17 -12 -31t-14 -31l-67 -142h-115l146 278l-140 258h117z" />
    <glyph glyph-name="afii10088" unicode="&#x446;" horiz-adv-x="497" 
d="M391 -144v144h-338v536h108v-450h159v450h108v-450h64v-230h-101z" />
    <glyph glyph-name="afii10089" unicode="&#x447;" horiz-adv-x="458" 
d="M294 0v212q-9 -2 -21 -3.5t-25.5 -3t-26.5 -2.5t-23 -1q-76 0 -118 37.5t-42 112.5v184h108v-180q0 -22 6 -35.5t16 -21t23 -10t28 -2.5q6 0 16 0.5t20.5 2t21 2.5t17.5 3v241h108v-536h-108z" />
    <glyph glyph-name="afii10090" unicode="&#x448;" horiz-adv-x="706" 
d="M53 0v536h107v-450h139v450h108v-450h139v450h107v-536h-600z" />
    <glyph glyph-name="afii10091" unicode="&#x449;" horiz-adv-x="722" 
d="M616 -144v144h-563v536h107v-450h139v450h108v-450h139v450h107v-450h64v-230h-101z" />
    <glyph glyph-name="afii10092" unicode="&#x44a;" horiz-adv-x="511" 
d="M4 450v86h225v-192h79q82 0 129.5 -38.5t47.5 -126.5q0 -91 -44.5 -135t-130.5 -44h-189v450h-117zM229 261v-178h51q51 0 74.5 18.5t23.5 71.5q0 51 -23 69.5t-68 18.5h-58z" />
    <glyph glyph-name="afii10093" unicode="&#x44b;" horiz-adv-x="624" 
d="M409 179q0 -91 -44.5 -135t-130.5 -44h-181v536h108v-192h71q82 0 129.5 -38.5t47.5 -126.5zM161 261v-178h42q51 0 74.5 18.5t23.5 71.5q0 51 -23 69.5t-68 18.5h-49zM571 536v-536h-108v536h108z" />
    <glyph glyph-name="afii10094" unicode="&#x44c;" horiz-adv-x="444" 
d="M419 179q0 -91 -44.5 -135t-130.5 -44h-189v536h108v-192h79q82 0 129.5 -38.5t47.5 -126.5zM163 261v-178h50q51 0 74.5 18.5t23.5 71.5q0 51 -23 69.5t-68 18.5h-57z" />
    <glyph glyph-name="afii10095" unicode="&#x44d;" horiz-adv-x="444" 
d="M211 549q64 0 103.5 -21.5t60.5 -59.5t28 -89.5t7 -110.5q0 -54 -7.5 -105t-28.5 -90t-58.5 -62.5t-98.5 -23.5q-98 0 -141.5 49.5t-48.5 138.5h103q6 -111 81 -111q28 0 45.5 15t27.5 39.5t13.5 56t4.5 63.5h-150v81h149q-4 85 -24.5 118.5t-63.5 33.5q-39 0 -59 -26.5
t-21 -69.5h-106q4 79 49 126.5t135 47.5z" />
    <glyph glyph-name="afii10096" unicode="&#x44e;" horiz-adv-x="667" 
d="M238 324q3 48 14 89t34 71t60 47.5t93 17.5q64 0 102.5 -23.5t59.5 -62.5t27.5 -89.5t6.5 -104.5q0 -65 -9 -117t-32.5 -89t-63.5 -56.5t-102 -19.5q-96 0 -142 59.5t-50 190.5h-75v-237h-108v536h108v-212h77v0zM345 264q0 -42 3 -78.5t12.5 -63.5t27 -42.5t47.5 -15.5
q50 0 70.5 47.5t20.5 159.5q0 56 -4.5 94t-15 61.5t-28 33.5t-42.5 10t-42 -11t-28 -35.5t-16 -64t-5 -95.5z" />
    <glyph glyph-name="afii10097" unicode="&#x44f;" horiz-adv-x="463" 
d="M302 0v206h-55l-109 -206h-125l128 219q-48 15 -76 54.5t-28 98.5q0 85 48 124.5t128 39.5h197v-536h-108zM302 456h-56q-48 0 -74.5 -18t-26.5 -66q0 -47 24 -66.5t69 -19.5h64v170z" />
    <glyph glyph-name="afii10071" unicode="&#x451;" horiz-adv-x="463" 
d="M149 247q0 -100 20 -142.5t68 -42.5q78 0 84 116h101q-4 -91 -51 -141.5t-138 -50.5q-102 0 -148.5 67.5t-46.5 213.5q0 147 48.5 214.5t152.5 67.5q63 0 100 -23t56.5 -61t25.5 -87t6 -101v-23h-278v-7zM319 326q0 21 -1.5 46.5t-9.5 48t-24 37.5t-46 15t-47.5 -14.5
t-26.5 -36.5t-11.5 -48t-2.5 -48h169zM201 715v-107h-97v107h97zM370 715v-107h-97v107h97z" />
    <glyph glyph-name="afii10099" unicode="&#x452;" 
d="M435 95q0 -62 -8.5 -113t-32 -87.5t-65.5 -56.5t-109 -20q-11 0 -19 0.5t-16 1.5v83q7 -1 15 -1h14q64 0 88.5 43.5t24.5 138.5v130q0 20 -0.5 41.5t-6.5 39t-21 29t-43 11.5q-39 0 -64 -28t-25 -67v-240h-108v462h-54v80h54v170h108v-170h188v-80h-188v-63
q0 -11 -0.5 -26.5t-1.5 -22.5q26 36 58.5 54t75.5 18q72 0 104 -43t32 -119v-165v0z" />
    <glyph glyph-name="afii10100" unicode="&#x453;" horiz-adv-x="360" 
d="M163 450v-450h-108v536h302v-86h-194zM325 732l-105 -143h-75l62 143h118z" />
    <glyph glyph-name="afii10101" unicode="&#x454;" horiz-adv-x="444" 
d="M417 175q-5 -89 -48.5 -138.5t-141.5 -49.5q-61 0 -98.5 23.5t-58.5 62.5t-28.5 90t-7.5 105q0 59 7 110.5t29 89.5t61 59.5t104 21.5q90 0 134 -47.5t48 -126.5h-106q-1 43 -20 69.5t-58 26.5q-22 0 -38 -7.5t-27 -25.5t-17 -47t-8 -72h149v-81h-150q1 -32 4.5 -63.5
t13 -56t27 -39.5t46.5 -15q75 0 81 111h103v0z" />
    <glyph glyph-name="afii10102" unicode="&#x455;" horiz-adv-x="426" 
d="M125 173v-7q0 -23 3.5 -42.5t13 -33t26 -21t42.5 -7.5q39 0 61 20t22 56q0 30 -15.5 49.5t-50.5 31.5l-65 23q-36 13 -60.5 27.5t-39.5 32.5t-21.5 41.5t-6.5 53.5q0 72 46 111.5t133 39.5t128.5 -37.5t41.5 -124.5v-7h-99v6q0 39 -14 63.5t-59 24.5q-36 0 -56 -17.5
t-20 -49.5q0 -24 11 -39t28 -24.5t37 -15.5t38 -12q32 -11 59.5 -22.5t47 -29.5t30.5 -44t11 -66q0 -80 -49.5 -123.5t-142.5 -43.5q-95 0 -137 42t-42 136v9h99z" />
    <glyph glyph-name="afii10103" unicode="&#x456;" horiz-adv-x="222" 
d="M166 536v-536h-109v536h109zM166 715v-107h-109v107h109z" />
    <glyph glyph-name="afii10104" unicode="&#x457;" horiz-adv-x="222" 
d="M166 536v-536h-109v536h109zM75 715v-107h-97v107h97zM244 715v-107h-97v107h97z" />
    <glyph glyph-name="afii10105" unicode="&#x458;" horiz-adv-x="222" 
d="M169 536v-567q0 -41 -7.5 -69.5t-24.5 -46.5t-45.5 -26t-71.5 -8h-18t-21 1v83q5 0 9.5 -0.5t9.5 -0.5q20 0 32 5t18.5 14.5t8.5 23t2 31.5v560h108zM169 715v-107h-108v107h108z" />
    <glyph glyph-name="afii10106" unicode="&#x459;" horiz-adv-x="710" 
d="M684 175q0 -91 -45 -133t-131 -42h-188v449h-117l-6 -236q-2 -76 -14 -120t-30.5 -66.5t-42 -29t-48.5 -6.5q-16 0 -33.5 3t-27.5 5v87q6 -2 16.5 -4t17.5 -2q10 0 20 2.5t17.5 14.5t13 38t6.5 74l9 327h327v-200h78q40 0 73 -8.5t56.5 -27.5t36 -50t12.5 -75zM428 253
v-170h50q25 0 43.5 3.5t31 13t18.5 26.5t6 43q0 50 -24 67t-69 17h-56z" />
    <glyph glyph-name="afii10107" unicode="&#x45a;" horiz-adv-x="710" 
d="M685 172q0 -90 -44 -131t-129 -41h-191v241h-160v-241h-108v536h108v-206h160v206h108v-206h81q40 0 72.5 -8.5t55 -27t35 -49t12.5 -73.5zM429 250v-164h53q50 0 73 16t23 67q0 49 -22.5 65t-66.5 16h-60z" />
    <glyph glyph-name="afii10108" unicode="&#x45b;" 
d="M327 0v214q0 20 -0.5 41.5t-6.5 39t-21 29t-43 11.5q-39 0 -64 -28t-25 -67v-240h-108v462h-54v80h54v170h108v-170h188v-80h-188v-63q0 -11 -0.5 -26.5t-1.5 -22.5q26 36 58.5 54t75.5 18q72 0 104 -43t32 -119v-260h-108z" />
    <glyph glyph-name="afii10109" unicode="&#x45c;" horiz-adv-x="463" 
d="M348 0l-125 230l-62 -86v-144h-105v536h105v-185q0 -4 -0.5 -13.5t-0.5 -20t-0.5 -20t-0.5 -13.5q3 6 10.5 18t16.5 26.5t18 28t14 21.5l107 158h124l-157 -217l181 -319h-125zM365 732l-105 -143h-75l62 143h118z" />
    <glyph glyph-name="afii10110" unicode="&#x45e;" horiz-adv-x="426" 
d="M345 726q-2 -62 -37.5 -97.5t-94.5 -35.5t-94.5 35.5t-37.5 97.5h58q5 -32 24.5 -49.5t49.5 -17.5t49.5 17.5t24.5 49.5h58v0zM278 10q-3 -9 -7.5 -24t-9.5 -30.5t-10 -30t-8 -22.5q-18 -45 -51 -64t-91 -19h-25t-33 2v83q11 -2 20 -2h20q53 0 68 45l14 40l-156 548h116
l75 -315q7 -29 12 -58t7 -59h2q2 30 6.5 60t10.5 59l66 313h113z" />
    <glyph glyph-name="afii10193" unicode="&#x45f;" 
d="M291 0v-144h-101v144h-137v536h108v-450h159v450h108v-536h-137z" />
    <glyph glyph-name="afii10050" unicode="&#x490;" horiz-adv-x="439" 
d="M174 616v-616h-114v712h265v151h107v-247h-258z" />
    <glyph glyph-name="afii10098" unicode="&#x491;" horiz-adv-x="360" 
d="M163 450v-450h-108v536h201v140h101v-226h-194z" />
    <glyph glyph-name="endash" unicode="&#x2013;" horiz-adv-x="500" 
d="M500 332v-92h-500v92h500z" />
    <glyph glyph-name="emdash" unicode="&#x2014;" horiz-adv-x="1000" 
d="M1000 332v-92h-1000v92h1000z" />
    <glyph glyph-name="quoteleft" unicode="&#x2018;" horiz-adv-x="240" 
d="M64 436v88q0 34 2.5 66.5t14 59t34 45t62.5 24.5v-57q-14 -5 -23.5 -11.5t-15.5 -17t-8.5 -27t-2.5 -41.5h50v-129h-113z" />
    <glyph glyph-name="quoteright" unicode="&#x2019;" horiz-adv-x="240" 
d="M176 624q0 -34 -2.5 -66.5t-14 -59t-34 -45t-62.5 -24.5v57q14 5 23.5 11.5t15.5 17t8.5 27t2.5 41.5h-50v129h113v-88v0z" />
    <glyph glyph-name="quotesinglbase" unicode="&#x201a;" horiz-adv-x="240" 
d="M176 41q0 -34 -2.5 -66.5t-14 -59t-34 -45t-62.5 -24.5v57q14 5 23.5 11.5t15.5 17t8.5 27t2.5 41.5h-50v129h113v-88v0z" />
    <glyph glyph-name="quotedblleft" unicode="&#x201c;" horiz-adv-x="426" 
d="M243 436v88q0 34 2.5 66.5t14 59t34 45t62.5 24.5v-57q-14 -5 -23.5 -11.5t-15.5 -17t-8.5 -27t-2.5 -41.5h50v-129h-113zM68 436v88q0 34 2.5 66.5t14 59t34 45t62.5 24.5v-57q-14 -5 -23.5 -11.5t-15.5 -17t-8.5 -27t-2.5 -41.5h50v-129h-113z" />
    <glyph glyph-name="quotedblright" unicode="&#x201d;" horiz-adv-x="426" 
d="M355 624q0 -34 -2.5 -66.5t-14 -59t-34 -45t-62.5 -24.5v57q14 5 23.5 11.5t15.5 17t8.5 27t2.5 41.5h-50v129h113v-88v0zM180 624q0 -34 -2.5 -66.5t-14 -59t-34 -45t-62.5 -24.5v57q14 5 23.5 11.5t15.5 17t8.5 27t2.5 41.5h-50v129h113v-88v0z" />
    <glyph glyph-name="quotedblbase" unicode="&#x201e;" horiz-adv-x="426" 
d="M355 41q0 -34 -2.5 -66.5t-14 -59t-34 -45t-62.5 -24.5v57q14 5 23.5 11.5t15.5 17t8.5 27t2.5 41.5h-50v129h113v-88v0zM180 41q0 -34 -2.5 -66.5t-14 -59t-34 -45t-62.5 -24.5v57q14 5 23.5 11.5t15.5 17t8.5 27t2.5 41.5h-50v129h113v-88v0z" />
    <glyph glyph-name="dagger" unicode="&#x2020;" horiz-adv-x="482" 
d="M186 511v201h108v-201h170v-91h-170v-559h-108v559h-170v91h170z" />
    <glyph glyph-name="daggerdbl" unicode="&#x2021;" horiz-adv-x="482" 
d="M187 519v193h107v-193h170v-88h-170v-288h170v-87h-170l1 -195h-108v195h-170l-1 87h171v288h-171v88h171z" />
    <glyph glyph-name="bullet" unicode="&#x2022;" horiz-adv-x="500" 
d="M250 534q37 0 69.5 -14t56.5 -38t38 -56.5t14 -69.5t-14 -69.5t-38 -56.5t-56.5 -38t-69.5 -14t-69.5 14t-56.5 38t-38 56.5t-14 69.5q0 36 14 68.5t38.5 57t57 38.5t68.5 14z" />
    <glyph glyph-name="ellipsis" unicode="&#x2026;" horiz-adv-x="1000" 
d="M223 129v-129h-113v129h113zM556 129v-129h-113v129h113zM889 129v-129h-113v129h113z" />
    <glyph glyph-name="perthousand" unicode="&#x2030;" horiz-adv-x="1056" 
d="M560 717l-314 -730h-76l315 730h75zM34 515q0 38 3.5 73t17 62t41 43.5t75.5 16.5q46 0 72.5 -15t40 -41t17.5 -60.5t4 -73.5q0 -38 -3.5 -73t-18 -61t-42.5 -41.5t-76 -15.5q-45 0 -71 15t-39.5 40.5t-17 59t-3.5 71.5zM119 520q0 -68 8 -98t42 -30q20 0 30.5 12t15 31
t5 41.5t0.5 43.5q0 26 -1 49.5t-5.5 41t-15 27.5t-28.5 10q-35 0 -43 -33.5t-8 -94.5zM428 177q0 38 3.5 73t17 62t41 43.5t75.5 16.5q46 0 72.5 -15t40 -41t17.5 -60.5t4 -73.5q0 -38 -3.5 -73t-18 -61t-42.5 -41.5t-76 -15.5q-45 0 -71 15t-39.5 40.5t-17 59t-3.5 71.5z
M513 182q0 -68 8 -98t42 -30q20 0 30.5 12t15 31t5 41.5t0.5 43.5q0 26 -1 49.5t-5.5 41t-15 27.5t-28.5 10q-35 0 -43 -33.5t-8 -94.5zM750 177q0 38 3.5 73t17 62t41 43.5t75.5 16.5q46 0 72.5 -15t40 -41t17.5 -60.5t4 -73.5q0 -38 -3.5 -73t-18 -61t-42.5 -41.5
t-76 -15.5q-45 0 -71 15t-39.5 40.5t-17 59t-3.5 71.5zM835 182q0 -68 8 -98t42 -30q20 0 30.5 12t15 31t5 41.5t0.5 43.5q0 26 -1 49.5t-5.5 41t-15 27.5t-28.5 10q-35 0 -43 -33.5t-8 -94.5z" />
    <glyph glyph-name="guilsinglleft" unicode="&#x2039;" horiz-adv-x="240" 
d="M47 220v118l143 132v-108l-49 -46l-11.5 -11.5t-13.5 -11.5q-8 -7 -16 -13q7 -7 14 -12q6 -5 12.5 -10t11.5 -10l52 -52v-106z" />
    <glyph glyph-name="guilsinglright" unicode="&#x203a;" horiz-adv-x="240" 
d="M50 90v106l52 52q5 5 11 10l12 10q7 5 15 12q-8 6 -16 13q-7 5 -13.5 11.5l-11.5 11.5l-49 46v108l143 -132v-118z" />
    <glyph glyph-name="Euro" unicode="&#x20ac;" horiz-adv-x="480" 
d="M446 547q-7 14 -19 29.5t-33 29.5t-40 18t-40 4q-24 0 -44 -6.5t-37 -26.5q-13 -14 -21 -33t-13 -39t-7 -38.5t-3 -31.5h224l-24 -68h-204q-2 -33 0 -70h185l-24 -68h-157q0 -11 2 -29t6.5 -38.5t13 -41.5t22.5 -37q17 -19 37 -27t46 -8q20 0 41.5 5t43.5 16
q20 10 35 23.5t28 33.5v-110q-21 -18 -46 -28q-15 -7 -31.5 -11t-30.5 -6t-25 -2.5t-17 -0.5q-58 0 -94 13.5t-56 29.5q-28 22 -45 52.5t-26.5 61.5t-13 59t-4.5 45h-75l24 68h47q-2 37 0 70h-71l24 68h51q3 44 11.5 78t20.5 60t27 44t30 30q19 15 39 23.5t39.5 13t37 5.5
t31.5 1q24 0 50 -3.5t54 -15.5q38 -17 65 -50z" />
    <glyph glyph-name="afii61352" unicode="&#x2116;" horiz-adv-x="860" 
d="M690 456q68 0 98.5 -39.5t30.5 -129.5q0 -89 -32.5 -129.5t-102.5 -40.5q-67 0 -97 39.5t-30 127.5q0 85 30 128.5t103 43.5zM557 0v83h262v-83h-262zM346 0l-125 358q-6 18 -16.5 48.5t-20.5 62t-18 58t-10 37.5l-1 -1q-1 0 -1 -1q2 -18 3.5 -39.5t2.5 -45t1.5 -46.5
t0.5 -42v-389h-108v698h148l119 -329q6 -17 16.5 -48t21 -65t20 -65t13.5 -49l3 -2q-4 37 -6 82t-2 83v393h107v-698h-148zM688 402q-11 0 -20.5 -4.5t-16 -17.5t-10.5 -36t-4 -60q0 -64 12 -89t38 -25q10 0 19.5 5t16.5 18t11 35.5t4 57.5t-3.5 57.5t-10 35.5t-15.5 18
t-21 5z" />
    <glyph glyph-name="trademark" unicode="&#x2122;" horiz-adv-x="1000" 
d="M234 664h-119v48h296v-48h-118v-308h-59v308zM472 712h89l99 -267l98 267h87v-356h-54v301l-109 -301h-47l-109 301v-301h-54v356z" />
    <glyph glyph-name="Delta" unicode="&#x2206;" horiz-adv-x="676" 
d="M664 0h-652l278 712h88zM545 78l-212 543l-207 -543h419z" />
    <glyph glyph-name="uni2219" unicode="&#x2219;" horiz-adv-x="240" 
d="M177 369v-129h-113v129h113z" />
    <glyph glyph-name="radical" unicode="&#x221a;" horiz-adv-x="509" 
d="M309 -214h-80l-161 331l-47 -23l-31 65l118 56l148 -310l181 881h83z" />
    <glyph glyph-name="infinity" unicode="&#x221e;" horiz-adv-x="769" 
d="M385 354q20 20 40.5 41t43.5 37.5t49 27t57 10.5q34 0 62 -12.5t47.5 -34t30.5 -50.5t11 -62q0 -34 -10 -63.5t-29.5 -51t-47.5 -34t-63 -12.5q-30 0 -56 9.5t-49.5 25t-45 35t-40.5 39.5q-21 -19 -42 -38.5t-44 -35t-48.5 -25t-56.5 -9.5q-35 0 -63 12t-47.5 33.5
t-30.5 50.5t-11 62t10.5 62t30 51t47 34.5t61.5 12.5q30 0 57 -10t51 -26.5t45 -37t41 -41.5zM430 307q15 -14 31.5 -29t35.5 -27.5t39 -20.5t42 -8q38 0 58.5 25.5t20.5 60.5q0 38 -21.5 64t-60.5 26q-21 0 -41 -9t-38.5 -23t-35.5 -30t-30 -29zM339 307q-15 13 -32 28.5
t-35.5 29t-39 23t-41.5 9.5q-18 0 -33 -7.5t-25.5 -19.5t-16 -28t-5.5 -34q0 -38 22.5 -61.5t60.5 -23.5q19 0 39.5 8t39.5 20.5t36 27.5t30 28z" />
    <glyph glyph-name="approxequal" unicode="&#x2248;" horiz-adv-x="600" 
d="M564 476q-3 -29 -12 -56t-25 -48t-39.5 -33.5t-56.5 -12.5q-31 0 -68.5 11.5t-67.5 21.5q-14 4 -30.5 10.5t-34.5 12.5t-35.5 10.5t-31.5 4.5q-32 0 -50 -23t-23 -52h-55q3 28 12 55t24.5 48.5t39 34.5t56.5 13q37 0 73.5 -12.5t70.5 -23.5q14 -5 30 -10.5t32.5 -11
t33 -9t31.5 -3.5q33 0 50 22t23 51h53v0zM564 290q-3 -29 -12 -56t-25 -48t-39.5 -33.5t-56.5 -12.5q-31 0 -68.5 11.5t-67.5 21.5q-14 4 -30.5 10.5t-34.5 12.5t-35.5 10.5t-31.5 4.5q-32 0 -50 -23t-23 -52h-55q3 28 12 55t24.5 48.5t39 34.5t56.5 13q37 0 73.5 -12.5
t70.5 -23.5q14 -5 30 -10.5t32.5 -11t33 -9t31.5 -3.5q33 0 50 22t23 51h53v0z" />
    <glyph glyph-name="notequal" unicode="&#x2260;" horiz-adv-x="600" 
d="M284 368h-242v78h283l77 149l68 -35l-60 -114h141v-78h-181l-65 -125h246v-77h-286l-77 -147l-68 35l59 112h-137v77h177z" />
    <glyph glyph-name="lessequal" unicode="&#x2264;" horiz-adv-x="600" 
d="M42 379l509 184v-83l-403 -142l403 -139v-83l-509 182v81zM551 78v-78h-509v78h509z" />
    <glyph glyph-name="greaterequal" unicode="&#x2265;" horiz-adv-x="600" 
d="M42 116v83l402 139l-402 142v83l509 -184v-81zM551 0h-509v78h509v-78z" />
    <glyph glyph-name="uniF8FF" unicode="&#xf8ff;" horiz-adv-x="512" 
d="M222 117v67h56v-67h-56zM225 234l-2 17q0 56 13 81q7 13 18 27.5t28 31.5q16 15 26 26.5t15 21t7 18t2 17.5q0 36 -22.5 60.5t-53.5 24.5t-53.5 -22t-28.5 -73l-50 8q7 72 44 104.5t91 32.5t89 -35.5t35 -95.5q0 -32 -12.5 -58.5t-50.5 -61.5q-37 -33 -43 -52
q-6 -20 -6 -72h-46zM462 50v617h-412v-617h412zM512 718v-718h-512v718h512z" />
  </font>
</defs>
</svg>
