<?xml version="1.0" standalone="no"?>
<!DOCTYPE svg PUBLIC "-//W3C//DTD SVG 1.1//EN" "http://www.w3.org/Graphics/SVG/1.1/DTD/svg11.dtd" >
<svg xmlns="http://www.w3.org/2000/svg" xmlns:xlink="http://www.w3.org/1999/xlink" version="1.1">
<metadata></metadata>
<defs>
<font id="postmodern_oneregular" horiz-adv-x="1282" >
<font-face units-per-em="2048" ascent="1638" descent="-410" />
<missing-glyph horiz-adv-x="563" />
<glyph horiz-adv-x="0" />
<glyph unicode="&#xd;" horiz-adv-x="563" />
<glyph unicode=" "  horiz-adv-x="563" />
<glyph unicode="&#x09;" horiz-adv-x="563" />
<glyph unicode="&#xa0;" horiz-adv-x="563" />
<glyph unicode="!" horiz-adv-x="417" d="M63 -2v283h291v-283h-291zM63 373v1087h291v-1087h-291z" />
<glyph unicode="&#x22;" horiz-adv-x="823" d="M59 1481h705l-88 -453h-203l-61 324q-16 -86 -64 -324h-203z" />
<glyph unicode="#" horiz-adv-x="1228" d="M61 451l52 245h157l35 164h-160l52 246h157l76 362h246l-76 -362h164l76 362h245l-75 -362h159l-51 -246h-157l-35 -164h159l-51 -245h-157l-76 -365h-246l76 365h-164l-76 -365h-246l76 365h-160zM516 696h164l35 164h-164z" />
<glyph unicode="$" horiz-adv-x="1163" d="M59 696v144q0 172 107 305q106 133 270 180v176h291v-158h313v-288h-462q-98 0 -164 -66l-4 -4h694l-41 -178q-72 -299 -283 -479q-8 -6 -21.5 -16.5l-31.5 -24.5v-287h-291v143q-125 -45 -289 -71l-47 284q471 80 615 340h-656z" />
<glyph unicode="%" horiz-adv-x="1681" d="M68 1468h700v-84q-6 -401 -289 -704l-61 -64l-60 64q-141 154 -211.5 330t-76.5 374zM166 -4l872 1477h228l-887 -1477h-213zM240 1305q27 -244 178 -443q150 199 178 443h-356zM920 825h700v-84q-6 -401 -289 -704l-61 -64l-60 64q-141 154 -211.5 330t-76.5 374z M1092 662q27 -244 178 -443q150 199 178 443h-356z" />
<glyph unicode="&#x26;" horiz-adv-x="1411" d="M66 0l4 147q8 381 198 730q-47 98 -79.5 200.5t-53.5 212.5l-31 170h1043v-289h-684q145 -461 549 -737q-49 205 -185 412h336q86 -172 131 -345t49 -354l5 -147h-1282zM373 289h350q-78 63 -143.5 131.5t-120.5 140.5q-2 4 -10 17q-53 -131 -76 -289z" />
<glyph unicode="'" horiz-adv-x="417" d="M20 1481h377l-88 -453h-203z" />
<glyph unicode="(" horiz-adv-x="661" d="M35 600q0 549 387 936l205 -205q-303 -303 -303 -731q0 -430 303 -731l-205 -205q-387 385 -387 936z" />
<glyph unicode=")" horiz-adv-x="661" d="M41 -131l205 -205q387 385 387 936q0 549 -387 936l-205 -205q303 -303 303 -731q0 -430 -303 -731z" />
<glyph unicode="*" horiz-adv-x="966" d="M43 1122l147 254l187 -153l-39 237h293l-39 -235l184 153l148 -254l-228 -86l228 -84l-148 -254l-184 152l39 -236h-293l39 238l-187 -154l-145 254l223 84z" />
<glyph unicode="+" horiz-adv-x="1024" d="M66 625v209h342v344h208v-344h345v-209h-345v-342h-208v342h-342z" />
<glyph unicode="," horiz-adv-x="417" d="M63 0v281h291v-177q0 -223 -161 -362l-97 98q84 57 107 160h-140z" />
<glyph unicode="-" horiz-adv-x="653" d="M72 584v290h512v-290h-512z" />
<glyph unicode="." horiz-adv-x="417" d="M63 0v283h291v-283h-291z" />
<glyph unicode="/" horiz-adv-x="1167" d="M-20 -299l899 1772h309l-912 -1772h-296z" />
<glyph unicode="0" horiz-adv-x="1372" d="M68 1468h1237l-2 -149q-2 -334 -142 -666q-131 -319 -368 -575l-107 -115l-104 115q-244 268 -371 575q-131 319 -139 666zM373 1178q49 -432 313 -779q270 356 315 779h-628z" />
<glyph unicode="1" horiz-adv-x="614" d="M66 1180v288h483v-1468h-289v1180h-194z" />
<glyph unicode="2" horiz-adv-x="1138" d="M53 -2v143q0 213 113 351q70 82 264 208q147 96 215 170q55 59 90 139.5t51 170.5h-698v288h999v-145q0 -178 -40.5 -324.5t-122.5 -257.5q-98 -129 -338 -284q-41 -27 -70 -45.5t-45 -32.5q-59 -47 -86 -92h674v-289h-1006z" />
<glyph unicode="3" horiz-adv-x="1112" d="M61 0v289h703q-6 219 -146 377q-59 -47 -123.5 -88t-134.5 -76l-129 260q150 76 259.5 181.5t181.5 236.5h-611v288h996l-39 -176q-25 -111 -74 -217t-121 -203q84 -96 142 -210q86 -182 86 -365q0 -53 -8.5 -128t-24.5 -169h-957z" />
<glyph unicode="4" horiz-adv-x="1243" d="M66 322l30 170q55 307 250 561q252 326 686 481v-924h148v-288h-148v-328h-289v328h-677zM426 610h317v441q-217 -174 -317 -441z" />
<glyph unicode="5" horiz-adv-x="1312" d="M76 -25v291q137 16 256 56t215 97.5t170 128t123 150.5h-764q23 59 50.5 142.5t61 183.5t72.5 213t86 231h875v-288h-678l-82 -213h786q-49 -274 -205 -490q-33 -45 -71.5 -86t-85.5 -82q-66 -55 -156 -112.5t-195.5 -103.5t-222 -78.5t-235.5 -39.5z" />
<glyph unicode="6" horiz-adv-x="1304" d="M59 1468h1143v-288h-786q8 -35 20.5 -73t28.5 -73h780v-1065l-203 92q-391 178 -630 490q-123 160 -203 348t-119 399zM629 743q2 -4 12 -14q86 -100 165 -173t150 -120v307h-327z" />
<glyph unicode="7" horiz-adv-x="1069" d="M66 1180v288h940l-7 -151q-10 -203 -59 -401.5t-135 -389.5q-170 -379 -455 -663l-205 205q229 229 364.5 507.5t182.5 604.5h-626z" />
<glyph unicode="8" horiz-adv-x="1337" d="M68 0l6 152q12 311 225 579q-106 131 -162.5 278.5t-62.5 307.5l-6 151h1204l-6 -151q-8 -160 -63.5 -307.5t-162.5 -278.5q209 -264 226 -579l6 -152h-1204zM389 295h561q-49 180 -205 332l-75 73l-74 -73q-145 -145 -207 -332zM389 1174q31 -94 83 -181.5t124 -158.5 l74 -74l75 74q78 78 129.5 163.5t75.5 176.5h-561z" />
<glyph unicode="9" horiz-adv-x="1366" d="M66 1468h1237l-3 -147q-4 -168 -38.5 -339t-104.5 -337q-135 -328 -366 -575l-107 -113l-104 113q-104 111 -185.5 230.5t-144.5 254.5h325q33 -51 60 -92t49 -70q125 162 203 350h-717q-63 215 -80 336q-8 55 -14 154.5t-10 234.5zM371 1180q6 -45 12 -84t10 -62h584 q4 23 10 62t12 84h-628z" />
<glyph unicode=":" horiz-adv-x="417" d="M63 0v283h291v-283h-291zM63 518v283h291v-283h-291z" />
<glyph unicode=";" horiz-adv-x="417" d="M63 0v281h291v-177q0 -223 -161 -362l-97 98q84 57 107 160h-140zM63 518v283h291v-283h-291z" />
<glyph unicode="&#x3c;" horiz-adv-x="864" d="M68 590v196l735 383v-249l-445 -232l445 -231v-250z" />
<glyph unicode="=" horiz-adv-x="1024" d="M66 461v209h895v-209h-895zM66 788v209h895v-209h-895z" />
<glyph unicode="&#x3e;" horiz-adv-x="864" d="M68 207l735 383v196l-735 383v-249l444 -232l-444 -231v-250z" />
<glyph unicode="?" horiz-adv-x="903" d="M41 1178v288h821l-2 -145q-4 -270 -98 -430q-59 -98 -201 -209q-68 -53 -90 -86q-39 -57 -39 -145v-72h-291v72q0 180 74 294q47 72 168 166q72 55 102 97q51 68 74 170h-518zM141 4v283h291v-283h-291z" />
<glyph unicode="@" horiz-adv-x="1613" d="M68 731q0 305 217 522t524 217q305 0 522 -217t217 -522q0 -115 -59 -297h-1008q10 223 140 359q51 57 129 104q-47 27 -99.5 44t-105.5 26l28 172q217 -37 379 -174q178 -147 209 -357h201q12 61 12 123q0 233 -166 399t-399 166q-236 0 -401 -166q-166 -166 -166 -399 q0 -236 166 -401q166 -166 401 -166q236 0 405 172l125 -121q-219 -225 -530 -225q-307 0 -524 217t-217 524zM698 608h287q-20 90 -88 170q-92 -39 -149 -102q-23 -23 -50 -68z" />
<glyph unicode="A" horiz-adv-x="1320" d="M59 201q0 524 248 983h-192v289h1145v-1473h-289v756h-533q-2 0 -2 -2t-1 -3t-1 -3q-84 -264 -84 -547q0 -47 3 -97.5t7 -103.5h-292q-4 45 -6.5 94t-2.5 107zM561 1047h410v137h-328q-37 -57 -82 -137z" />
<glyph unicode="B" horiz-adv-x="1163" d="M61 0v1468h1043q-33 -317 -230 -585q227 -270 228 -625q0 -129 -35 -258h-1006zM352 291h455q-6 221 -145 379q-143 -115 -310 -191v-188zM352 807q246 145 363 371h-363v-371z" />
<glyph unicode="C" d="M57 1468h1168v-290h-830q82 -305 305 -541q225 -233 525 -334v-303q-496 133 -819 537q-330 410 -349 931z" />
<glyph unicode="D" horiz-adv-x="1296" d="M66 0v1468h1167q-18 -522 -346 -929q-326 -406 -821 -539zM356 442q410 268 541 736h-541v-736z" />
<glyph unicode="E" horiz-adv-x="1296" d="M66 1468h1118v-290h-781q18 -78 46 -138h696v-288h-533q242 -324 621 -449v-303q-498 131 -821 537q-332 412 -346 931z" />
<glyph unicode="F" horiz-adv-x="1099" d="M70 0v1468h962v-290h-674v-138h473v-288h-473v-752h-288z" />
<glyph unicode="G" horiz-adv-x="1306" d="M70 1468h1167v-290h-829q129 -467 538 -736v598h291v-1040q-496 133 -819 537q-330 410 -348 931z" />
<glyph unicode="H" horiz-adv-x="1312" d="M70 0v1468h288v-434h596v434h291v-1468h-291v743h-596v-743h-288z" />
<glyph unicode="I" horiz-adv-x="428" d="M70 0v1468h288v-1468h-288z" />
<glyph unicode="J" horiz-adv-x="1318" d="M96 852h303q41 -121 102.5 -233.5t139.5 -219.5q264 346 313 779h-510v290h816l-5 -149q-23 -719 -507 -1241l-107 -115l-106 115q-315 340 -439 774z" />
<glyph unicode="K" horiz-adv-x="1308" d="M59 0v1468h291v-809q102 70 190.5 160t160 194.5t125 219.5t83.5 235h297q-80 -385 -315 -688q-6 -8 -15.5 -19t-23.5 -28l397 -733h-329l-281 518q-66 -57 -138.5 -107.5t-150.5 -91.5v-319h-291z" />
<glyph unicode="L" horiz-adv-x="1124" d="M70 0v1468h290v-1179h695v-289h-985z" />
<glyph unicode="M" horiz-adv-x="1695" d="M66 0v1473q479 -121 784 -502q299 381 782 502v-1473h-289v1034q-182 -127 -313 -297q-2 -2 -3 -4t-5 -6q141 -252 199 -555l30 -172h-805l31 172q27 150 77 288t122 267q-6 6 -8 10q-74 92 -152 166t-160 131v-1034h-290zM805 303h90q-14 39 -24.5 69.5t-20.5 53.5 q-31 -70 -45 -123z" />
<glyph unicode="N" horiz-adv-x="1294" d="M68 0v1477q498 -129 868 -627v616l291 2v-1468h-291q0 381 -266 723q-66 86 -142.5 159.5t-169.5 137.5v-1020h-290z" />
<glyph unicode="O" horiz-adv-x="1374" d="M70 1468h1237l-2 -149q-6 -334 -142 -666q-131 -319 -368 -575l-107 -115l-104 115q-246 268 -371 575q-66 160 -100.5 326t-38.5 340zM375 1178q47 -432 313 -779q266 352 316 779h-629z" />
<glyph unicode="P" d="M70 0v1468h1142q-68 -373 -294 -669q-223 -297 -558 -461v-338h-290zM360 670q299 197 453 508h-453v-508z" />
<glyph unicode="Q" horiz-adv-x="1370" d="M66 1468h1239l-5 -149q-8 -399 -182 -768q154 -170 154 -393v-158h-291v158q0 63 -25 116q-78 -109 -165 -204l-105 -113l-106 113q-236 250 -369 575q-133 324 -141 674zM371 1171q31 -270 129 -466q93 32 186 32h6q88 0 180 -28q4 8 8.5 19t12.5 28q82 203 106 415 h-628zM647 444q10 -14 19.5 -27.5t19.5 -23.5q6 8 15.5 21.5t21.5 31.5h-31q-35 0 -45 -2z" />
<glyph unicode="R" horiz-adv-x="1304" d="M59 0v1468h1149q-80 -416 -354 -743l391 -725h-327l-279 514q-135 -109 -289 -184v-330h-291zM350 664q297 193 453 507h-453v-507z" />
<glyph unicode="S" horiz-adv-x="1302" d="M59 754v145q0 240 174 406q173 165 411 165h3h551v-290h-551q-174 0 -256 -138h852q-39 -322 -217 -565q-33 -45 -72 -86t-86 -82q-262 -225 -737 -313l-49 291q598 104 772 467h-795z" />
<glyph unicode="T" horiz-adv-x="1206" d="M72 1178v290h1069v-290h-389v-1178h-291v1178h-389z" />
<glyph unicode="U" horiz-adv-x="1374" d="M70 1468h290l2 -149q6 -551 218 -1030h217q207 479 217 1030l2 149h291l-4 -153q-8 -336 -80 -647q-80 -348 -203 -588l-41 -80h-582l-39 80q-270 551 -284 1235z" />
<glyph unicode="V" horiz-adv-x="1374" d="M70 1468h290l5 -141q16 -516 323 -928q309 418 326 928l4 141h289l-2 -147q-6 -336 -142 -668q-131 -319 -368 -575l-107 -115l-106 115q-489 526 -508 1243z" />
<glyph unicode="W" horiz-adv-x="1810" d="M74 1468h288l5 -135q10 -303 116 -563q76 -190 209 -362q16 23 28.5 40t20.5 29q-29 53 -49 98.5t-37 83.5q-66 160 -100.5 325t-38.5 343l-4 141h291l2 -135q4 -270 106 -534q94 248 105 534l4 135h291l-4 -141q-14 -463 -228 -850q25 -41 51 -69q63 86 114.5 175 t92.5 187q113 276 119 563l2 135h291l-4 -141q-8 -348 -139 -668q-133 -328 -369 -575l-107 -113l-106 113q-29 29 -56.5 61.5t-56.5 71.5q-35 -41 -63.5 -73.5t-50.5 -59.5l-105 -113l-106 113q-231 244 -371 575q-137 332 -139 668z" />
<glyph unicode="X" horiz-adv-x="1415" d="M66 0l10 35q78 270 203 469q49 82 107 157.5t126 147.5q-213 262 -330 616l-14 43h305q41 -123 100.5 -232.5t135.5 -209.5q29 41 56.5 81t51.5 81q76 131 129 280h303l-12 -43q-45 -154 -126 -307t-204 -309q66 -72 124.5 -147.5t109.5 -157.5q59 -98 109 -215t91 -254 l11 -35h-301q-92 322 -342 596q-248 -274 -342 -596h-301z" />
<glyph unicode="Y" horiz-adv-x="1189" d="M68 1468h290l19 -120q59 -354 276 -631q178 297 178 672v38q0 20 -2 41h291q2 -38 2 -75q0 -356 -139 -666q-182 -412 -571 -690l-117 -84l-168 240l119 83q66 47 122 97.5t107 103.5q-68 78 -123 161t-100 169q-109 215 -162 491v5z" />
<glyph unicode="Z" horiz-adv-x="1310" d="M72 0l6 152q23 549 600 1026h-606v290h1151v-272q-711 -403 -832 -905h850v-291h-1169z" />
<glyph unicode="[" horiz-adv-x="546" d="M66 -346v1814h417v-284h-133v-1245h133v-285h-417z" />
<glyph unicode="\" horiz-adv-x="1167" d="M-80 1473l911 -1772h295l-897 1772h-309z" />
<glyph unicode="]" horiz-adv-x="546" d="M68 -61v-285h417v1814h-417v-284h133v-1245h-133z" />
<glyph unicode="^" horiz-adv-x="991" d="M66 803l346 665h178l346 -665h-225l-211 403l-209 -403h-225z" />
<glyph unicode="_" horiz-adv-x="1024" d="M0 -121h1024v-289h-1024v289z" />
<glyph unicode="`" horiz-adv-x="671" d="M31 1716l78 201l532 -209l-78 -203z" />
<glyph unicode="a" horiz-adv-x="1122" d="M51 170q0 446 209 836h-162v245h973v-1251h-246v643h-452q-2 0 -2 -2t-1 -3t-1 -3q-72 -223 -72 -465q0 -39 3 -82t7 -88h-250q-4 39 -5 80t-1 90zM477 889h348v117h-278q-31 -49 -70 -117z" />
<glyph unicode="b" horiz-adv-x="989" d="M51 0v1247h887q-27 -268 -195 -497q193 -229 193 -531q0 -109 -29 -219h-856zM299 248h387q-6 186 -123 321q-123 -98 -264 -161v-160zM299 686q209 123 309 315h-309v-315z" />
<glyph unicode="c" horiz-adv-x="1089" d="M49 1247h991v-246h-704q70 -260 260 -460q190 -199 444 -283v-258q-420 113 -696 457q-281 348 -295 790z" />
<glyph unicode="d" horiz-adv-x="1101" d="M55 0v1247h994q-16 -442 -295 -788q-276 -346 -699 -459zM303 377q348 227 459 624h-459v-624z" />
<glyph unicode="e" horiz-adv-x="1101" d="M55 1247h951v-246h-664q16 -68 39 -116h592v-246h-453q205 -274 529 -381v-258q-424 111 -699 457q-283 350 -295 790z" />
<glyph unicode="f" horiz-adv-x="933" d="M59 0v1247h818v-246h-572v-116h402v-246h-402v-639h-246z" />
<glyph unicode="g" horiz-adv-x="1110" d="M59 1247h992v-246h-705q111 -397 459 -624v508h246v-885q-420 113 -697 457q-279 348 -295 790z" />
<glyph unicode="h" horiz-adv-x="1116" d="M59 0v1247h246v-368h506v368h248v-1247h-248v633h-506v-633h-246z" />
<glyph unicode="i" horiz-adv-x="364" d="M59 0v1247h246v-1247h-246z" />
<glyph unicode="j" horiz-adv-x="1120" d="M82 725h258q35 -104 87 -199.5t118 -185.5q225 293 266 661h-434v246h694l-4 -127q-18 -610 -432 -1054l-90 -97l-90 97q-268 289 -373 659z" />
<glyph unicode="k" horiz-adv-x="1112" d="M51 0v1247h246v-686q88 59 163 135t135 165t106.5 186.5t70.5 199.5h254q-70 -326 -268 -583q-6 -8 -13.5 -17.5t-19.5 -23.5l336 -623h-279l-239 440q-55 -49 -116.5 -91t-129.5 -77v-272h-246z" />
<glyph unicode="l" horiz-adv-x="956" d="M59 0v1247h248v-1001h590v-246h-838z" />
<glyph unicode="m" horiz-adv-x="1441" d="M55 0v1251q408 -102 668 -426q254 324 663 426v-1251h-243v879q-156 -106 -266 -252q-2 -2 -3.5 -4t-5.5 -5q121 -215 170 -473l25 -145h-684l27 145q23 127 65.5 245t101.5 228q-4 4 -6 9q-63 78 -128.5 140t-135.5 112v-879h-248zM684 258h76q-12 33 -20.5 58.5 t-16.5 45.5q-27 -59 -39 -104z" />
<glyph unicode="n" horiz-adv-x="1099" d="M57 0v1255q424 -111 738 -532v524h247v-1247h-247q0 324 -226 614q-55 74 -120.5 136.5t-143.5 115.5v-866h-248z" />
<glyph unicode="o" horiz-adv-x="1167" d="M59 1247h1051l-2 -127q-4 -283 -119 -565q-113 -270 -313 -489l-90 -97l-90 97q-209 229 -316 489q-55 135 -84.5 276.5t-32.5 288.5zM319 1001q39 -369 267 -661q225 299 266 661h-533z" />
<glyph unicode="p" horiz-adv-x="1089" d="M59 0v1247h971q-57 -315 -250 -569q-190 -252 -473 -391v-287h-248zM307 569q254 168 383 432h-383v-432z" />
<glyph unicode="q" horiz-adv-x="1165" d="M55 1247h1053l-2 -127q-8 -338 -156 -651q131 -145 131 -336v-133h-247v133q0 55 -21 100q-66 -92 -141 -174l-88 -96l-90 96q-201 213 -314 490q-115 274 -121 571zM315 995q27 -229 109 -397q82 29 164 29q76 0 153 -25q4 6 7.5 16.5t11.5 24.5q70 172 90 352h-535z M551 377q8 -12 15 -23.5t18 -19.5q4 8 12 19.5t18 25.5h-26q-29 0 -37 -2z" />
<glyph unicode="r" horiz-adv-x="1107" d="M51 0v1247h975q-68 -352 -301 -631l334 -616h-279l-237 436q-115 -92 -246 -155v-281h-246zM297 563q254 164 385 432h-385v-432z" />
<glyph unicode="s" horiz-adv-x="1107" d="M51 641v123q0 205 148 344q147 141 352 141h467v-245h-467q-150 0 -219 -117h725q-33 -274 -185 -481q-29 -39 -61.5 -74t-73.5 -70q-221 -190 -626 -266l-41 248q508 88 655 397h-674z" />
<glyph unicode="t" horiz-adv-x="1026" d="M61 1001v246h908v-246h-330v-1001h-248v1001h-330z" />
<glyph unicode="u" horiz-adv-x="1167" d="M59 1247h248v-127q6 -467 187 -874h184q174 408 184 874l2 127h246l-2 -129q-8 -287 -70 -551q-68 -295 -172 -499l-35 -68h-493l-33 68q-229 469 -242 1050z" />
<glyph unicode="v" horiz-adv-x="1167" d="M59 1247h248l2 -119q14 -438 277 -788q262 354 276 788l2 119h246l-2 -125q-4 -285 -119 -567q-113 -270 -313 -489l-90 -97l-92 97q-416 449 -431 1056z" />
<glyph unicode="w" horiz-adv-x="1538" d="M63 1128v119h244l4 -114q8 -256 101 -478q63 -162 176 -309q14 18 24.5 33.5t18.5 26.5q-25 45 -42.5 83.5t-31.5 71.5q-55 135 -85 275.5t-34 291.5l-4 119h248l2 -114q4 -229 90 -455q80 211 90 455l2 114h248l-4 -119q-12 -393 -192 -722q20 -35 43 -60 q55 74 98 149.5t78 159.5q96 233 100 478l2 114h248l-4 -119q-6 -297 -119 -567q-113 -279 -313 -489l-90 -97l-91 97q-25 25 -48 52.5t-48 59.5q-29 -35 -53.5 -62.5t-42.5 -49.5l-90 -97l-90 97q-197 207 -316 489q-117 281 -119 567z" />
<glyph unicode="x" horiz-adv-x="1202" d="M55 0l8 29q68 231 175 399q41 70 90 134.5t106 125.5q-180 223 -278 524l-13 35h258q35 -104 86.5 -197.5t114.5 -177.5q25 35 48.5 69t43.5 69q66 111 111 237h256l-10 -35q-37 -131 -105.5 -262t-173.5 -262q55 -61 104.5 -125.5t92.5 -134.5q51 -84 94 -183.5 t78 -215.5l8 -29h-256q-78 272 -291 506q-211 -233 -291 -506h-256z" />
<glyph unicode="y" horiz-adv-x="1011" d="M57 1247h248l14 -102q51 -301 236 -537q152 254 152 572v32q0 18 -2 35h247q1 -33 1 -65q0 -301 -117 -564q-156 -350 -486 -587l-100 -72l-141 205l100 72q55 39 103 81.5t91 88.5q-57 66 -104 136t-84 144q-94 182 -139 418v4z" />
<glyph unicode="z" horiz-adv-x="1114" d="M61 0l5 129q20 467 509 872h-514v246h977v-231q-604 -342 -706 -768h723v-248h-994z" />
<glyph unicode="{" horiz-adv-x="638" d="M66 436v164q111 31 108 143v377q0 143 95.5 246.5t250.5 103.5h55v-284h-55q-61 0 -61 -66v-458q0 -78 -39 -144q39 -66 39 -143v-459q0 -66 61 -66h55v-284h-55q-156 0 -254 106q-92 100 -92 244v377q-2 106 -108 143z" />
<glyph unicode="|" horiz-adv-x="421" d="M70 -512v2048h284v-2048h-284z" />
<glyph unicode="}" horiz-adv-x="638" d="M66 -150v-284h55q154 0 252 106q92 100 92 244v377q2 106 110 143v164q-113 31 -110 143v377q0 143 -92 244q-98 106 -252 106h-55v-284h55q59 0 59 -66v-458q0 -78 39 -144q-39 -66 -39 -143v-459q0 -66 -59 -66h-55z" />
<glyph unicode="~" horiz-adv-x="995" d="M68 621q-2 131 77.5 223t208.5 92q45 0 95 -14q16 -4 98 -39q25 -10 69 -29q37 -6 56 2q20 16 20 53h244q4 -131 -74 -217t-207 -86q-96 0 -204 51q-25 12 -64 29q-39 10 -54.5 -7t-19.5 -58h-245z" />
<glyph unicode="&#xa2;" horiz-adv-x="989" d="M45 1262h369v198h288v-198h160v-289h-454q137 -375 536 -504l-92 -276q-35 14 -73 29.5t-77 31.5v-254h-288v453q-27 27 -45.5 46t-30.5 33q-203 238 -262 560z" />
<glyph unicode="&#xa3;" horiz-adv-x="1052" d="M66 586v288h215q2 4 8 17.5t16 40.5q76 178 175.5 320.5t221.5 254.5l197 -213q-88 -82 -164 -186t-139 -234h170v-288h-279q-23 -74 -39 -147.5t-26 -149.5h565v-289h-891l17 160q20 217 73 426h-120z" />
<glyph unicode="&#xa5;" horiz-adv-x="1339" d="M70 492v174h297q-10 10 -22.5 28.5t-29.5 42.5h-245v174h147q-84 184 -94 400l-6 149h291l4 -139q8 -313 258 -563q250 250 258 563l4 139h289l-2 -149q-2 -98 -26 -196.5t-71 -203.5h148v-174h-244q-12 -16 -25.5 -34.5t-27.5 -36.5h297v-174h-455v-492h-291v492h-454z " />
<glyph unicode="&#xa8;" horiz-adv-x="671" d="M72 1542v219h217v-219h-217zM383 1542v219h217v-219h-217z" />
<glyph unicode="&#xa9;" horiz-adv-x="1601" d="M68 715q0 303 215 518t518 215t518 -215t215 -518t-215 -518t-518 -215t-518 215t-215 518zM242 715q0 -231 164 -396q164 -164 395 -163q231 0 395 163q164 169 164 396q0 231 -164 395t-395 164t-395 -164t-164 -395zM412 1102h655v-174h-440q121 -379 499 -504 l-55 -166q-254 86 -424 281q-190 221 -235 563z" />
<glyph unicode="&#xab;" horiz-adv-x="661" d="M72 731q92 229 254 350v-241q-43 -51 -66 -109q23 -59 66 -110v-242q-164 123 -254 352zM338 731q92 229 254 350v-241q-43 -51 -66 -109q23 -59 66 -110v-242q-164 123 -254 352z" />
<glyph unicode="&#xad;" horiz-adv-x="653" d="M72 584v290h512v-290h-512z" />
<glyph unicode="&#xae;" horiz-adv-x="907" d="M63 1057q0 162 115 276q115 115 277 115q160 0 274 -115q115 -114 115 -276t-115 -277q-113 -113 -274 -112q-164 0 -277 112q-115 115 -115 277zM156 1057q0 -123 88 -211q88 -86 211 -86q55 0 108 20l-102 193q-33 -27 -86 -58v-84h-92v435h356q-37 -137 -111 -226 l115 -211q109 91 109 228q0 123 -88 211q-86 88 -209 88t-211 -88t-88 -211zM375 1024q43 29 75.5 66.5t55.5 83.5h-131v-150z" />
<glyph unicode="&#xb4;" horiz-adv-x="671" d="M31 1708l532 209l78 -201l-532 -211z" />
<glyph unicode="&#xb8;" horiz-adv-x="845" d="M113 -84l297 522l188 -106l-113 -199h248l-39 -137q-53 -186 -200 -297q-139 -106 -338 -127l-23 215q186 23 279 129h-299z" />
<glyph unicode="&#xbb;" horiz-adv-x="661" d="M82 379q162 123 254 352q-92 229 -254 350v-241q41 -51 65 -109q-25 -59 -65 -110v-242zM348 379q162 123 254 352q-92 229 -254 350v-241q41 -51 66 -109q-25 -59 -66 -110v-242z" />
<glyph unicode="&#x401;" horiz-adv-x="1296" d="M66 1468q14 -520 346 -931q324 -406 821 -537v303q-186 66 -325.5 162t-243.5 213h481v289h-668q-57 100 -74 211h781v290h-1118zM268 1710v289h291v-289h-291zM707 1710v289h290v-289h-290z" />
<glyph unicode="&#x402;" d="M70 0v1468h1044v-290h-754v-209q244 -49 434.5 -182.5t301 -320.5t128 -414.5t-82.5 -463.5l-293 113q57 178 50 329.5t-71.5 269.5t-183.5 203t-283 132v-635h-290z" />
<glyph unicode="&#x403;" horiz-adv-x="1124" d="M70 0v1468h985v-288h-695v-1180h-290zM446 1710v289h291v-289h-291z" />
<glyph unicode="&#x404;" horiz-adv-x="1296" d="M66 743q0 164 85 301.5t239.5 235.5t369.5 153.5t473 55.5v-297q-115 0 -241 -14.5t-240.5 -49t-205.5 -93t-138 -146.5h737v-289h-739q45 -92 137 -153.5t206.5 -99.5t240.5 -54.5t243 -16.5v-296q-258 0 -473 52t-369.5 150.5t-239.5 240.5t-85 320z" />
<glyph unicode="&#x405;" horiz-adv-x="1302" d="M59 -25v291q137 16 256 56t215.5 97.5t170 128t122.5 150.5h-764v125q0 119 43 236t122 208t186.5 147t236.5 56h551v-290h-551q-51 0 -93 -18.5t-75 -48.5t-54.5 -67.5t-33.5 -78.5h840q-49 -274 -205 -490q-33 -45 -72 -86t-86 -82q-66 -55 -155.5 -112.5t-195 -103.5 t-222.5 -78.5t-236 -39.5z" />
<glyph unicode="&#x406;" horiz-adv-x="428" d="M70 0v1468h288v-1468h-288z" />
<glyph unicode="&#x407;" horiz-adv-x="866" d="M70 1710v289h290v-289h-290zM291 0h289v1468h-289v-1468zM508 1710v289h291v-289h-291z" />
<glyph unicode="&#x408;" horiz-adv-x="1318" d="M96 852h303q41 -121 102.5 -233.5t139.5 -219.5q264 346 313 779h-510v290h816l-5 -149q-23 -719 -507 -1241l-107 -115l-106 115q-315 340 -439 774z" />
<glyph unicode="&#x409;" horiz-adv-x="2148" d="M59 201q0 524 248 983h-192v289h1145v-506q182 -49 330.5 -139.5t257 -214.5t176 -279.5t87.5 -333.5h-1140v1184h-365q-248 -459 -248 -983q0 -47 3.5 -97.5t7.5 -103.5h-301q-4 45 -6.5 94t-2.5 107zM1260 291h426q-70 117 -177.5 204t-248.5 138v-342z" />
<glyph unicode="&#x40a;" horiz-adv-x="2160" d="M70 0v1468h288v-501h596v501h291v-501q182 -41 330.5 -130t257.5 -215t176.5 -285t87.5 -337h-1143v676h-596v-676h-288zM1245 289h445q-18 57 -64.5 118.5t-107 114.5t-132 93t-141.5 59v-385z" />
<glyph unicode="&#x40b;" d="M70 0v1468h1044v-290h-754v-209q182 -49 331 -139.5t257.5 -215.5t176 -280.5t87.5 -333.5h-319q-16 111 -60.5 212t-113 184t-158.5 144.5t-201 94.5v-635h-290z" />
<glyph unicode="&#x40c;" horiz-adv-x="1308" d="M59 0h291v578q102 -31 190.5 -88.5t158 -132t116.5 -166t70 -191.5h321q-16 117 -68.5 230.5t-130 213t-178 176t-215.5 117.5q106 49 206 127t179.5 174.5t134 206t72.5 223.5h-323q-20 -92 -70.5 -183t-122.5 -170t-160 -139.5t-180 -90.5v583h-291v-1468zM469 1710 v289h291v-289h-291z" />
<glyph unicode="&#x40e;" horiz-adv-x="1392" d="M61 1468h301q23 -100 59 -202.5t84 -200.5t108.5 -188.5t134.5 -165.5q129 166 205.5 359.5t86.5 397.5h295q-4 -254 -100 -497.5t-258 -446t-376 -351t-454 -214.5v307q213 74 394 230q-94 96 -172 210.5t-138.5 240.5t-103.5 258t-66 263zM406 1710v289h581v-289h-581z " />
<glyph unicode="&#x40f;" horiz-adv-x="1312" d="M70 0v1468h288v-1177h596v1177h291v-1468h-442v-289h-291v289h-442z" />
<glyph unicode="&#x410;" horiz-adv-x="1320" d="M59 201q0 524 248 983h-192v289h1145v-1473h-289v676h-559q-33 -115 -47.5 -231.5t-14.5 -243.5q0 -47 3 -97.5t7 -103.5h-292q-4 45 -6.5 94t-2.5 107zM522 967h449v217h-328q-35 -55 -64.5 -109.5t-56.5 -107.5z" />
<glyph unicode="&#x411;" d="M70 0v1468h1044v-290h-754v-211q182 -49 331 -139.5t257.5 -214.5t176 -279.5t87.5 -333.5h-1142zM360 291h426q-70 117 -177 204t-249 138v-342z" />
<glyph unicode="&#x412;" horiz-adv-x="1204" d="M61 0v1468h1086q0 -115 -43 -225t-116 -207.5t-169 -175.5t-203 -127q106 -49 202.5 -127t169.5 -174t116 -206.5t43 -225.5h-1086zM352 289h393q-23 51 -66.5 98t-98 87t-113.5 70.5t-115 49.5v-305zM352 874q55 18 111.5 49t109 71t97.5 87t75 99h-393v-306z" />
<glyph unicode="&#x413;" horiz-adv-x="1124" d="M70 0v1468h985v-288h-695v-1180h-290z" />
<glyph unicode="&#x414;" horiz-adv-x="1320" d="M59 201q0 524 248 983h-192v289h1145v-1473h-1192q-4 45 -6.5 94t-2.5 107zM358 289h613v895h-367q-227 -420 -246 -895z" />
<glyph unicode="&#x415;" horiz-adv-x="1296" d="M66 1468h1118v-290h-781q16 -111 74 -211h668v-289h-481q104 -117 243.5 -213t325.5 -162v-303q-498 131 -821 537q-332 412 -346 931z" />
<glyph unicode="&#x416;" horiz-adv-x="2002" d="M61 0q16 117 58.5 230.5t109 213t157.5 176t206 117.5q-106 49 -196.5 127t-158 174.5t-112.5 206t-64 223.5h324q20 -92 61 -183t101.5 -170t138.5 -139.5t170 -90.5v583h291v-583q92 31 170 91t138.5 139t101 170t61.5 183h324q-18 -115 -63.5 -224t-113 -205.5 t-157.5 -174.5t-197 -127q115 -41 206 -117.5t157.5 -176t108.5 -213t59 -230.5h-322q-23 100 -60.5 191.5t-95 166t-136.5 132t-181 88.5v-578h-291v578q-102 -31 -181 -88.5t-136.5 -132t-96.5 -166t-59 -191.5h-322z" />
<glyph unicode="&#x417;" horiz-adv-x="1280" d="M61 0v289h684q-39 51 -88 98t-104 87t-112.5 70.5t-112.5 49.5v280q55 18 112.5 49t112.5 71t104.5 87t87.5 99h-684v288h1147q-18 -115 -72.5 -225t-134 -207.5t-179.5 -175.5t-206 -127q106 -49 206 -127t179.5 -174t134 -206.5t72.5 -225.5h-1147z" />
<glyph unicode="&#x418;" horiz-adv-x="1294" d="M68 0v1468h290v-618q186 250 403.5 415t465.5 230v-1495h-291v1040q-123 -84 -230.5 -203.5t-186.5 -259t-122 -288t-39 -289.5h-290z" />
<glyph unicode="&#x419;" horiz-adv-x="1294" d="M68 0v1468h290v-618q186 250 403.5 415t465.5 230v-1495h-291v1040q-123 -84 -230.5 -203.5t-186.5 -259t-122 -288t-39 -289.5h-290zM358 1710v289h582v-289h-582z" />
<glyph unicode="&#x41a;" horiz-adv-x="1263" d="M59 0v1468h291v-583q92 31 180 91t160 139t122 170t71 183h323q-18 -115 -72.5 -224t-134 -205.5t-179 -174.5t-206.5 -127q115 -41 215.5 -117.5t178 -176t130 -213t68.5 -230.5h-321q-23 100 -70 191.5t-116.5 166t-157.5 132t-191 88.5v-578h-291z" />
<glyph unicode="&#x41b;" horiz-adv-x="1320" d="M59 201q0 524 248 983h-192v289h1145v-1473h-289v1184h-365q-248 -459 -248 -983q0 -47 3.5 -97.5t7.5 -103.5h-301q-4 45 -6.5 94t-2.5 107z" />
<glyph unicode="&#x41c;" horiz-adv-x="1695" d="M66 0v1491q240 -59 435 -193.5t349 -326.5q152 193 346.5 327t435.5 193v-1491h-289v1053q-92 -63 -169.5 -146.5t-143.5 -169.5q-2 -2 -3 -4t-5 -6q141 -252 199 -555l30 -172h-805l31 172q27 150 77 288t122 267q-6 6 -8 10q-74 92 -152 175t-160 141v-1053h-290z M764 242h172q-4 18 -12.5 49t-20.5 63.5t-25.5 63.5t-27.5 49q-14 -18 -28.5 -51t-27 -68t-20.5 -64.5t-10 -41.5z" />
<glyph unicode="&#x41d;" horiz-adv-x="1312" d="M70 0v1468h288v-501h596v501h291v-1468h-291v676h-596v-676h-288z" />
<glyph unicode="&#x41e;" horiz-adv-x="1374" d="M70 1468h1237l-2 -149q-6 -334 -142 -666q-131 -319 -368 -575l-107 -115l-104 115q-246 268 -371 575q-66 160 -100.5 326t-38.5 340zM375 1178q47 -432 313 -779q266 352 316 779h-629z" />
<glyph unicode="&#x41f;" horiz-adv-x="1312" d="M70 0v1468h1175v-1468h-291v1178h-596v-1178h-288z" />
<glyph unicode="&#x420;" d="M70 0v1468h1142q-31 -182 -106.5 -351t-186 -315.5t-252 -265t-307.5 -198.5v-338h-290zM360 670q299 197 453 508h-453v-508z" />
<glyph unicode="&#x421;" d="M57 1468h1168v-290h-830q82 -305 305 -541q225 -233 525 -334v-303q-496 133 -819 537q-330 410 -349 931z" />
<glyph unicode="&#x422;" horiz-adv-x="1206" d="M72 1178v290h1069v-290h-389v-1178h-291v1178h-389z" />
<glyph unicode="&#x423;" horiz-adv-x="1398" d="M61 1468h301q23 -100 59 -202.5t84 -200.5t108.5 -188.5t134.5 -165.5q129 166 205.5 359.5t86.5 397.5h295q-4 -254 -100 -497.5t-258 -446t-376 -351t-454 -214.5v307q213 74 394 230q-94 96 -172 210.5t-138.5 240.5t-103.5 258t-66 263z" />
<glyph unicode="&#x424;" horiz-adv-x="2045" d="M72 1468h1900q0 -207 -46 -412.5t-143 -380.5t-250 -304t-366 -178v-193h-290v193q-213 49 -366 178t-250 304t-143 381t-46 412zM426 1178q10 -102 45 -210t92.5 -201t136 -162.5t177.5 -98.5v672h-451zM1167 506q98 29 177 98.5t136.5 162.5t92.5 200.5t45 210.5h-451 v-672z" />
<glyph unicode="&#x425;" horiz-adv-x="1415" d="M66 0l10 35q78 270 203 469q49 82 107 157.5t126 147.5q-213 262 -330 616l-14 43h305q41 -123 100.5 -232.5t135.5 -209.5q29 41 56.5 81t51.5 81q76 131 129 280h303l-12 -43q-45 -154 -126 -307t-204 -309q66 -72 124.5 -147.5t109.5 -157.5q59 -98 109 -215t91 -254 l11 -35h-301q-92 322 -342 596q-248 -274 -342 -596h-301z" />
<glyph unicode="&#x426;" horiz-adv-x="1312" d="M70 0v1468h288v-1177h596v1177h291v-1757h-291v289h-884z" />
<glyph unicode="&#x427;" d="M70 1468h319q16 -111 60.5 -212t113 -184t158.5 -144.5t201 -93.5v634h290v-1468h-290v500q-182 49 -331 139t-257.5 215t-176 280.5t-87.5 333.5z" />
<glyph unicode="&#x428;" horiz-adv-x="1765" d="M70 0v1468h290v-1179h377v1179h291v-1179h377v1179h291v-1468h-1626z" />
<glyph unicode="&#x429;" horiz-adv-x="1765" d="M70 0v1468h290v-1179h377v1179h291v-1179h377v1179h291v-1757h-291v289h-1335z" />
<glyph unicode="&#x42a;" horiz-adv-x="1507" d="M70 1178v290h516v-501q182 -49 330.5 -139.5t257 -214.5t176 -279.5t88.5 -333.5h-1143v1178h-225zM586 291h426q-70 117 -177.5 204t-248.5 138v-342z" />
<glyph unicode="&#x42b;" horiz-adv-x="1662" d="M70 0v1468h290v-501q182 -49 331 -139.5t257.5 -214.5t176 -279.5t87.5 -333.5h-1142zM360 291h426q-70 117 -177 204t-249 138v-342zM1296 0v1468h289v-1468h-289z" />
<glyph unicode="&#x42c;" horiz-adv-x="1296" d="M70 0v1468h290v-501q182 -49 331 -139.5t257.5 -214.5t176 -279.5t87.5 -333.5h-1142zM360 291h426q-70 117 -177 204t-249 138v-342z" />
<glyph unicode="&#x42d;" horiz-adv-x="1296" d="M63 -20v296q117 0 243 16.5t241 54.5t206 99.5t138 153.5h-739v289h737q-47 88 -138.5 146.5t-206 93t-240.5 49t-241 14.5v297q258 0 473.5 -55.5t370 -153.5t239.5 -235.5t85 -301.5q0 -178 -85 -320t-239.5 -240.5t-369.5 -150.5t-474 -52z" />
<glyph unicode="&#x42e;" horiz-adv-x="1761" d="M70 0v1468h288v-387h117q-10 59 -14 119t-6 119l-4 149h1237l-2 -149q-6 -334 -142 -666q-131 -319 -368 -575l-107 -115l-104 115q-246 268 -371 575q-14 35 -27.5 69t-23.5 69h-185v-791h-288zM756 1178q47 -432 313 -779q266 352 315 779h-628z" />
<glyph unicode="&#x42f;" horiz-adv-x="1304" d="M57 0l392 725q-274 328 -355 743h1149v-1468h-291v330q-154 76 -288 184l-279 -514h-328zM500 1171q156 -315 452 -507v507h-452z" />
<glyph unicode="&#x430;" horiz-adv-x="1122" d="M51 170q0 446 209 836h-162v245h973v-1251h-246v573h-475q-29 -96 -41 -195t-12 -208q0 -39 3 -82t7 -88h-250q-4 39 -5 80t-1 90zM444 821h381v185h-278q-31 -47 -55.5 -93.5t-47.5 -91.5z" />
<glyph unicode="&#x431;" horiz-adv-x="1089" d="M59 0v1247h887v-246h-639v-180q154 -41 280 -117.5t219 -182t150.5 -237.5t73.5 -284h-971zM307 248h361q-59 98 -150.5 172t-210.5 119v-291z" />
<glyph unicode="&#x432;" horiz-adv-x="1024" d="M51 0v1247h924q0 -96 -37 -190t-98.5 -177t-143.5 -148.5t-172 -108.5q90 -41 172 -107.5t143.5 -148.5t98.5 -175.5t37 -191.5h-924zM299 246h334q-18 43 -56 83t-84.5 73.5t-96.5 60t-97 41.5v-258zM299 743q47 16 95 42t92 60t83 73.5t64 85.5h-334v-261z" />
<glyph unicode="&#x433;" horiz-adv-x="956" d="M59 0v1247h838v-243h-590v-1004h-248z" />
<glyph unicode="&#x434;" horiz-adv-x="1122" d="M51 170q0 446 209 836h-162v245h973v-1251h-1014q-4 39 -5 80t-1 90zM305 246h520v760h-311q-195 -356 -209 -760z" />
<glyph unicode="&#x435;" horiz-adv-x="1101" d="M55 1247h951v-246h-664q14 -94 64 -180h567v-246h-410q90 -98 208 -180t278 -137v-258q-424 111 -699 457q-283 350 -295 790z" />
<glyph unicode="&#x436;" horiz-adv-x="1701" d="M51 0q14 98 50 195.5t92.5 181.5t134.5 149.5t176 100.5q-92 41 -168 107.5t-133.5 148.5t-96 175t-55.5 189h277q16 -78 51 -154.5t86 -144t117.5 -119t144.5 -77.5v495h248v-495q78 27 144.5 78t117.5 118.5t86 144t51 154.5h277q-16 -96 -54 -189t-95.5 -175 t-134.5 -148.5t-167 -107.5q96 -35 174 -100.5t134.5 -149.5t92 -181.5t50.5 -195.5h-275q-18 86 -50 163t-81 140.5t-116.5 112.5t-153.5 76v-492h-248v492q-86 -27 -153.5 -76t-115.5 -112.5t-82 -140.5t-50 -163h-275z" />
<glyph unicode="&#x437;" horiz-adv-x="1087" d="M51 0v246h582q-33 43 -75 83t-88 73.5t-95 60t-96 41.5v239q47 16 96 42t95 60t88 73.5t75 85.5h-582v243h975q-14 -96 -60 -190t-115 -177t-153 -148.5t-174 -108.5q90 -41 174 -107.5t153 -148.5t115 -175.5t60 -191.5h-975z" />
<glyph unicode="&#x438;" horiz-adv-x="1099" d="M57 0v1247h248v-524q158 211 342 351t395 196v-1270h-247v885q-104 -72 -195.5 -174.5t-158 -220t-103.5 -243.5t-33 -247h-248z" />
<glyph unicode="&#x439;" horiz-adv-x="1099" d="M57 0v1247h248v-524q158 211 342 351t395 196v-1270h-247v885q-104 -72 -195.5 -174.5t-158 -220t-103.5 -243.5t-33 -247h-248zM305 1454v246h494v-246h-494z" />
<glyph unicode="&#x43a;" horiz-adv-x="1073" d="M51 0v1247h246v-495q80 27 154.5 78t135 118.5t103.5 144t60 154.5h276q-16 -96 -62 -189t-114 -175t-153 -148.5t-175 -107.5q98 -35 183.5 -100.5t151 -149.5t110.5 -181.5t59 -195.5h-274q-18 86 -58.5 163t-99.5 140.5t-134 112.5t-163 76v-492h-246z" />
<glyph unicode="&#x43b;" horiz-adv-x="1122" d="M51 170q0 446 209 836h-162v245h973v-1251h-246v1006h-309q-211 -389 -211 -836q0 -39 2 -82t6 -88h-256q-4 39 -5 80t-1 90z" />
<glyph unicode="&#x43c;" horiz-adv-x="1441" d="M55 0v1268q205 -51 371 -165t297 -278q129 164 294 278t369 165v-1268h-243v895q-80 -53 -145.5 -124t-120.5 -144q-2 -2 -3.5 -4t-5.5 -5q121 -215 170 -473l25 -145h-684l27 145q23 127 65.5 245t101.5 228q-4 4 -6 9q-63 78 -128.5 148.5t-135.5 119.5v-895h-248z M649 205h146q-2 16 -9.5 41.5t-17.5 54.5t-21.5 54.5t-23.5 41.5q-12 -16 -24.5 -43.5t-22.5 -57.5t-17.5 -55.5t-9.5 -35.5z" />
<glyph unicode="&#x43d;" horiz-adv-x="1116" d="M59 0v1247h246v-426h506v426h248v-1247h-248v573h-506v-573h-246z" />
<glyph unicode="&#x43e;" horiz-adv-x="1167" d="M59 1247h1051l-2 -127q-4 -283 -119 -565q-113 -270 -313 -489l-90 -97l-90 97q-209 229 -316 489q-55 135 -84.5 276.5t-32.5 288.5zM319 1001q39 -369 267 -661q225 299 266 661h-533z" />
<glyph unicode="&#x43f;" horiz-adv-x="1116" d="M59 0v1247h1000v-1247h-248v1001h-506v-1001h-246z" />
<glyph unicode="&#x440;" horiz-adv-x="1089" d="M59 0v1247h971q-27 -154 -90 -297t-157.5 -268t-215.5 -226.5t-260 -168.5v-287h-248zM307 569q254 168 383 432h-383v-432z" />
<glyph unicode="&#x441;" horiz-adv-x="1089" d="M49 1247h991v-246h-704q70 -260 260 -460q190 -199 444 -283v-258q-420 113 -696 457q-281 348 -295 790z" />
<glyph unicode="&#x442;" horiz-adv-x="1026" d="M61 1001v246h908v-246h-330v-1001h-248v1001h-330z" />
<glyph unicode="&#x443;" horiz-adv-x="1189" d="M51 1247h256q20 -84 51 -171t71 -171t92 -160.5t114 -140.5q111 141 176.5 305t73.5 338h250q-4 -215 -85 -422t-219.5 -380t-319.5 -299t-386 -181v260q182 63 334 197q-80 82 -145.5 179t-117 203.5t-88 219.5t-57.5 223z" />
<glyph unicode="&#x444;" horiz-adv-x="1738" d="M61 1247h1616q0 -174 -40 -349t-121.5 -324.5t-211.5 -259t-313 -150.5v-164h-246v164q-182 41 -311 150.5t-212 259t-122 324.5t-39 349zM362 1001q8 -88 38 -179t79 -170t116 -138t150 -84v571h-383zM991 430q84 25 151.5 84t116 138t78 170t37.5 179h-383v-571z" />
<glyph unicode="&#x445;" horiz-adv-x="1202" d="M55 0l8 29q68 231 175 399q41 70 90 134.5t106 125.5q-180 223 -278 524l-13 35h258q35 -104 86.5 -197.5t114.5 -177.5q25 35 48.5 69t43.5 69q66 111 111 237h256l-10 -35q-37 -131 -105.5 -262t-173.5 -262q55 -61 104.5 -125.5t92.5 -134.5q51 -84 94 -183.5 t78 -215.5l8 -29h-256q-78 272 -291 506q-211 -233 -291 -506h-256z" />
<glyph unicode="&#x446;" horiz-adv-x="1116" d="M59 0v1247h246v-999h506v999h248v-1493h-248v246h-752z" />
<glyph unicode="&#x447;" horiz-adv-x="1089" d="M59 1247h271q14 -92 52 -179t96.5 -156.5t135 -122t168.5 -80.5v538h248v-1247h-248v424q-154 43 -279.5 120t-219 182t-150.5 237.5t-74 283.5z" />
<glyph unicode="&#x448;" horiz-adv-x="1501" d="M59 0v1247h248v-1001h320v1001h247v-1001h320v1001h248v-1247h-1383z" />
<glyph unicode="&#x449;" horiz-adv-x="1501" d="M59 0v1247h248v-1001h320v1001h247v-1001h320v1001h248v-1493h-248v246h-1135z" />
<glyph unicode="&#x44a;" d="M59 1001v246h439v-426q156 -41 281.5 -117.5t218 -182t149.5 -237.5t76 -284h-973v1001h-191zM498 248h362q-59 98 -150.5 172t-211.5 119v-291z" />
<glyph unicode="&#x44b;" horiz-adv-x="1413" d="M59 0v1247h248v-426q154 -41 280 -117.5t219 -182t150.5 -237.5t73.5 -284h-971zM307 248h361q-59 98 -150.5 172t-210.5 119v-291zM1102 0v1247h246v-1247h-246z" />
<glyph unicode="&#x44c;" horiz-adv-x="1101" d="M59 0v1247h248v-426q154 -41 280 -117.5t219 -182t150.5 -237.5t73.5 -284h-971zM307 248h361q-59 98 -150.5 172t-210.5 119v-291z" />
<glyph unicode="&#x44d;" horiz-adv-x="1101" d="M53 -18v254q100 0 207 13t205 46t175 85t118 130h-629v246h627q-41 74 -118 124t-175 79.5t-204.5 42t-205.5 12.5v252q219 0 402.5 -47.5t314.5 -131t204 -199.5t73 -255q0 -152 -73 -273.5t-204 -204.5t-314.5 -128t-402.5 -45z" />
<glyph unicode="&#x44e;" horiz-adv-x="1497" d="M59 0v1247h246v-327h98q-8 49 -11 100t-5 100l-4 127h1051v-127q-6 -283 -121 -565q-113 -270 -314 -489l-90 -97l-90 97q-209 229 -315 489q-10 31 -22.5 59.5t-20.5 57.5h-156v-672h-246zM643 1001q39 -369 266 -661q225 299 269 661h-535z" />
<glyph unicode="&#x44f;" horiz-adv-x="1107" d="M49 0l332 616q-233 279 -301 631h977v-1247h-248v281q-131 63 -246 155l-235 -436h-279zM424 995q133 -268 385 -432v432h-385z" />
<glyph unicode="&#x451;" horiz-adv-x="1101" d="M55 1247q12 -440 295 -790q274 -346 699 -457v258q-160 55 -278 137t-208 180h410v246h-567q-49 86 -64 180h664v246h-951zM227 1454v246h248v-246h-248zM600 1454v246h248v-246h-248z" />
<glyph unicode="&#x452;" d="M70 0v1468h1044v-290h-754v-209q244 -49 434.5 -182.5t301 -320.5t128 -414.5t-82.5 -463.5l-293 113q57 178 50 329.5t-71.5 269.5t-183.5 203t-283 132v-635h-290z" />
<glyph unicode="&#x453;" horiz-adv-x="1124" d="M70 0v1468h985v-288h-695v-1180h-290zM446 1710v289h291v-289h-291z" />
<glyph unicode="&#x454;" horiz-adv-x="1101" d="M55 633q0 139 73 255t204 199.5t314 131t403 47.5v-252q-98 0 -205 -12.5t-205 -42t-175 -80t-118 -123.5h627v-246h-629q39 -78 117 -130t176 -85t204.5 -46t207.5 -13v-254q-219 0 -402.5 45t-314.5 128t-204 204.5t-73 273.5z" />
<glyph unicode="&#x455;" horiz-adv-x="1302" d="M59 -25v291q137 16 256 56t215.5 97.5t170 128t122.5 150.5h-764v125q0 119 43 236t122 208t186.5 147t236.5 56h551v-290h-551q-51 0 -93 -18.5t-75 -48.5t-54.5 -67.5t-33.5 -78.5h840q-49 -274 -205 -490q-33 -45 -72 -86t-86 -82q-66 -55 -155.5 -112.5t-195 -103.5 t-222.5 -78.5t-236 -39.5z" />
<glyph unicode="&#x456;" horiz-adv-x="364" d="M59 0v1247h246v-1247h-246z" />
<glyph unicode="&#x457;" horiz-adv-x="866" d="M70 1710v289h290v-289h-290zM291 0h289v1468h-289v-1468zM508 1710v289h291v-289h-291z" />
<glyph unicode="&#x458;" horiz-adv-x="1318" d="M96 852h303q41 -121 102.5 -233.5t139.5 -219.5q264 346 313 779h-510v290h816l-5 -149q-23 -719 -507 -1241l-107 -115l-106 115q-315 340 -439 774z" />
<glyph unicode="&#x459;" horiz-adv-x="1826" d="M51 170q0 446 209 836h-162v245h973v-430q154 -41 281 -117.5t219 -182t149.5 -237.5t73.5 -284h-969v1006h-309q-211 -389 -211 -836q0 -39 2 -82t6 -88h-256q-4 39 -5 80t-1 90zM1071 248h363q-59 98 -151.5 172t-211.5 119v-291z" />
<glyph unicode="&#x45a;" horiz-adv-x="1837" d="M59 0v1247h246v-426h506v426h248v-426q154 -35 280.5 -110.5t219 -182t149.5 -241.5t74 -287h-971v573h-506v-573h-246zM1059 246h377q-14 49 -54.5 101t-91.5 97t-111.5 79t-119.5 50v-327z" />
<glyph unicode="&#x45b;" d="M70 0v1468h1044v-290h-754v-209q182 -49 331 -139.5t257.5 -215.5t176 -280.5t87.5 -333.5h-319q-16 111 -60.5 212t-113 184t-158.5 144.5t-201 94.5v-635h-290z" />
<glyph unicode="&#x45c;" horiz-adv-x="1112" d="M51 0h246v492q88 -27 163 -76t134 -112.5t99 -140.5t59 -163h274q-14 98 -59 195.5t-110.5 181.5t-150.5 149.5t-184 100.5q90 41 175 107.5t153 148.5t114 175t62 189h-276q-16 -78 -59.5 -154.5t-104 -144t-135 -119t-154.5 -77.5v495h-246v-1247zM399 1454v246h246 v-246h-246z" />
<glyph unicode="&#x45e;" horiz-adv-x="1183" d="M51 1247h256q20 -84 51 -171t71 -171t92 -160.5t114 -140.5q111 141 176.5 305t73.5 338h250q-4 -215 -85 -422t-219.5 -380t-319.5 -299t-386 -181v260q182 63 334 197q-80 82 -145.5 179t-117 203.5t-88 219.5t-57.5 223zM344 1454v246h496v-246h-496z" />
<glyph unicode="&#x45f;" horiz-adv-x="1116" d="M59 0v1247h246v-999h506v999h248v-1247h-377v-246h-248v246h-375z" />
<glyph unicode="&#x490;" horiz-adv-x="1124" d="M70 0v1468h694v289h291v-577h-695v-1180h-290z" />
<glyph unicode="&#x491;" horiz-adv-x="956" d="M59 0v1247h590v246h248v-489h-590v-1004h-248z" />
<glyph unicode="&#x2000;" horiz-adv-x="999" />
<glyph unicode="&#x2001;" horiz-adv-x="1999" />
<glyph unicode="&#x2002;" horiz-adv-x="999" />
<glyph unicode="&#x2003;" horiz-adv-x="1999" />
<glyph unicode="&#x2004;" horiz-adv-x="666" />
<glyph unicode="&#x2005;" horiz-adv-x="499" />
<glyph unicode="&#x2006;" horiz-adv-x="333" />
<glyph unicode="&#x2007;" horiz-adv-x="333" />
<glyph unicode="&#x2008;" horiz-adv-x="249" />
<glyph unicode="&#x2009;" horiz-adv-x="399" />
<glyph unicode="&#x200a;" horiz-adv-x="111" />
<glyph unicode="&#x2010;" horiz-adv-x="653" d="M72 584v290h512v-290h-512z" />
<glyph unicode="&#x2011;" horiz-adv-x="653" d="M72 584v290h512v-290h-512z" />
<glyph unicode="&#x2012;" horiz-adv-x="653" d="M72 584v290h512v-290h-512z" />
<glyph unicode="&#x2013;" horiz-adv-x="1024" d="M66 584v290h895v-290h-895z" />
<glyph unicode="&#x2014;" horiz-adv-x="2048" d="M72 584v290h1904v-290h-1904z" />
<glyph unicode="&#x2018;" horiz-adv-x="417" d="M68 1128l135 408h162v-408h-297z" />
<glyph unicode="&#x2019;" horiz-adv-x="417" d="M68 1128v408h297l-136 -408h-161z" />
<glyph unicode="&#x201a;" horiz-adv-x="417" d="M68 -141v407h297l-136 -407h-161z" />
<glyph unicode="&#x201c;" horiz-adv-x="677" d="M68 1128l135 408h162v-315l104 315h162v-408h-563z" />
<glyph unicode="&#x201d;" horiz-adv-x="677" d="M68 1128v408h563l-135 -408h-162v316l-105 -316h-161z" />
<glyph unicode="&#x201e;" horiz-adv-x="677" d="M68 -138v408h563l-135 -408h-162v316l-105 -316h-161z" />
<glyph unicode="&#x2026;" horiz-adv-x="1247" d="M70 0v283h290v-283h-290zM479 0v283h291v-283h-291zM889 0v283h291v-283h-291z" />
<glyph unicode="&#x202f;" horiz-adv-x="399" />
<glyph unicode="&#x2039;" horiz-adv-x="417" d="M82 731q92 229 254 350v-241q-41 -51 -66 -109q25 -59 66 -110v-242q-162 123 -254 352z" />
<glyph unicode="&#x203a;" horiz-adv-x="417" d="M82 379q162 123 254 352q-92 229 -254 350v-241q41 -51 65 -109q-25 -59 -65 -110v-242z" />
<glyph unicode="&#x205f;" horiz-adv-x="499" />
<glyph unicode="&#x20ac;" horiz-adv-x="1499" d="M70 580l102 174h236q-6 10 -15.5 28.5t-21.5 42.5h-295l104 174h117q-27 72 -45.5 145t-32.5 148l-31 168h1143v-289h-786q33 -109 63 -172h750l-105 -174h-551q23 -43 50 -71h460l-104 -174h-203q223 -211 527 -310l-91 -276q-512 170 -821 586h-450z" />
<glyph unicode="&#x2122;" horiz-adv-x="1126" d="M68 1364v104h385v-104h-142v-424h-104v424h-139zM496 940v530q172 -43 282 -180q109 137 281 180v-530h-105v373q-16 -12 -114 -111q51 -92 71 -201l11 -61h-289l10 61q18 109 72 201q-2 2 -2 4q-53 66 -113 107v-373h-104zM762 1049h31q-8 29 -15 45q-12 -27 -16 -45z " />
<glyph unicode="&#x25fc;" horiz-adv-x="1249" d="M0 0v1249h1249v-1249h-1249z" />
</font>
</defs>
</svg>
